<svg width="1018" height="1470" viewBox="0 0 1018 1470" fill="none" xmlns="http://www.w3.org/2000/svg">
<g opacity="0.15" clip-path="url(#clip0)">
<path opacity="0.9" d="M271.296 434.868C266.331 434.141 260.774 431.214 257.956 438.469C257.512 439.639 256.452 440.782 255.359 439.967C247.284 433.828 243.59 441.232 238.728 445.157C235.256 445.358 232.633 447.329 230.238 449.519C219.92 458.999 209.148 467.899 198.513 476.975C184.81 488.684 172.805 502.377 160.035 515.168C155.695 519.506 149.931 522.354 146.802 527.982C146.113 529.202 144.384 530.36 145.635 531.703C146.463 532.613 148.252 532.797 149.636 533.043C152.933 533.632 153.487 530.505 154.956 528.617C157.916 530.547 157.469 534.1 159.311 536.34L159.322 536.246C156.19 538.617 154.237 542.274 157.217 544.954C160.439 547.869 164.612 550.804 169.698 549.876C171.276 549.574 172.196 548.144 171.39 546.537C167.021 537.748 172.158 537.319 178.824 537.647C180.308 537.731 181.86 536.202 183.401 535.419C184.233 535.503 185.061 535.619 185.893 535.704C183.894 541.437 176.053 544.383 178.324 553.174C184.081 547.497 186.446 539.918 192.242 535.231C192.926 535.488 193.073 537.555 194.344 535.85C193.653 535.655 192.944 535.474 192.252 535.28C189.533 527.833 187.904 534.183 185.885 535.766C185.057 535.65 184.225 535.566 183.397 535.45C180.785 531.433 174.369 529.832 174.351 524.745C174.332 521.359 173.513 518.288 171.495 517.235C168.955 515.911 167.104 519.12 165.515 521.216C164.854 522.074 164.131 523.321 162.899 521.822C164.402 515.06 167.349 510.283 175.329 509.864C178.735 509.687 183.553 508.346 181.37 502.633C178.847 496.052 183.333 493.781 187.976 492.975C192.049 492.275 195.046 490.492 197.97 488L197.894 487.975C202.866 494.28 208.424 500.464 200.688 508.571C199.504 509.811 198.967 512.018 201.817 512.362C205.902 512.871 208.762 516.807 213.147 516.288C197.386 550.867 172.838 578.363 144.11 602.59C120.196 622.759 93.5675 636.753 62.035 640.081C57.7377 640.532 53.9822 643.59 49.4173 642.578C44.1402 638.922 46.2031 630.559 39.8036 627.642C39.871 626.824 39.9522 626.023 40.0372 625.191C40.0458 624.334 40.0406 623.46 40.0668 622.589C40.0991 621.798 40.1489 620.994 40.1813 620.204C40.953 619.343 40.9615 618.486 40.1581 617.643C40.0504 616.565 39.9252 615.501 39.8175 614.424C39.996 614 40.0316 613.576 39.9733 613.14C40.1081 612.552 40.2429 611.965 40.409 611.381C40.4831 610.246 40.561 609.079 40.6351 607.944C43.6511 569.841 61.4213 539.27 88.4598 513.25C121.543 481.413 159.388 458 204.276 446.751C221.696 442.387 237.058 432.07 255.025 429.09C257.231 428.721 263.718 426.072 257.826 422.246C237.536 408.993 215.536 399.235 191.843 393.865C187.453 392.858 181.665 391.445 180.507 399.297C180.155 401.67 176.938 401.075 175.064 400.674C159.421 397.324 143.446 398.939 127.685 396.957C81.7274 391.219 42.507 372.773 11.5535 337.783C6.21669 331.737 2.33453 324.833 -0.401493 317.257C0.435335 314.419 -1.2574 312.26 -2.16656 309.799C-3.64894 305.775 -6.51227 300.821 -5.30145 297.519C-1.92151 288.124 -1.61667 275.783 11.9706 273.546C12.4058 273.233 12.8922 273.022 13.4437 272.929C16.8553 275.327 18.8449 272.548 21.1338 270.839C21.6103 270.578 22.1281 270.371 22.6559 270.212C26.405 270.22 30.1887 271.646 33.8763 269.803C34.7856 269.118 35.6812 268.416 36.5905 267.731C38.3777 269.504 39.4601 271.716 42.851 271.664C63.4528 271.466 82.2172 279.737 101.442 285.521C105.902 286.87 109.082 287.381 112.681 284.701C120.813 285.381 125.972 292.899 135.431 294.692C132.239 287.077 129.569 280.527 126.732 274.051C115.184 247.679 109.872 220.329 113.381 191.532C114.991 178.253 120.321 167.583 132.321 160.61C135.588 158.7 138.267 159.151 141.497 159.763C168.547 164.967 188.287 181.57 205.863 201.344C230.686 229.239 248.47 260.923 258.735 297.086C264.046 315.793 266.872 334.55 267.379 353.821C267.442 356.578 266.758 359.863 269.825 361.823L269.823 361.711C267.077 363.127 268.062 364.962 269.231 366.851L269.285 366.667C269.123 367.617 268.946 368.549 268.766 369.512C265.282 371.507 270.076 375.088 267.44 377.297C258.648 373.932 262.58 358.803 250.185 358.944C250.073 358.946 249.879 358.446 249.833 358.17C248.588 348.915 241.599 342.606 236.946 335.371C233.069 329.342 232.932 322.223 228.51 316.62C220.401 306.315 212.65 295.019 209.278 282.727C205.46 268.745 192.512 262.431 187.475 250.113C188.641 263.172 198.248 272.133 202.96 283.458C200.422 283.295 199.833 279.506 197.129 280.181C195.868 280.489 194.706 281.684 193.828 282.769C193.493 283.174 193.983 285.028 194.265 285.062C203.107 286.177 199.677 297.172 206.711 300.356C209.257 301.506 205.452 313.361 214.854 305.28C216.059 304.249 217.796 306.827 218.639 308.263C220.846 311.946 222.979 315.715 223.538 320.151C220.673 320.839 217.541 318.363 215.937 321.633C214.611 324.317 217.131 325.94 218.472 327.723C221.986 332.421 225.662 336.964 229.309 341.615C231.088 340.05 229.564 338.722 229.487 337.394C229.378 335.411 228.33 332.917 231.29 332.353C233.455 331.931 234.026 334.033 234.699 335.688C235.142 336.758 235.695 337.826 236.257 338.831C237.718 341.454 241.698 344.541 237.956 346.965C235.297 348.709 231.075 348.279 227.246 346.18C224.085 344.464 225.024 339.08 218.944 339.427C230.24 356.473 246.724 368.345 255.675 386.125C252.516 382.566 249.343 378.989 246.028 375.268C243.035 380.818 243.284 387.283 237.432 390.199C224.319 384.072 213 375.206 201.39 366.766C199.364 363.169 196.472 361.072 191.127 360.729C193.978 365.522 196.34 369.366 197.267 373.911C193.491 374.123 192.169 370.738 189.532 369.689C187.758 368.982 185.657 369.014 186.205 371.702C186.896 375.043 187.298 380.112 189.468 381.216C198.961 386.017 208.277 392.003 219.613 391.56L219.719 391.732C220.518 391.955 221.304 392.161 222.086 392.399C226.321 395.341 231.085 397.33 235.437 400.096C243.744 405.373 252.766 409.465 260.204 416.13C260.85 416.701 266.344 420.669 263.861 413.886C270.424 414.408 273.223 417.4 269.985 423.794C269.381 424.976 268.628 425.679 270.131 426.258C275.861 428.539 273.816 431.644 271.296 434.868ZM194.494 465.956C197.582 463.818 200.632 461.596 203.775 459.529C205.329 458.509 208.575 458.599 207.395 455.755C206.425 453.398 203.451 452.498 201.421 454.176C197.732 457.21 193.159 456.658 189.301 458.068C184.377 459.888 179.113 464.64 180.291 470.518C181.503 476.511 185.413 468.117 188.281 470.545C183.206 475.573 177.467 479.393 170.195 481.836C171.001 480.296 172.455 478.533 172.101 478.046C169.933 474.956 166.877 476.303 164.357 477.429C159.216 479.732 162.408 483.549 163.11 486.796C163.93 490.518 165.779 488.246 167.345 487.386C170.155 485.835 172.979 484.301 175.793 482.718C177.464 481.776 179.329 479.633 180.584 483.042C182.3 487.762 184.318 484.875 186.367 483.438C194.53 477.718 199.13 468.613 207.481 462.121C202.152 461.907 199.152 465.024 194.494 465.956ZM111.944 564.499C105.668 569.334 104.374 576.471 109.586 581.056C111.983 583.173 114.799 588.645 118.634 585.326C121.724 582.649 122.644 577.421 118.212 573.867C116.069 572.147 115.843 570.737 117.854 568.962C120.075 567.021 121.621 564.761 118.605 562.506C115.703 560.36 113.885 563.43 111.944 564.499ZM153.56 546.546C151.583 544.639 149.166 544.125 147.409 546.296C145.712 548.364 142.285 550.683 144.488 553.745C146.327 556.271 149.436 554.74 151.683 553.374C154.274 551.796 155.193 549.46 153.56 546.546ZM77.8418 285.548C78.6841 286.333 79.7082 287.061 80.5668 285.877C80.8705 285.469 80.4259 284.287 80.0107 283.649C79.4341 282.769 78.4831 281.701 77.3616 282.694C76.3104 283.632 77.1712 284.657 77.8418 285.548ZM197.242 539.473C197.49 539.391 197.721 539.324 197.955 539.225C197.884 539.026 197.836 538.639 197.742 538.627C197.505 538.615 197.267 538.745 197.032 538.844C197.1 539.074 197.171 539.273 197.242 539.473Z" fill="#1B74BB"/>
<path opacity="0.9" d="M36.9418 1073.94C52.1493 1051.53 73.2517 1035.8 95.8907 1021.82C96.8864 1021.21 97.9234 1020.65 98.9329 1020.06C105.943 1015.98 112.355 1004.37 121.52 1020.26C117.264 1011.07 120.341 1005.48 125.216 1000.27C134.524 990.335 142.314 978.644 155.891 973.609L155.77 973.563C156.159 974.023 156.562 974.5 156.951 974.96C158.028 975.249 158.54 974.961 158.207 973.777L158.185 973.822C160.888 971.845 163.605 969.884 166.307 967.907C169.496 969.261 171.078 975.871 176.19 970.927C177.049 970.395 177.891 969.877 178.75 969.345C181.654 975.797 182.436 970.394 183.505 968.394C193.817 949.141 205.82 930.745 212.689 909.742C213.121 908.412 214.344 907.368 215.203 906.184C218.078 906.452 221.411 907.665 223.148 904.347C225.872 899.178 229.325 897.831 236.304 904.092C233.186 897.439 234.628 894.721 236.562 891.221C238.762 887.228 231.963 886.296 230.526 882.945L230.667 882.835C231.046 882.198 231.425 881.56 231.805 880.923C233.066 879.82 234.325 878.748 235.587 877.645C237.657 879.706 234.346 883.946 238.52 885.038C239.475 885.281 241.615 884.538 241.614 884.283C241.562 876.984 246.355 881.36 249.173 881.049C253.635 880.554 260.341 883.827 261.484 877.148C262.336 872.087 265.033 871.078 268.506 869.829C270.516 869.102 272.494 868.515 272.43 865.901C272.345 862.936 270.026 862.401 267.763 861.54C263.764 860.057 258.823 861.097 255.769 857.058C257.049 855.941 258.314 854.807 259.611 853.677C268.493 846.74 277.361 839.787 286.242 832.851C302.638 820.561 320.86 812.337 341.024 808.543C343.941 810.96 344.013 813.511 342.549 817.068C339.744 823.944 335.865 829.99 338.629 838.904C341.812 849.219 330.736 846.992 325.532 850.336C324.148 844.846 327.932 841.68 329.604 837.592C321.151 838.24 313.483 839.491 307.588 832.154C305.447 829.496 303.585 830.05 300.528 833.637C296.674 838.161 294.755 851.229 283.329 841.937C281.68 840.594 279.961 842.452 280.028 844.526C280.147 848.655 282.175 852.11 285.746 853.844C288.583 855.219 291.525 854.017 293.352 851.139C295.476 847.773 298.344 845.354 302.181 844.244C304.026 843.704 306.299 841.866 307.802 844.144C309.68 847.009 306.811 848.521 304.981 849.587C298.809 853.18 293.562 857.663 289.714 863.713C288.85 865.071 286.518 866.219 288.2 868.075C289.937 870 291.998 868.724 293.718 867.517C297.315 864.98 300.642 861.918 304.522 859.924C306.54 858.88 310.098 858.499 311.303 861.664C311.917 863.279 312.078 866.413 309.567 866.936C297.908 869.39 296.17 882.145 287.62 888.057C285.244 889.693 282.921 894.433 281.115 898.06C280.319 899.648 280.196 902.891 281.382 902.414C288.064 899.725 285.409 905.633 286.761 907.719C287.591 908.995 288.623 910.311 290.199 909.898C291.069 909.669 292.31 908.214 292.209 907.471C291.592 902.344 298.663 898.017 293.272 892.155C291.376 890.099 294.5 887.537 296.455 885.691C302.608 879.903 308.889 874.497 316.041 869.767C324.659 864.086 331.921 856.351 339.705 849.425C343.323 846.191 347.385 845.188 350.453 849.245C353.796 853.652 358.601 852.945 361.507 851.516C367.117 848.761 368.954 849.73 372.288 854.994C375.303 859.744 383.236 867.184 385.827 865.209C392.27 860.298 393.627 865.356 396.781 867.786C385.163 893.221 365.223 911.152 343.812 928.111C305.665 958.336 261.908 967.338 214.544 964.291C209.024 963.942 203.4 964.725 197.848 965.167C191.481 965.654 187.835 969.25 188.607 975.588C189.512 983.069 195.818 978.635 199.627 979.587C201.354 980.018 203.489 978.798 207.663 977.792C203.598 982.879 200.771 986.399 197.959 989.936C196.543 989.034 194.846 988.353 193.753 987.14C188.24 980.977 182.73 980.423 177.018 986.773C172.397 996.178 178.448 1004.33 180.114 1013C178.986 1014.96 175.729 1012.47 175.207 1015.2C174.949 1016.54 175.423 1018.26 177.2 1018.68C186.007 1020.88 184.38 1026.43 181.749 1032.41C179.535 1037.43 178.803 1043.33 181.079 1047.75C184.682 1054.73 186.239 1062.07 187.343 1069.48C188.019 1074 189.533 1075.53 193.224 1073.66C201.062 1069.69 203.655 1073.87 206.426 1080.37C208.094 1084.3 210.018 1088.35 212.096 1092.05C216.089 1099.09 219.65 1106.42 224.498 1113.21C218.246 1095.19 210.295 1077.81 208.077 1058.5C211.61 1059.89 211.982 1064.81 216.816 1064.4C214.476 1058.01 212.697 1051.59 206.717 1048.88C198.163 1044.98 195.287 1038.57 195.754 1029.87C207.836 1037.68 219.918 1045.5 232.001 1053.31C239.275 1059.37 249.417 1061.56 254.975 1069.84C263.036 1081.86 278.644 1087.34 282.526 1103.28C284.175 1110.12 289.342 1116.13 292.891 1122.5C305.024 1146.15 308.976 1171.47 308.396 1197.75C308.039 1213.13 303.337 1227.93 302.233 1243.19C301.866 1248.19 298.885 1246.95 296.008 1246.43C279.41 1243.49 264.831 1235.57 250.919 1226.72C197.19 1192.56 167.44 1144.24 166.88 1079.8C166.629 1051.6 170.901 1023.45 168.588 995.225C168.188 990.267 175.343 983.552 165.762 980.266C158.425 977.744 147.085 981.365 141.948 988.085C135.43 996.625 134.329 1007.41 130.369 1017C128.813 1018.17 129.166 1019.45 130.132 1020.79C130.047 1021.62 129.944 1022.47 129.846 1023.28C119.358 1031.28 111.307 1041.19 104.288 1052.42C98.6545 1061.4 94.9623 1072.06 85.5776 1078.43L84.9512 1078.35C79.8143 1078.78 77.8551 1082.36 75.7435 1086.54C71.1724 1095.53 58.7996 1097.58 51.4027 1090.57C48.7519 1088.06 46.9693 1088.61 44.5304 1089.98C42.6031 1091.07 41.0169 1093.93 38.4353 1092.15C35.7497 1090.32 37.2572 1087.32 37.2791 1084.78C37.2698 1081.19 40.3732 1077.48 36.9418 1073.94ZM259.889 896.197C269.975 894.666 271.817 885.371 278.366 881.681C281.043 880.176 283.241 878.17 280.659 874.696C278.105 871.258 275.973 873.638 273.2 874.622C262.849 878.346 266.77 889.64 259.889 896.197ZM96.764 1058.12C100.301 1054.24 100.926 1049.61 101.263 1044.87C101.399 1043.09 101.458 1041.03 99.5141 1040.29C96.0185 1038.98 94.3891 1042.33 92.0465 1043.82C90.6507 1044.72 88.347 1047.21 89.3777 1047.62C94.4551 1049.64 91.0231 1056.59 96.764 1058.12ZM352.05 856.778C352.069 857.273 352.022 857.792 352.108 858.263C352.142 858.378 352.823 858.524 352.88 858.451C353.138 858.022 353.293 857.532 353.493 857.064C353.013 856.958 352.53 856.884 352.05 856.778Z" fill="#1B74BB"/>
<path opacity="0.9" d="M19.5006 745.138C25.4069 740.592 31.5302 743.952 37.2099 745.337C73.9925 754.273 101.421 776.27 121.826 807.571C139.07 834.011 148.185 863.282 149.867 894.612C150.55 907.199 150.092 919.887 151.007 932.518C148.492 933.47 149.531 937.615 145.324 938.363C143.365 930.801 147.407 922.502 141.382 915.578C139.442 913.358 139.555 909.415 135.385 908.292C129.339 906.657 131.948 898.376 127.992 896.405C115.881 890.399 110.22 879.165 103.235 868.884C102.102 867.222 100.355 865.644 101.883 863.398C102.756 862.089 104.211 861.232 105.675 861.869C110.973 864.177 113.339 861.698 114.544 856.87C115.028 854.847 116.304 853.762 118.399 854.698C120.12 855.446 121.839 856.337 122.662 853.878C123.333 851.877 122.029 850.576 120.327 849.671C114.72 846.643 110.838 841.837 107.139 836.83C105.498 834.63 103.69 832.505 100.593 834.594C98.1372 836.236 95.4235 837.911 95.9767 841.473C96.3335 843.772 97.3357 845.991 97.8039 848.287C98.3083 850.811 99.4637 853.731 96.339 855.388C92.9234 857.216 91.6868 854.048 90.1066 852.141C86.771 848.068 83.5621 843.867 80.3143 839.725C82.2697 846.269 85.3917 851.842 88.4083 857.497C90.881 862.133 92.3354 866.52 84.8631 867.731C81.2962 868.317 82.164 871.775 81.1777 873.88C80.4942 875.323 82.3655 876.01 83.9401 876.39C88.1567 877.392 100.645 890.641 99.157 893.735C95.5627 901.23 100.645 905.577 104.509 911.843C97.1772 909.798 95.2987 903.931 91.5317 900.139C94.0869 897.937 93.2456 895.309 92.1409 892.888C91.1487 890.718 89.2396 888.248 86.7793 889.667C83.3622 891.638 86.8308 893.566 87.8174 895.258C88.8277 897.016 90.3144 898.515 91.5805 900.129C90.4123 906.487 84.897 910.953 81.4248 914.951C75.9046 921.292 79.062 921.594 83.4123 923.851C88.5077 926.516 92.9022 929.588 87.1955 935.764C73.1365 929.443 61.7462 919.329 50.5591 909.113C35.3391 895.2 21.9155 879.708 12.4002 861.209C14.4053 852.013 5.50431 839.324 21.4683 835.308C20.8106 834.18 20.6759 833.719 20.5193 833.7C13.5853 833.355 5.0613 834.853 8.50828 822.939C0.822844 816.212 -1.07972 806.48 -4.65995 797.611C-3.88116 788.045 -4.06955 778.33 -0.587105 769.137C-0.425706 768.33 -0.246754 767.51 -0.0853581 766.703C-0.0853581 766.703 -0.122841 766.619 -0.105281 766.605C1.59287 764.395 3.16952 762.138 1.3136 759.229L1.33116 759.215C7.0285 758.489 11.0218 745.608 19.088 757.45C17.2669 752.813 19.7813 749.112 19.5006 745.138ZM121.573 861.278C124.696 867.502 126.579 871.495 128.67 875.354C129.398 876.681 130.837 877.395 132.36 876.371C133.9 875.334 133.626 873.791 132.708 872.584C130.036 869.068 128.001 864.882 121.573 861.278Z" fill="#1B74BB"/>
<path opacity="0.9" d="M307.066 389.389C312.543 382.884 318.019 376.379 323.496 369.874C322.856 373.578 322.877 376.282 327.512 372.789C331.742 369.614 335.174 364.117 342.638 368.212C336.311 362.205 337.711 356.034 342.756 352.305C357.064 341.766 372.084 332.17 386.846 322.21C388.179 321.306 389.601 321.637 391.049 322.145C400.095 325.255 401.246 324.409 399.784 315.239C399.459 313.198 399.458 311.641 401.451 310.928C402.864 310.415 405.202 308.95 405.734 311.509C406.569 315.502 408.312 313.71 409.933 312.524C411.344 311.502 413.125 310.049 411.192 308.306C406.651 304.215 411.38 303.086 413.296 301.045L413.484 301.067C415.291 307.133 418.082 307.438 422.871 303.456C429.248 298.172 433.197 291.164 438.81 284.183C434.964 285.896 432.051 287.245 429.115 288.527C426.515 289.659 423.123 290.107 421.876 287.685C420.051 284.128 415.425 280.868 416.886 276.945C418.486 272.658 422.875 268.961 427.894 269.503C435.235 270.294 440.122 266.689 445.17 262.532C447.113 260.923 449.528 257.782 451.917 259.707C456.34 263.324 459.884 260.574 463.222 258.863C469.081 255.884 474.393 256.366 479.963 259.311C481.71 260.237 483.813 260.713 485.794 260.889C497.517 261.843 509.417 261.722 519.992 268.337C521.249 264.66 516.186 261.856 520.266 258.741C523.372 259.339 521.123 263.993 523.356 264.056C528.72 264.243 522.264 270.439 526.454 269.959C530.964 269.455 529.55 264.216 531.612 261.493C533.014 259.629 532.325 257.448 529.408 257.128C525.973 256.761 524.98 253.543 522.846 251.617C527.859 249.982 532.667 249.386 536.177 254.513C539.673 259.622 537.358 263.903 534.311 268.191C532.968 270.094 531.411 272.194 531.051 274.375C528.254 291.674 516.71 304.836 509.783 320.159C506.701 326.969 501.151 331.065 495.706 335.477C471.937 354.71 447.291 372.534 418.025 382.729C416.381 383.31 414.623 383.526 412.908 383.907C409.319 377.341 412.71 375.843 418.635 375.335C420.529 375.182 424.893 374.708 422.617 370.541C421.303 368.142 419.168 364.261 416.01 367.106C412.315 370.457 408.48 372.33 403.734 373.473C397.876 374.863 391.176 373.769 386.432 378.821C386.284 378.994 385.263 378.632 384.863 378.266C377.692 371.617 373.327 377.477 369.946 382.424C368.054 385.183 366.459 386.15 363.747 385.584C353.688 383.496 352.105 384.624 351.681 394.535C337.465 399.08 322.44 398.76 307.967 401.748C313.107 396.839 319.27 393.451 325.423 390.015C327.946 388.604 330.639 386.18 328.561 382.878C326.417 379.458 324.004 383.107 321.661 383.301C316.125 383.872 313.776 391.978 307.066 389.389Z" fill="#5E8BC8"/>
<path opacity="0.9" d="M150.129 788.806C152.307 757.227 162.641 728.746 182.883 704.257C191.021 694.419 202.111 687.877 212.077 680.118C214.044 678.576 215.994 678.351 217.132 680.887C224.424 697.021 237.535 709.583 244.205 726.261C250.582 742.205 251.629 758.729 252.062 775.338C252.686 798.627 249.128 821.284 238.623 842.388C236.184 847.306 234.826 852.735 227.909 854.871C222.344 856.599 223.897 864.365 220.933 869.155C213.938 880.45 205.057 890.135 197.157 900.638C189.352 911.009 185.283 922.816 182.305 935.184C181.057 935.255 179.461 934.92 179.515 933.687C179.953 924.048 176.602 914.205 180.205 904.804C182.62 898.518 183.877 892.743 180.519 886.363C179.445 884.343 179.523 879.379 182.514 880.264C188.951 882.217 186.011 877.636 186.581 875.687C188.179 870.239 183.513 864.035 186.936 859.395C191.161 853.645 188.888 851.289 183.792 849.673C191.816 842.475 196.268 833.145 196.004 824.056C195.847 819.191 193.985 813.453 195.684 808.748C197.436 803.859 199.374 794.433 200.49 794.663C208 796.284 205.609 790.45 204.906 788.649C203.085 784.012 204.198 782.828 208.855 782.294C213.045 781.814 213.658 777.932 212.635 774.71C211.507 771.173 209.545 766.647 205.367 767.032C201.091 767.438 204.356 771.963 203.404 774.438C203.222 774.893 202.644 775.204 202.158 775.67C198.719 774.285 197.404 769.535 192.855 769.701C191.705 769.753 190.537 768.118 191.486 767.232C193.955 764.956 196.03 762.394 192.249 760.285C189.183 758.58 187.289 762.53 184.84 763.855L184.903 763.863C183.9 757.196 186.459 752.865 192.531 750.626C195.79 749.431 196.839 746.682 196.571 743.519C196.269 739.844 192.813 740.174 190.471 739.573C186.311 738.499 186.612 741.125 186.699 744.202C186.812 747.6 183.403 750.812 181.278 748.68C176.335 743.714 175.591 744.212 175.915 750.845C176.035 753.132 173.927 752.035 172.573 751.936C170.149 751.738 167.828 749.393 164.482 751.96C171.598 757.093 168.419 765.877 172.399 772.364C173.394 773.993 174.426 780.156 168.131 776.901C163.226 774.371 164.706 777.235 165.584 779.692C165.997 780.87 165.73 782.808 164.736 782.228C156.643 777.549 154.82 786.29 150.129 788.806ZM234.233 743.632C225.04 731.908 224.531 731.91 215.56 743.253C214.452 744.66 213.532 746.345 211.391 745.133C209.905 744.286 209.882 742.774 210.019 741.249C210.214 739.112 215.099 735.65 208.551 735.4C203.316 735.197 206.973 739.245 206.228 741.189C205.42 743.268 206.547 746.296 205.445 748.038C203.07 751.771 203.026 755.15 206.427 757.5C210.282 760.173 213.474 756.65 216.185 754.61C224.382 748.465 228.144 748.633 234.239 756.55C235.185 757.793 235.785 759.136 237.568 758.192C239.042 757.432 239.381 755.948 239.389 754.439C239.336 749.634 236.492 746.224 234.233 743.632ZM242.904 757.295C238.681 760.805 235.761 765.362 232.505 769.672C231.368 771.187 230.897 772.974 232.006 774.569C234.005 777.48 235.344 773.908 236.643 773.937C242.858 774.052 244.946 772.302 242.557 765.928C241.569 763.33 245.206 762.689 246.907 761.241C248.344 760.001 248.651 757.861 247.337 756.511C245.927 755.038 244.1 755.818 242.904 757.295ZM225.098 781.744C216.316 782.225 214.181 787.64 214.898 794.701C215.144 797.258 215.405 801.134 219.42 801.047C222.828 800.982 223.206 797.738 223.576 795.209C224.233 790.839 224.581 786.4 225.098 781.744ZM216.086 730.399C217.707 728.958 219.11 727.347 217.018 725.331C215.269 723.642 213.247 724.066 211.453 725.359C209.47 726.772 209.013 728.576 210.715 730.529C212.517 732.574 214.337 731.713 216.086 730.399ZM197.058 755.749C196.927 755.256 196.924 754.493 196.612 754.313C196.301 754.132 195.399 754.357 195.218 754.669C195.038 754.981 195.262 755.882 195.574 756.062C195.913 756.278 196.548 755.894 197.058 755.749ZM166.474 768.423C166.343 767.931 166.35 767.217 166.038 767.036C165.726 766.855 164.874 767.07 164.693 767.382C164.512 767.694 164.74 768.564 165.038 768.727C165.364 768.925 165.981 768.554 166.474 768.423Z" fill="#1B74BB"/>
<path opacity="0.9" d="M36.9421 1073.94C40.3599 1077.47 37.2702 1081.19 37.2582 1084.83C37.25 1087.39 35.7425 1090.38 38.4143 1092.2C41.0135 1093.96 42.5997 1091.1 44.5094 1090.03C46.9659 1088.64 48.7484 1088.09 51.3817 1090.62C58.7786 1097.63 71.1514 1095.58 75.7225 1086.58C77.8517 1082.39 79.8071 1078.84 84.9302 1078.4C84.3773 1079.68 83.793 1080.96 83.3165 1082.27C83.2913 1082.35 84.3154 1083.07 84.5712 1082.93C86.6376 1081.88 86.3615 1080.22 85.5429 1078.45C94.9138 1072.07 98.6198 1061.43 104.253 1052.45C111.272 1041.22 119.323 1031.31 129.811 1023.31C128.042 1040.25 125.357 1057.15 124.691 1074.17C123.25 1110.95 102.937 1137.6 78.671 1161.98C66.4396 1174.26 50.409 1180.4 33.5257 1184C31.9439 1184.34 29.6185 1184.12 29.601 1183.09C29.4064 1174.34 20.699 1172.24 16.9145 1166.36C15.6038 1164.33 15.2941 1162.56 17.2409 1160.92C19.7709 1158.8 21.4496 1156.09 23.7763 1151.32C18.6107 1155.65 14.7522 1150.91 10.6062 1152.61L10.7315 1152.62C8.19926 1150.44 8.011 1147.67 8.33814 1144.58C11.2667 1118.33 19.8549 1094.42 36.9421 1073.94Z" fill="#5E8BC8"/>
<path opacity="0.9" d="M271.296 434.867C273.798 431.658 275.843 428.552 270.169 426.342C268.652 425.746 269.418 425.06 270.023 423.877C273.247 417.466 270.448 414.475 263.899 413.97C263.114 412.97 262.33 411.97 261.559 410.987C264.046 404.502 257.822 402.099 255.291 398.075C253.545 395.306 253.443 388.16 249.228 390.813C244.687 393.665 251.63 396.95 252.641 400.409C247.584 397.033 242.509 393.672 237.452 390.297C243.321 387.367 243.055 380.916 246.048 375.366C249.376 379.105 252.536 382.664 255.696 386.223C246.745 368.443 230.246 356.553 218.964 339.524C225.044 339.178 224.091 344.544 227.266 346.278C231.095 348.377 235.303 348.79 237.976 347.062C241.704 344.621 237.738 341.552 236.277 338.929C235.702 337.906 235.144 336.869 234.719 335.785C234.06 334.149 233.489 332.046 231.31 332.45C228.35 333.014 229.398 335.508 229.507 337.492C229.571 338.802 231.094 340.13 229.329 341.713C225.682 337.062 221.992 332.501 218.492 327.821C217.151 326.038 214.644 324.433 215.957 321.731C217.579 318.447 220.694 320.936 223.558 320.249C222.999 315.812 220.88 312.061 218.659 308.361C217.799 306.938 216.079 304.347 214.874 305.377C205.472 313.458 209.26 301.617 206.731 300.454C199.697 297.269 203.127 286.275 194.285 285.16C194.02 285.112 193.513 283.271 193.848 282.867C194.722 281.813 195.884 280.618 197.149 280.278C199.853 279.604 200.46 283.379 202.98 283.556C198.254 272.213 188.661 263.269 187.495 250.211C192.532 262.529 205.48 268.843 209.298 282.825C212.67 295.117 220.421 306.412 228.531 316.718C232.952 322.32 233.09 329.44 236.967 335.469C241.619 342.704 248.608 349.013 249.854 358.268C249.9 358.544 250.093 359.044 250.205 359.041C262.583 358.915 258.668 374.029 267.46 377.394C270.078 375.2 265.298 371.636 268.786 369.61C268.949 368.66 269.125 367.728 269.288 366.779L269.234 366.963C270.521 365.386 271.138 363.713 269.825 361.823L269.828 361.934C272.42 351.824 271.171 341.552 270.395 331.448C269.868 324.52 271.756 317.598 269.561 310.675C268.676 307.883 270.409 304.994 273.024 303.085C276.074 300.863 276.248 297.723 275.529 294.347C277.715 292.831 277.722 290.417 278.205 288.139C278.63 286.077 277.657 282.703 281.002 282.63C284.313 282.584 286.246 284.725 285.976 288.394C285.891 289.623 286.536 290.591 288.737 289.998C289.351 280.873 295.175 272.424 293.148 262.534C294.445 261.149 295.351 259.702 293.594 258.076C293.407 257.91 292.387 258.2 292.255 258.502C291.609 260.029 292.359 261.311 293.229 262.528C288.501 266.661 285.657 267.048 286.372 259.317C286.483 258.012 285.605 256.603 285.179 255.264C285.161 255.024 285.156 254.801 285.137 254.56C285.187 254.805 285.223 255.031 285.273 255.276C282.876 256.305 284.065 260.389 279.369 260.982C281.692 253.096 275.545 247.968 274.17 241.224L274.154 241.35C275.021 239.706 280 238.353 274.519 236.245C274.82 224.333 277.564 212.97 281.783 201.896C282.986 202.2 283.193 201.669 282.841 200.641L282.844 200.753C283.993 199.795 285.02 198.791 284.542 197.097L284.507 197.124C291.89 198.222 286.031 202.901 286.806 205.553C289.17 205.457 291.508 205.04 293.756 205.375C296.052 205.7 296.118 207.122 295.007 209.212C294.204 210.72 288.748 208.934 292.139 213.077C294.173 215.563 297.184 215.894 299.968 214.816C302.553 213.809 303.98 208.722 307.828 212.508C310.809 215.441 308.719 218.526 307.459 221.44C305.944 224.896 307.213 228.322 309.293 230.433C312.632 233.823 312.934 228.314 315.047 227.536C316.127 227.142 317.081 226.225 318.204 227.186C319.285 228.095 319.157 229.415 318.517 230.37C317.37 232.091 315.912 233.631 313.394 236.711C318.235 233.736 320.904 240.43 324.077 236.015C320.131 254.923 315.874 273.651 307.245 291.215C302.624 300.62 299.533 310.782 295.841 320.648C294.173 325.102 292.758 329.698 285.454 328.737C290.617 332.284 289.906 335.392 287.442 339.591C279.513 353.093 275.409 367.931 272.715 383.336C271.107 392.532 272.246 401.218 274.601 409.971C273.426 411.799 272.608 413.83 274.293 415.654C276.303 417.819 278.008 415.943 279.657 414.792C282.847 412.603 286.315 411.131 290.177 410.596C288.264 411.954 286.379 413.347 284.429 414.621C282.097 416.167 281.255 427.172 283.531 427.399C291.089 428.104 290.522 435.266 294.313 439.123C293.627 439.406 293.069 439.815 292.91 439.685C289.857 437.346 286.635 431.682 282.919 435.984C278.781 440.76 285.176 443.057 288.103 445.778C291.528 448.988 295.364 451.818 298.454 455.29C302.651 459.991 306.18 466.662 310.712 455.371C311.964 456.968 312.689 457.675 312.593 457.807C306.641 466.272 312.585 470.851 318.032 476.243C329.28 487.404 340.126 498.994 350.94 510.579C360.91 521.269 370.644 532.199 380.487 543.016C379.219 544.436 381.7 548.215 377.491 547.803C377.336 541.746 372.332 538.981 368.878 535.228C337.112 501.045 305.022 467.173 271.296 434.867ZM253.284 375.445C251.515 366.318 248.02 358.317 240.381 352.914C244.202 360.716 246.498 369.43 253.284 375.445ZM287.643 297.318C286.78 295.784 285.922 295.919 285.133 296.396C283.772 297.264 283.163 298.621 283.628 300.155C284.033 301.538 285.234 301.985 286.155 300.809C286.967 299.747 287.257 298.273 287.643 297.318Z" fill="#5E8BC8"/>
<path opacity="0.9" d="M150.13 788.806C154.834 786.308 156.643 777.549 164.764 782.263C165.758 782.844 166.038 780.923 165.611 779.728C164.734 777.27 163.271 774.392 168.159 776.937C174.454 780.191 173.421 774.029 172.427 772.399C168.447 765.913 171.625 757.128 164.509 751.995C167.852 749.459 170.177 751.774 172.6 751.971C173.969 752.088 176.045 753.181 175.943 750.881C175.619 744.247 176.362 743.749 181.306 748.716C183.431 750.847 186.839 747.636 186.727 744.238C186.639 741.161 186.321 738.548 190.498 739.608C192.841 740.209 196.283 739.862 196.598 743.554C196.866 746.717 195.8 749.48 192.558 750.662C186.487 752.9 183.942 757.248 184.931 763.898C184.949 764.139 184.972 764.348 184.99 764.589C184.954 764.362 184.904 764.117 184.851 763.904C187.331 762.583 189.193 758.629 192.259 760.334C196.04 762.443 193.965 765.005 191.496 767.281C190.547 768.167 191.733 769.788 192.865 769.75C197.414 769.584 198.715 774.317 202.168 775.719C202.654 775.253 203.232 774.941 203.414 774.487C204.383 771.998 201.101 767.487 205.377 767.081C209.573 766.682 211.517 771.222 212.645 774.759C213.669 777.981 213.055 781.863 208.865 782.343C204.191 782.891 203.095 784.061 204.916 788.698C205.62 790.499 208.024 796.351 200.501 794.712C199.384 794.481 197.447 803.908 195.694 808.797C194.009 813.519 195.871 819.258 196.014 824.105C196.279 833.194 191.84 842.541 183.803 849.722C188.898 851.338 191.171 853.694 186.946 859.444C183.537 864.101 188.189 870.288 186.591 875.735C186.021 877.685 188.93 882.262 182.524 880.313C179.537 879.397 179.473 884.378 180.529 886.412C183.887 892.792 182.63 898.567 180.215 904.853C176.612 914.254 179.95 924.079 179.525 933.736C179.471 934.969 181.071 935.273 182.315 935.233C178.315 946.333 182.537 958.299 178.743 969.408C177.901 969.926 177.042 970.458 176.183 970.99C172.706 953.283 173.224 935.247 174.106 917.495C174.78 903.816 170.856 892.013 165.93 880.09C155.509 854.903 146.863 829.374 148.762 801.527C148.901 799.463 148.5 797.396 150.102 795.715C151.955 793.412 152.347 791.092 150.221 788.706L150.13 788.806Z" fill="#5E8BC8"/>
<path opacity="0.9" d="M396.791 867.835C393.637 865.405 392.28 860.347 385.837 865.258C383.246 867.233 375.299 859.775 372.298 855.043C368.964 849.779 367.127 848.81 361.517 851.565C358.611 852.994 353.792 853.683 350.463 849.293C347.396 845.237 343.347 846.258 339.715 849.474C331.931 856.399 324.669 864.135 316.051 869.816C308.899 874.545 302.618 879.952 296.466 885.74C294.51 887.585 291.373 890.13 293.282 892.204C298.673 898.066 291.584 902.406 292.219 907.52C292.302 908.277 291.065 909.7 290.209 909.947C288.63 910.392 287.597 909.075 286.771 907.768C285.419 905.682 288.074 899.774 281.392 902.463C280.206 902.94 280.329 899.697 281.125 898.109C282.932 894.482 285.254 889.741 287.63 888.106C296.181 882.194 297.918 869.438 309.577 866.985C312.088 866.461 311.941 863.345 311.313 861.712C310.09 858.562 306.55 858.929 304.532 859.972C300.665 861.984 297.342 865.015 293.728 867.566C292.008 868.773 289.964 870.035 288.21 868.124C286.528 866.268 288.86 865.119 289.724 863.762C293.586 857.729 298.833 853.247 304.991 849.636C306.821 848.57 309.686 847.089 307.812 844.193C306.309 841.914 304.036 843.753 302.191 844.293C298.354 845.403 295.473 847.804 293.362 851.188C291.567 854.07 288.593 855.268 285.756 853.893C282.185 852.159 280.157 848.704 280.038 844.575C279.971 842.501 281.69 840.643 283.339 841.986C294.748 851.292 296.684 838.21 300.538 833.686C303.595 830.099 305.457 829.545 307.598 832.203C313.507 839.558 321.161 838.289 329.614 837.641C327.942 841.729 324.158 844.895 325.542 850.385C330.778 847.044 341.853 849.271 338.639 838.952C335.889 830.056 339.754 823.992 342.559 817.117C344.023 813.56 343.933 811.023 341.034 808.591C361.25 802.404 381.335 806.465 401.223 810.057C409.216 811.498 410.973 819.814 407.025 830.618C404.724 832.422 404.192 834.455 406.241 836.816C406.12 837.421 405.999 838.026 405.909 838.635C402.327 839.347 398.763 840.045 394.185 840.97C399.166 846.02 402.608 850.662 391.671 848.865C393.204 854.039 398.36 853.057 400.922 855.781L400.895 855.746C399.36 857.261 395.056 858.426 400.304 860.743C400.556 863.777 399.289 866.103 396.791 867.835Z" fill="#5E8BC8"/>
<path opacity="0.9" d="M91.5493 900.125C95.3163 903.917 97.2261 909.788 104.526 911.829C100.662 905.563 95.5841 901.184 99.1746 893.721C100.662 890.627 88.1743 877.378 83.9577 876.376C82.3831 875.996 80.4943 875.323 81.1953 873.866C82.2129 871.765 81.3138 868.303 84.8808 867.717C92.3393 866.488 90.8849 862.102 88.4259 857.483C85.4093 851.828 82.2736 846.238 80.3319 839.712C83.5797 843.854 86.7711 848.068 90.1242 852.127C91.6869 854.048 92.9235 857.216 96.3567 855.374C99.4676 853.7 98.3259 850.797 97.8216 848.274C97.3533 845.977 96.3648 843.776 95.9943 841.459C95.4549 837.914 98.1511 836.254 100.61 834.58C103.708 832.491 105.534 834.602 107.156 836.816C110.855 841.823 114.737 846.629 120.345 849.658C122.029 850.576 123.351 851.864 122.679 853.864C121.843 856.305 120.137 855.432 118.416 854.684C116.304 853.762 115.059 854.851 114.562 856.856C113.37 861.702 110.99 864.163 105.693 861.856C104.229 861.218 102.774 862.075 101.9 863.384C100.386 865.648 102.12 867.208 103.253 868.87C110.237 879.151 115.898 890.385 128.009 896.391C131.965 898.362 129.342 906.626 135.403 908.279C139.586 909.419 139.46 913.344 141.4 915.565C147.424 922.489 143.4 930.774 145.342 938.349C149.566 937.588 148.496 933.438 151.024 932.504C152.727 935.76 152.532 939.201 152.205 942.689C147.65 948.669 154.819 962.405 163.695 964.684C164.584 965.744 165.455 966.819 166.357 967.897C163.654 969.875 160.937 971.835 158.235 973.812C157.434 973.732 156.62 973.633 155.819 973.553L155.94 973.599C143.511 958.037 125.067 952.887 107.726 945.852C100.653 942.981 93.4702 940.366 87.262 935.74C92.9511 929.578 88.5742 926.492 83.4613 923.841C79.1285 921.57 75.9849 921.286 81.4737 914.941C84.9459 910.943 90.4612 906.477 91.6295 900.119L91.5493 900.125Z" fill="#5E8BC8"/>
<path opacity="0.9" d="M522.898 251.719C525 253.641 526.01 256.845 529.459 257.23C532.376 257.55 533.065 259.73 531.663 261.595C529.601 264.317 531.033 269.543 526.505 270.061C522.302 270.523 528.789 264.331 523.407 264.158C521.161 264.077 523.409 259.423 520.317 258.843C516.251 261.975 521.3 264.761 520.044 268.439C509.482 261.841 497.586 261.931 485.846 260.99C483.878 260.832 481.761 260.339 480.014 259.413C474.445 256.468 469.132 255.986 463.273 258.965C459.935 260.675 456.409 263.412 451.968 259.809C449.597 257.87 447.165 261.025 445.222 262.633C440.173 266.791 435.286 270.396 427.946 269.605C422.927 269.063 418.538 272.759 416.937 277.047C415.476 280.97 420.102 284.229 421.927 287.786C423.161 290.192 426.549 289.774 429.166 288.628C432.103 287.346 434.998 286.011 438.862 284.285C433.23 291.28 429.282 298.287 422.923 303.557C418.12 307.522 415.342 307.234 413.535 301.169C414.889 299.569 417.863 299.022 416.961 295.195C413.779 296.273 411.411 297.195 413.347 301.146C411.431 303.187 406.702 304.317 411.243 308.408C413.177 310.151 411.392 311.636 409.985 312.626C408.367 313.781 406.62 315.604 405.786 311.61C405.254 309.051 402.929 310.535 401.502 311.03C399.509 311.742 399.511 313.3 399.835 315.341C401.301 324.479 400.146 325.357 391.1 322.247C389.635 321.752 388.231 321.408 386.897 322.312C372.153 332.258 357.133 341.854 342.807 352.407C337.763 356.136 336.38 362.293 342.69 368.314C335.243 364.205 331.794 369.716 327.563 372.891C322.929 376.383 322.893 373.662 323.547 369.975C333.663 352.86 345.872 337.221 357.22 320.954C370.258 302.285 387.084 288.014 404.758 274.353C405.917 273.445 407.196 272.725 408.424 271.904C411.325 272.35 413.015 270.345 414.854 268.676C434.074 258.253 453.918 249.494 476.305 249.511C491.794 249.41 507.47 248.426 522.898 251.719Z" fill="#1B74BB"/>
<path opacity="0.9" d="M288.639 666.733C290.885 677.301 297.826 684.272 307.859 686.182C309.862 686.567 311.756 687.463 313.722 688.018C317.444 689.039 318.299 691.033 314.931 693.248C309.315 696.972 302.88 700.771 296.306 699.294C290.117 697.912 287.549 691.707 285.622 685.452C278.411 661.972 279.014 638.258 286.233 615.423C293.977 590.872 309.325 571.496 333.735 560.603C340.857 557.427 345.989 550.229 354.666 550.085C357 554.037 351.194 555.529 351.888 558.584C353.771 566.772 349.092 568.797 342.493 569.748C337.964 570.409 338.669 573.767 340.141 576.439C343.025 581.745 348.848 581.685 352.421 576.333C355.972 571.025 359.714 566.901 366.674 570.966C360.794 579.743 354.174 588.08 350.041 597.925C347.891 603.068 339.746 605.771 335.038 602.66C333.906 601.904 333.342 600.136 331.233 600.882C328.783 605.099 335.64 611.456 328.547 614.779C324.521 616.66 323.779 611.772 321.543 610.295C319.018 613.295 320.553 615.18 321.714 617.275C325.616 624.276 323.328 630.038 318.111 635.319C316.337 637.107 314.988 636.436 313.585 635.297C311.314 633.45 309.23 631.371 306.942 629.538C300.654 624.52 294.724 625.203 287.384 632.659C283.723 636.38 285.609 640.087 289.301 643.059C290.663 644.145 290.708 646.264 289.572 646.985C279.805 653.226 286.29 660.158 288.571 666.9L288.639 666.733Z" fill="#5E8BC8"/>
<path opacity="0.9" d="M292.884 1122.56C289.32 1116.18 284.168 1110.18 282.518 1103.34C278.636 1087.4 263.029 1081.92 254.968 1069.91C249.409 1061.63 239.285 1059.42 231.993 1053.37C232.715 1049.52 229.602 1047.54 227.629 1045.2C218.59 1034.44 209.372 1023.84 200.172 1013.23C192.504 1004.39 184.731 995.633 177.01 986.836C182.722 980.486 188.232 981.04 193.746 987.203C194.838 988.415 196.521 989.079 197.951 989.999C205.53 999.7 211.751 1011.03 220.967 1018.77C236.312 1031.65 245.67 1049.48 260.03 1062.62C271.901 1073.49 282.713 1085.36 294.534 1096.24C297.12 1098.64 299.072 1101.67 299.894 1105.25C300.184 1106.52 301.644 1108.24 299.482 1108.77C298.434 1109.03 296.983 1107.76 295.176 1107.98C308.19 1116.77 314.178 1135.65 334.548 1133.96C340.086 1133.5 342.097 1139.32 345.149 1142.46C352.071 1149.59 361.875 1154.57 364.722 1166.08C367.074 1167.78 369.69 1160.88 372.328 1165.08C373.7 1167.26 371.53 1169.56 370.461 1171.56C368.211 1175.7 365.608 1173.58 362.365 1172.41C358.47 1170.98 354.024 1174.1 349.655 1171.6C347.13 1170.15 345.222 1168.59 347.282 1166.41C352.075 1161.34 347.675 1159.89 344.628 1157.24C327.642 1142.3 310.803 1127.19 293.929 1112.11C292.883 1111.17 292.134 1109.75 289.636 1110.03C288.597 1114.67 295.654 1117.67 292.884 1122.56ZM340.036 1141.25C340.501 1142.14 340.634 1142.74 341.011 1143.04C341.688 1143.61 342.106 1143.31 341.94 1142.45C341.894 1142.18 341.727 1141.85 341.519 1141.73C341.144 1141.55 340.71 1141.46 340.036 1141.25Z" fill="#5E8BC8"/>
<path opacity="0.9" d="M183.428 535.454C181.901 536.255 180.353 537.752 178.852 537.682C172.2 537.372 167.049 537.783 171.418 546.573C172.224 548.179 171.286 549.623 169.726 549.912C164.64 550.839 160.484 547.89 157.245 544.989C154.265 542.31 156.235 538.639 159.35 536.282C159.59 536.263 159.831 536.244 160.072 536.226C159.827 536.276 159.583 536.326 159.325 536.358C157.469 534.1 157.93 530.565 154.97 528.635C153.501 530.523 152.934 533.632 149.65 533.061C148.252 532.797 146.477 532.63 145.649 531.72C144.416 530.364 146.141 529.237 146.816 528C149.945 522.372 155.723 519.542 160.049 515.186C172.819 502.395 184.824 488.702 198.527 476.993C209.162 467.917 219.938 458.985 230.252 449.537C232.647 447.347 235.27 445.376 238.742 445.175C229.745 462.235 225.861 480.896 221.623 499.467C220.209 505.621 217.866 511.709 213.136 516.382C208.737 516.884 205.895 512.934 201.806 512.456C198.973 512.098 199.493 509.905 200.676 508.665C208.413 500.558 202.854 494.374 197.883 488.07C198.091 487.396 200.075 487.285 198.544 486.02C198.349 486.712 198.154 487.403 197.963 488.063C195.056 490.541 192.059 492.324 187.968 493.038C183.326 493.844 178.84 496.115 181.363 502.696C183.564 508.395 178.728 509.75 175.322 509.927C167.342 510.346 164.377 515.136 162.891 521.885C164.124 523.384 164.865 522.123 165.507 521.279C167.096 519.182 168.947 515.974 171.488 517.297C173.505 518.351 174.325 521.421 174.343 524.808C174.397 529.867 180.799 531.45 183.428 535.454C183.428 535.454 183.425 535.485 183.428 535.454Z" fill="#5E8BC8"/>
<path opacity="0.9" d="M324.091 236.032C320.917 240.447 318.249 233.754 313.407 236.728C315.926 233.648 317.367 232.122 318.53 230.387C319.171 229.432 319.299 228.113 318.217 227.204C317.091 226.273 316.141 227.16 315.06 227.553C312.948 228.331 312.645 233.84 309.306 230.45C307.24 228.357 305.975 224.9 307.473 221.458C308.75 218.529 310.823 215.459 307.841 212.525C303.994 208.74 302.581 213.844 299.982 214.834C297.197 215.912 294.187 215.58 292.152 213.094C288.762 208.951 294.218 210.737 295.02 209.23C296.132 207.139 296.062 205.748 293.77 205.392C291.522 205.057 289.183 205.474 286.82 205.57C286.076 202.922 291.921 198.226 284.521 197.142C284.125 190.452 286.011 184.722 291.227 180.235C298.836 173.701 306.304 167.024 313.937 160.556C321.198 154.41 321.999 154.745 323.698 164.325C324.057 166.338 324.106 168.426 324.301 170.483C318.657 169.722 315.828 174.576 312.053 177.14C309.801 178.679 308.688 182.613 312.613 185.231C317.864 188.709 321.648 192.884 321.43 200.056C321.328 203.253 324.769 204.494 328.133 203.613C328.125 204.47 328.116 205.327 328.094 206.167C328.005 207.03 327.899 207.907 327.824 208.788C327.76 209.574 327.696 210.361 327.615 211.162C326.834 211.973 326.807 212.844 327.46 213.749C328.303 221.477 324.995 228.578 324.091 236.032Z" fill="#1B74BB"/>
<path opacity="0.9" d="M351.697 394.665C352.121 384.753 353.703 383.625 363.763 385.714C366.475 386.279 368.07 385.312 369.962 382.553C373.343 377.606 377.708 371.746 384.879 378.395C385.265 378.744 386.286 379.105 386.448 378.95C391.196 373.867 397.91 374.979 403.749 373.602C408.496 372.459 412.33 370.586 416.026 367.235C419.184 364.39 421.319 368.271 422.633 370.67C424.908 374.837 420.545 375.312 418.651 375.464C412.726 375.973 409.335 377.47 412.924 384.036C393.282 392.041 372.445 393.133 351.697 394.665ZM417.796 371.119C418.022 371.48 418.266 371.827 418.492 372.188C418.491 371.934 418.609 371.614 418.489 371.425C418.383 371.253 418.039 371.212 417.796 371.119Z" fill="#1B74BB"/>
<path opacity="0.9" d="M366.723 570.956C359.75 566.873 356.004 571.029 352.47 576.322C348.897 581.675 343.074 581.735 340.19 576.429C338.736 573.743 338.031 570.385 342.543 569.738C349.141 568.786 353.82 566.761 351.937 558.574C351.243 555.518 357.049 554.027 354.716 550.075C355.718 549.544 356.706 548.996 357.694 548.448C358.382 548.277 359.07 548.106 359.758 547.934C365.659 545.66 371.592 549.283 377.505 547.82C381.714 548.233 379.233 544.454 380.501 543.034C383.199 547.522 388.97 546.312 392.402 549.459C391.991 550.49 391.584 551.49 391.159 552.503C391.612 552.574 392.064 552.644 392.534 552.701C392.444 551.609 392.353 550.518 392.263 549.427C395.547 548.949 399.162 548.099 396.364 553.608C395.358 555.616 394.473 557.67 393.526 559.716C392.116 559.944 390.675 560.167 389.251 560.376C379.542 553.564 375.367 562.307 369.84 567.265C369.34 567.459 369.044 567.804 368.962 568.351C368.186 569.242 367.463 570.092 366.723 570.956Z" fill="#1B74BB"/>
<path opacity="0.9" d="M469.83 1294.66C465.7 1296.88 465.193 1302.63 460.479 1304.29C450.504 1286.83 440.546 1269.36 430.571 1251.9C429.681 1250.33 428.53 1248.68 430.474 1247.33C432.8 1245.7 434.528 1247.18 436.685 1248.52C450.463 1257.16 456.465 1271.61 464.18 1284.78C466.102 1288.06 467.957 1291.37 469.83 1294.66Z" fill="#5E8BC8"/>
<path opacity="0.9" d="M285.228 255.254C285.65 256.624 286.545 258.019 286.421 259.307C285.692 267.021 288.549 266.65 293.277 262.518L293.183 262.507C295.21 272.396 289.386 280.845 288.772 289.971C286.571 290.563 285.926 289.595 286.011 288.366C286.282 284.697 284.348 282.557 281.038 282.602C277.678 282.657 278.683 286.036 278.24 288.112C277.757 290.389 277.751 292.803 275.565 294.319C274.338 293.949 273.081 293.574 271.854 293.204C271.359 292.572 270.877 291.958 270.364 291.34C270.171 290.84 270.057 290.334 270.042 289.807C270.102 289.052 270.144 288.31 270.204 287.555L270.209 287.381C270.196 286.569 270.197 285.774 270.184 284.962L270.188 284.931C270.224 284.109 270.26 283.287 270.296 282.466L270.304 282.403C270.326 281.563 270.335 280.706 270.357 279.867C270.348 266.837 269.678 253.759 274.219 241.214C275.594 247.958 281.741 253.086 279.418 260.972C284.114 260.379 282.925 256.295 285.322 255.266L285.228 255.254Z" fill="#1B74BB"/>
<path d="M112.669 284.794C109.071 287.474 105.891 286.964 101.431 285.615C82.192 279.813 63.459 271.546 42.8395 271.758C39.4349 271.792 38.3663 269.598 36.5791 267.825C55.7238 263.526 73.8571 268.352 91.6592 274.6C98.9789 277.136 107.091 278.512 112.669 284.794Z" fill="#BAAC90"/>
<path opacity="0.9" d="M255.814 857.079C258.837 861.114 263.809 860.078 267.808 861.562C270.089 862.409 272.408 862.943 272.475 865.923C272.554 868.554 270.562 869.124 268.551 869.85C265.061 871.113 262.382 872.109 261.53 877.17C260.404 883.834 253.68 880.576 249.218 881.07C246.4 881.381 241.607 877.005 241.66 884.305C241.674 884.577 239.521 885.302 238.565 885.059C234.405 883.985 237.702 879.728 235.632 877.666C241.165 869.643 247.583 862.457 255.814 857.079Z" fill="#5E8BC8"/>
<path opacity="0.9" d="M-4.62894 797.615C-1.03114 806.47 0.853863 816.216 8.5393 822.943C5.12364 834.86 13.6476 833.363 20.5503 833.703C20.7069 833.722 20.8417 834.184 21.4994 835.312C5.52159 839.31 14.405 852.013 12.4313 861.213C3.97565 853.106 1.28109 842.436 -0.985888 831.517C-2.57154 823.89 -4.2374 816.268 -6.11634 808.701C-7.12509 804.702 -6.18716 801.161 -4.62894 797.615Z" fill="#5E8BC8"/>
<path opacity="0.9" d="M290.209 410.6C286.346 411.135 282.878 412.607 279.689 414.796C278.057 415.934 276.321 417.806 274.325 415.658C272.639 413.834 273.471 411.821 274.633 409.975C277.768 413.865 279.237 409.482 281.423 408.618C282.985 407.535 284.546 406.453 286.108 405.37C293.109 400.05 300.096 394.712 307.08 389.406C313.789 391.996 316.121 383.904 321.659 383.444C324.003 383.25 326.416 379.601 328.559 383.022C330.651 386.341 327.958 388.764 325.421 390.158C319.268 393.595 313.123 396.968 307.965 401.891C306.407 402.688 304.817 403.481 303.258 404.278C302.615 404.471 301.958 404.645 301.302 404.82C297.62 406.744 293.908 408.663 290.209 410.6Z" fill="#1B74BB"/>
<path opacity="0.9" d="M328.213 203.608C324.835 204.471 321.408 203.247 321.51 200.05C321.728 192.878 317.944 188.703 312.693 185.225C308.751 182.62 309.881 178.673 312.133 177.134C315.894 174.553 318.737 169.716 324.381 170.477C328.532 181.195 329.815 192.234 328.213 203.608Z" fill="#5E8BC8"/>
<path d="M11.9454 273.623C-1.64182 275.86 -1.9329 288.218 -5.32661 297.596C-6.50611 300.902 -3.65654 305.837 -2.19173 309.875C-1.28256 312.337 0.427725 314.482 -0.426662 317.334C-6.27534 307.778 -10.3813 297.478 -13.7489 286.855C-15.4575 281.421 -14.5082 277.786 -7.6999 277.464C-0.985555 277.13 4.88238 272.246 11.9454 273.623Z" fill="#BAAC90"/>
<path opacity="0.9" d="M368.656 1160.5C365.813 1159.7 362.442 1159.19 363.913 1154.92C367.369 1144.9 368.275 1134.16 372.756 1124.47C373.942 1121.89 374.912 1117.56 378.099 1118.41C382.578 1119.6 378.968 1123.42 378.527 1125.75C376.3 1137.56 372.719 1149.01 368.656 1160.5Z" fill="#1B74BB"/>
<path opacity="0.9" d="M230.568 882.998C232.005 886.349 238.804 887.281 236.604 891.273C234.67 894.774 233.245 897.478 236.346 904.144C229.349 897.897 225.914 899.231 223.19 904.399C221.435 907.731 218.12 906.505 215.244 906.237C218.422 897.198 224.275 889.944 230.568 882.998Z" fill="#5E8BC8"/>
<path opacity="0.9" d="M389.229 560.421C390.653 560.212 392.081 559.971 393.504 559.762C404.678 572.709 404.678 572.709 415.37 572.856C406.472 589.498 426.952 594.497 428.104 607.538C414.727 592.179 405.744 573.092 389.229 560.421Z" fill="#5E8BC8"/>
<path opacity="0.9" d="M19.5004 745.138C19.7674 749.095 17.2529 752.796 19.1154 757.485C11.0491 745.643 7.05583 758.524 1.3585 759.251C3.49537 752.899 11.1489 752.027 14.2207 746.614C13.0243 745.342 12.0837 746.022 11.0956 746.571C8.69177 747.917 6.42312 751.425 3.4728 748.892C1.15459 746.912 2.43183 743.586 4.42515 741.825C7.2865 739.326 10.8616 737.231 14.7089 739.968C16.5767 741.337 17.9149 743.406 19.5004 745.138Z" fill="#5E8BC8"/>
<path opacity="0.9" d="M400.988 855.757C398.427 853.033 393.27 854.015 391.737 848.841C402.66 850.62 399.233 845.996 394.252 840.946C398.811 840.034 402.394 839.323 405.976 838.611C404.635 844.424 406.272 851.104 400.988 855.757Z" fill="#1B74BB"/>
<path opacity="0.9" d="M39.8098 627.722C46.2093 630.639 44.1464 639.002 49.4235 642.658C45.7668 643.853 41.3266 645.351 38.9828 641.748C36.155 637.418 36.9559 632.255 39.8098 627.722Z" fill="#5E8BC8"/>
<path opacity="0.9" d="M334.249 476.564C335.17 478.534 336.321 480.58 337.107 482.74C337.501 483.821 336.971 485.171 335.62 485.437C334.936 485.577 333.581 485.222 333.428 484.775C331.743 479.805 326.012 478.319 323.964 473.718C323.265 472.14 322.157 470.401 324.041 469.151C325.595 468.131 326.568 469.806 327.614 470.742C329.752 472.637 331.921 474.535 334.249 476.564Z" fill="#5E8BC8"/>
<path opacity="0.9" d="M163.678 964.697C154.801 962.419 147.632 948.683 152.187 942.702C156.188 949.938 158.185 958.235 163.678 964.697Z" fill="#1B74BB"/>
<path opacity="0.9" d="M286.288 832.872C277.406 839.808 268.538 846.762 259.656 853.698C266.928 844.708 275.81 837.772 286.288 832.872Z" fill="#5E8BC8"/>
<path opacity="0.9" d="M10.6548 1152.6C12.9991 1155.8 12.2595 1159.02 10.6832 1162.97C6.8726 1159.02 7.59459 1155.82 10.7977 1152.6C10.7801 1152.61 10.6548 1152.6 10.6548 1152.6Z" fill="#5E8BC8"/>
<path d="M33.8652 269.897C30.1777 271.74 26.3802 270.296 22.6448 270.306C26.2603 266.961 30.0236 267.637 33.8652 269.897Z" fill="#BAAC90"/>
<path d="M21.1088 270.915C18.8199 272.625 16.8304 275.404 13.4187 273.006C15.6403 271.065 17.8519 269.076 21.1088 270.915Z" fill="#BAAC90"/>
<path opacity="0.9" d="M1.34117 759.264C3.19709 762.174 1.60667 764.413 -0.0777271 766.641C-1.56158 763.808 -1.64735 761.239 1.34117 759.264Z" fill="#5E8BC8"/>
<path opacity="0.9" d="M400.371 860.72C395.122 858.402 399.444 857.223 400.961 855.722C402.295 857.567 401.592 859.167 400.371 860.72Z" fill="#1B74BB"/>
<path opacity="0.9" d="M274.564 236.267C280.027 238.388 275.066 239.728 274.199 241.371C274.311 239.668 274.453 237.969 274.564 236.267Z" fill="#1B74BB"/>
<path opacity="0.9" d="M150.26 788.647C152.372 791.016 151.962 793.349 150.141 795.656C149.649 793.293 149.01 790.959 150.26 788.647Z" fill="#1B74BB"/>
<path opacity="0.9" d="M376.453 1174.17C375.8 1174.96 375.161 1175.78 374.509 1176.57C374.122 1176.22 373.351 1175.64 373.39 1175.58C373.939 1174.72 374.587 1173.96 375.222 1173.18C375.54 1173.44 375.89 1173.7 376.453 1174.17Z" fill="#5E8BC8"/>
<path opacity="0.9" d="M406.308 836.792C404.258 834.432 404.791 832.399 407.091 830.595C408.42 832.868 407.481 834.852 406.308 836.792Z" fill="#1B74BB"/>
<path opacity="0.9" d="M414.802 268.574C412.963 270.243 411.274 272.248 408.373 271.802C410.16 270.032 411.808 267.975 414.802 268.574Z" fill="#5E8BC8"/>
<path opacity="0.9" d="M286.094 405.352C284.532 406.435 282.971 407.517 281.409 408.6C282.064 406.216 283.557 405.046 286.094 405.352Z" fill="#5E8BC8"/>
<path opacity="0.9" d="M284.588 197.118C285.048 198.826 284.02 199.83 282.889 200.774C282.578 199.148 282.703 197.717 284.588 197.118Z" fill="#1B74BB"/>
<path opacity="0.9" d="M40.6417 608.024C40.5676 609.159 40.4897 610.326 40.4156 611.461C39.8281 610.278 39.3209 609.088 40.6417 608.024Z" fill="#5E8BC8"/>
<path opacity="0.9" d="M130.115 1020.8C129.163 1019.48 128.81 1018.2 130.351 1017.02C130.276 1018.3 130.186 1019.56 130.115 1020.8Z" fill="#5E8BC8"/>
<path opacity="0.9" d="M327.904 208.781C327.992 207.918 328.085 207.024 328.174 206.161C328.081 207.056 327.992 207.918 327.904 208.781Z" fill="#5E8BC8"/>
<path opacity="0.9" d="M327.554 213.76C326.901 212.855 326.927 211.985 327.708 211.174C327.637 212.023 327.58 212.89 327.554 213.76Z" fill="#5E8BC8"/>
<path opacity="0.9" d="M231.863 880.962C231.484 881.599 231.105 882.236 230.726 882.873C231.105 882.236 231.484 881.599 231.863 880.962Z" fill="#5E8BC8"/>
<path opacity="0.9" d="M282.886 200.663C283.224 201.673 283.017 202.204 281.829 201.917C281.936 201.295 282.288 200.877 282.886 200.663Z" fill="#1B74BB"/>
<path opacity="0.9" d="M270.353 279.899C270.331 280.738 270.322 281.595 270.3 282.434C270.308 281.577 270.331 280.738 270.353 279.899Z" fill="#5E8BC8"/>
<path opacity="0.9" d="M288.623 666.859C288.854 666.791 289.116 666.727 289.346 666.66C289.106 666.679 288.865 666.697 288.639 666.733C288.639 666.733 288.623 666.859 288.623 666.859Z" fill="#5E8BC8"/>
<path opacity="0.9" d="M270.279 282.48C270.242 283.301 270.206 284.123 270.17 284.944C270.206 284.123 270.242 283.301 270.279 282.48Z" fill="#5E8BC8"/>
<path opacity="0.9" d="M368.94 568.395C369.022 567.849 369.318 567.504 369.818 567.31L369.66 568.085L368.94 568.395Z" fill="#5E8BC8"/>
<path opacity="0.9" d="M270.184 284.963C270.197 285.775 270.196 286.569 270.208 287.38C270.196 286.569 270.197 285.775 270.184 284.963Z" fill="#5E8BC8"/>
<path opacity="0.9" d="M359.74 547.949C359.052 548.12 358.364 548.291 357.676 548.462C358.364 548.291 359.052 548.12 359.74 547.949Z" fill="#5E8BC8"/>
<path opacity="0.9" d="M270.203 287.555C270.144 288.31 270.101 289.052 270.041 289.807C270.084 289.065 270.144 288.31 270.203 287.555Z" fill="#5E8BC8"/>
<path opacity="0.9" d="M270.347 291.354C270.842 291.986 271.341 292.586 271.837 293.218C270.393 293.33 269.947 292.688 270.347 291.354Z" fill="#5E8BC8"/>
<path opacity="0.9" d="M40.0551 622.683C40.0603 623.557 40.0518 624.414 40.0257 625.284C40.0518 624.414 40.0465 623.54 40.0551 622.683Z" fill="#5E8BC8"/>
<path opacity="0.9" d="M40.1637 617.723C40.9491 618.58 40.9581 619.423 40.1868 620.283C40.1778 619.44 40.1551 618.58 40.1637 617.723Z" fill="#5E8BC8"/>
<path opacity="0.9" d="M39.9792 613.22C40.0513 613.673 39.9981 614.112 39.8236 614.504C39.1705 613.996 39.1747 613.568 39.9792 613.22Z" fill="#5E8BC8"/>
<path opacity="0.9" d="M301.319 404.807C301.975 404.632 302.618 404.439 303.275 404.264C302.618 404.439 301.975 404.632 301.319 404.807Z" fill="#5E8BC8"/>
<path opacity="0.9" d="M-0.072602 766.721C-0.233909 767.527 -0.412763 768.348 -0.574071 769.154C-0.395212 768.334 -0.233909 767.527 -0.072602 766.721Z" fill="#5E8BC8"/>
<path opacity="0.9" d="M261.559 410.987C262.344 411.987 263.128 412.987 263.899 413.97C266.385 420.721 260.874 416.767 260.242 416.214C252.803 409.549 243.781 405.457 235.475 400.18C231.109 397.397 226.345 395.407 222.123 392.483C221.324 392.259 220.539 392.053 219.757 391.816L219.651 391.644C216.662 388.121 214.344 383.25 210.534 381.391C203.932 378.179 201.42 373.602 201.414 366.833C213.024 375.273 224.343 384.139 237.456 390.266C242.513 393.641 247.587 397.002 252.644 400.377C255.616 403.914 258.588 407.45 261.559 410.987Z" fill="#C3D0EA"/>
<path opacity="0.9" d="M194.494 465.956C199.152 465.024 202.138 461.889 207.508 462.156C199.175 468.634 194.575 477.739 186.395 483.473C184.346 484.91 182.328 487.796 180.612 483.077C179.388 479.672 177.506 481.828 175.82 482.753C173.024 484.322 170.183 485.87 167.373 487.421C165.807 488.281 163.958 490.552 163.138 486.831C162.418 483.598 159.244 479.767 164.385 477.464C166.905 476.338 169.961 474.991 172.128 478.081C172.482 478.568 171.029 480.331 170.223 481.87C177.477 479.441 183.22 475.59 188.309 470.579C185.441 468.152 181.531 476.546 180.319 470.553C179.141 464.674 184.391 459.906 189.329 458.103C193.186 456.693 197.759 457.245 201.448 454.211C203.497 452.52 206.453 453.433 207.422 455.79C208.603 458.634 205.356 458.544 203.803 459.564C200.646 461.614 197.582 463.818 194.494 465.956Z" fill="#5E8BC8"/>
<path opacity="0.9" d="M201.415 366.833C201.406 373.584 203.932 378.179 210.534 381.391C214.331 383.232 216.662 388.121 219.651 391.644C208.301 392.07 198.998 386.101 189.506 381.3C187.35 380.214 186.948 375.144 186.243 371.786C185.681 369.081 187.796 369.066 189.569 369.772C192.193 370.804 193.515 374.189 197.304 373.995C196.378 369.45 194.029 365.623 191.164 360.813C196.496 361.139 199.388 363.235 201.415 366.833Z" fill="#5E8BC8"/>
<path opacity="0.9" d="M111.944 564.499C113.885 563.43 115.703 560.36 118.587 562.52C121.603 564.775 120.058 567.035 117.836 568.975C115.812 570.733 116.038 572.143 118.195 573.881C122.626 577.435 121.706 582.662 118.617 585.34C114.782 588.659 111.983 583.173 109.568 581.07C104.374 576.471 105.686 569.32 111.944 564.499Z" fill="#5E8BC8"/>
<path opacity="0.9" d="M185.913 535.801C187.918 534.2 189.56 527.868 192.28 535.314L192.288 535.252C186.474 539.952 184.126 547.518 178.369 553.195C176.094 544.436 183.953 541.475 185.938 535.725L185.913 535.801Z" fill="#5E8BC8"/>
<path opacity="0.9" d="M153.561 546.546C155.193 549.46 154.274 551.796 151.701 553.361C149.437 554.74 146.327 556.271 144.506 553.732C142.289 550.652 145.713 548.364 147.427 546.283C149.167 544.125 151.583 544.639 153.561 546.546Z" fill="#5E8BC8"/>
<path d="M77.8422 285.549C77.1854 284.675 76.3284 283.618 77.362 282.694C78.4698 281.684 79.4208 282.752 80.0111 283.649C80.4263 284.287 80.8709 285.469 80.5672 285.877C79.6773 287.057 78.6845 286.333 77.8422 285.549Z" fill="#BAAC90"/>
<path opacity="0.9" d="M269.847 361.778C271.159 363.668 270.547 365.31 269.255 366.918C268.069 365.043 267.101 363.194 269.847 361.778Z" fill="#C3D0EA"/>
<path opacity="0.9" d="M197.242 539.473C197.171 539.273 197.104 539.043 197.032 538.844C197.28 538.763 197.505 538.615 197.742 538.628C197.835 538.639 197.884 539.026 197.955 539.225C197.721 539.324 197.473 539.405 197.242 539.473Z" fill="#5E8BC8"/>
<path opacity="0.9" d="M192.266 535.297C192.957 535.492 193.666 535.673 194.357 535.867C193.104 537.558 192.957 535.492 192.256 535.248C192.274 535.235 192.266 535.297 192.266 535.297Z" fill="#5E8BC8"/>
<path opacity="0.9" d="M269.296 366.716C269.133 367.666 268.956 368.598 268.793 369.547C268.97 368.615 269.133 367.666 269.296 366.716Z" fill="#C3D0EA"/>
<path opacity="0.9" d="M185.919 535.738C185.087 535.654 184.26 535.538 183.428 535.454L183.424 535.485C184.252 535.601 185.084 535.685 185.911 535.801L185.919 535.738Z" fill="#5E8BC8"/>
<path opacity="0.9" d="M219.743 391.798C220.542 392.021 221.327 392.227 222.108 392.464C221.341 392.245 220.542 392.021 219.743 391.798Z" fill="#5E8BC8"/>
<path opacity="0.9" d="M195.746 1029.93C195.279 1038.63 198.17 1045.07 206.709 1048.94C212.703 1051.67 214.482 1058.09 216.809 1064.46C211.989 1064.89 211.62 1059.94 208.069 1058.56C210.287 1077.88 218.239 1095.25 224.49 1113.28C219.624 1106.49 216.064 1099.17 212.089 1092.11C209.993 1088.42 208.086 1084.36 206.418 1080.43C203.647 1073.93 201.055 1069.76 193.217 1073.72C189.543 1075.58 188.011 1074.06 187.335 1069.55C186.232 1062.13 184.657 1054.81 181.072 1047.82C178.795 1043.39 179.527 1037.49 181.741 1032.47C184.373 1026.49 186.017 1020.92 177.192 1018.75C175.433 1018.31 174.959 1016.59 175.199 1015.27C175.721 1012.53 178.979 1015.02 180.106 1013.06C184.981 1018.99 189.423 1025.34 195.746 1029.93Z" fill="#5E8BC8"/>
<path opacity="0.9" d="M195.746 1029.93C189.405 1025.35 184.995 1019.01 180.138 1013.06C178.472 1004.39 172.439 996.23 177.042 986.839C184.762 995.636 192.518 1004.41 200.203 1013.23C209.404 1023.84 218.635 1034.46 227.66 1045.21C229.634 1047.54 232.732 1049.51 232.025 1053.38C219.915 1045.53 207.815 1037.73 195.746 1029.93Z" fill="#C3D0EA"/>
<path opacity="0.9" d="M259.889 896.197C266.757 889.622 262.849 878.346 273.182 874.636C275.973 873.638 278.087 871.271 280.642 874.71C283.224 878.183 281.044 880.176 278.349 881.694C271.831 885.388 269.975 894.666 259.889 896.197Z" fill="#5E8BC8"/>
<path opacity="0.9" d="M96.7642 1058.12C91.0233 1056.59 94.4416 1049.63 89.3917 1047.63C88.3609 1047.22 90.6509 1044.72 92.0604 1043.84C94.3854 1042.36 96.0324 1039 99.5281 1040.31C101.458 1041.03 101.399 1043.09 101.277 1044.89C100.926 1049.61 100.315 1054.26 96.7642 1058.12Z" fill="#5E8BC8"/>
<path opacity="0.9" d="M352.05 856.778C352.529 856.884 353.013 856.958 353.492 857.064C353.292 857.532 353.138 858.021 352.879 858.451C352.823 858.523 352.142 858.378 352.108 858.262C352.005 857.805 352.052 857.287 352.05 856.778Z" fill="#5E8BC8"/>
<path opacity="0.9" d="M155.788 973.549C156.588 973.63 157.402 973.728 158.202 973.808L158.223 973.763C157.726 974.069 157.311 974.479 156.968 974.946C156.579 974.486 156.19 974.026 155.788 973.549Z" fill="#C3D0EA"/>
<path opacity="0.9" d="M156.982 974.964C157.325 974.497 157.74 974.087 158.237 973.781C158.57 974.965 158.059 975.253 156.982 974.964Z" fill="#5E8BC8"/>
<path opacity="0.9" d="M121.573 861.277C127.983 864.895 130.018 869.081 132.708 872.584C133.626 873.791 133.9 875.334 132.36 876.371C130.837 877.395 129.398 876.681 128.669 875.354C126.565 871.477 124.682 867.484 121.573 861.277Z" fill="#5E8BC8"/>
<path opacity="0.9" d="M91.6116 900.133C90.3455 898.518 88.8587 897.02 87.8485 895.262C86.8481 893.552 83.3796 891.624 86.8104 889.67C89.2707 888.251 91.1973 890.708 92.172 892.892C93.2629 895.295 94.118 897.941 91.5627 900.143C91.549 900.125 91.6116 900.133 91.6116 900.133Z" fill="#5E8BC8"/>
<path opacity="0.9" d="M234.232 743.632C236.475 746.238 239.336 749.634 239.375 754.422C239.385 755.917 239.028 757.415 237.554 758.174C235.757 759.101 235.189 757.762 234.225 756.533C228.126 748.647 224.351 748.461 216.171 754.592C213.46 756.633 210.268 760.156 206.413 757.482C203.012 755.133 203.056 751.754 205.432 748.021C206.533 746.279 205.406 743.251 206.215 741.172C206.973 739.245 203.302 735.18 208.537 735.383C215.086 735.633 210.214 739.112 210.005 741.232C209.868 742.757 209.891 744.269 211.377 745.116C213.518 746.328 214.455 744.629 215.546 743.236C224.531 731.911 225.04 731.909 234.232 743.632Z" fill="#5E8BC8"/>
<path opacity="0.9" d="M242.904 757.294C244.118 755.804 245.927 755.037 247.337 756.51C248.634 757.875 248.327 760.014 246.907 761.241C245.223 762.675 241.586 763.316 242.556 765.928C244.963 772.288 242.858 774.052 236.643 773.937C235.344 773.907 234.005 777.48 232.006 774.569C230.91 772.991 231.367 771.187 232.505 769.672C235.743 765.375 238.681 760.804 242.904 757.294Z" fill="#5E8BC8"/>
<path opacity="0.9" d="M225.098 781.743C224.598 786.386 224.251 790.825 223.59 795.226C223.202 797.769 222.811 800.995 219.434 801.064C215.436 801.138 215.176 797.261 214.912 794.719C214.181 787.639 216.33 782.242 225.098 781.743Z" fill="#5E8BC8"/>
<path opacity="0.9" d="M216.086 730.399C214.324 731.695 212.517 732.574 210.733 730.515C209.031 728.562 209.488 726.758 211.471 725.345C213.278 724.07 215.3 723.646 217.036 725.318C219.124 727.365 217.707 728.958 216.086 730.399Z" fill="#5E8BC8"/>
<path opacity="0.9" d="M197.057 755.749C196.564 755.88 195.899 756.26 195.587 756.079C195.276 755.899 195.034 755.012 195.232 754.687C195.413 754.375 196.3 754.133 196.625 754.331C196.937 754.511 196.926 755.256 197.057 755.749Z" fill="#5E8BC8"/>
<path opacity="0.9" d="M166.473 768.423C165.98 768.554 165.364 768.924 165.052 768.744C164.74 768.563 164.526 767.712 164.707 767.4C164.888 767.088 165.739 766.873 166.051 767.054C166.363 767.234 166.356 767.948 166.473 768.423Z" fill="#5E8BC8"/>
<path opacity="0.9" d="M85.5742 1078.46C86.3965 1080.19 86.6551 1081.86 84.6025 1082.93C84.3467 1083.08 83.3226 1082.35 83.3477 1082.27C83.8243 1080.96 84.4085 1079.68 84.9615 1078.4L85.5742 1078.46Z" fill="#1B74BB"/>
<path opacity="0.9" d="M253.284 375.445C246.515 369.416 244.233 360.719 240.381 352.914C248.003 358.33 251.498 366.331 253.284 375.445Z" fill="#1B74BB"/>
<path opacity="0.9" d="M261.559 410.987C258.587 407.45 255.616 403.914 252.644 400.377C251.63 396.95 244.673 393.647 249.231 390.781C253.429 388.142 253.549 395.275 255.295 398.044C257.822 402.099 264.046 404.502 261.559 410.987Z" fill="#1B74BB"/>
<path opacity="0.9" d="M287.643 297.318C287.257 298.273 286.967 299.747 286.138 300.823C285.217 301.999 284.029 301.569 283.611 300.168C283.163 298.621 283.755 297.278 285.116 296.409C285.922 295.919 286.794 295.802 287.643 297.318Z" fill="#1B74BB"/>
<path opacity="0.9" d="M293.26 262.532C292.408 261.301 291.658 260.019 292.286 258.506C292.418 258.204 293.439 257.914 293.625 258.079C295.382 259.706 294.476 261.153 293.18 262.538L293.26 262.532Z" fill="#1B74BB"/>
<path opacity="0.9" d="M285.305 255.279C285.255 255.035 285.219 254.809 285.169 254.564C285.187 254.805 285.192 255.028 285.211 255.268C285.228 255.254 285.305 255.279 285.305 255.279Z" fill="#1B74BB"/>
<path opacity="0.9" d="M184.868 763.891C184.904 764.117 184.954 764.362 185.007 764.575C184.989 764.334 184.966 764.125 184.948 763.885C184.944 763.916 184.868 763.891 184.868 763.891Z" fill="#1B74BB"/>
<path opacity="0.9" d="M413.323 301.08C411.387 297.128 413.755 296.206 416.937 295.129C417.84 298.955 414.883 299.488 413.511 301.102L413.323 301.08Z" fill="#5E8BC8"/>
<path opacity="0.9" d="M498.72 702.402C501.953 706.272 505.596 709.906 506.732 715.08C502.706 711.718 499.817 707.635 498.72 702.402Z" fill="#C3D0EA"/>
<path opacity="0.9" d="M340.036 1141.25C340.709 1141.46 341.162 1141.53 341.501 1141.75C341.709 1141.87 341.876 1142.19 341.922 1142.47C342.084 1143.36 341.67 1143.63 340.993 1143.05C340.634 1142.74 340.483 1142.15 340.036 1141.25Z" fill="#C3D0EA"/>
<path opacity="0.9" d="M197.994 488.067C198.189 487.375 198.384 486.684 198.575 486.024C200.123 487.275 198.126 487.368 197.914 488.073C197.917 488.041 197.994 488.067 197.994 488.067Z" fill="#1B74BB"/>
<path opacity="0.9" d="M159.356 536.361C159.6 536.312 159.845 536.262 160.103 536.229C159.862 536.248 159.622 536.266 159.381 536.285C159.35 536.281 159.356 536.361 159.356 536.361Z" fill="#1B74BB"/>
<path opacity="0.9" d="M417.796 371.119C418.039 371.212 418.383 371.253 418.503 371.442C418.609 371.614 418.522 371.937 418.506 372.205C418.266 371.827 418.022 371.479 417.796 371.119Z" fill="#5E8BC8"/>
<path opacity="0.9" d="M392.242 549.472C392.332 550.563 392.422 551.654 392.512 552.746C392.06 552.675 391.608 552.605 391.138 552.548C391.563 551.535 391.956 550.518 392.381 549.504C392.385 549.473 392.242 549.472 392.242 549.472Z" fill="#C3D0EA"/>
</g>
<defs>
<clipPath id="clip0">
<rect width="974.182" height="1103.19" fill="white" transform="translate(-430 601.125) rotate(-38.1015)"/>
</clipPath>
</defs>
</svg>
