<svg width="1044" height="961" viewBox="0 0 1044 961" fill="none" xmlns="http://www.w3.org/2000/svg">
<g opacity="0.75" clip-path="url(#clip0)">
<g opacity="0.85">
<path opacity="0.9" d="M845.852 396.616C850.142 398.861 856.14 399.723 854.23 406.984C853.913 408.149 854.094 409.642 855.409 409.625C865.194 409.405 863.884 417.278 865.457 423.097C868.055 425.221 868.986 428.246 869.616 431.312C872.302 444.559 875.671 457.61 878.834 470.721C882.901 487.626 884.517 505.118 887.241 522.339C888.172 528.185 891.06 533.673 890.315 539.841C890.161 541.183 890.856 543.067 889.117 543.406C887.956 543.649 886.454 542.779 885.233 542.187C882.324 540.78 883.663 538.024 883.587 535.718C880.181 535.549 878.516 538.576 875.809 539.282L875.853 539.203C876.955 542.828 876.408 546.79 872.562 547.194C868.394 547.646 863.472 547.574 860.025 543.969C858.964 542.84 859.055 541.202 860.596 540.403C868.989 536.014 865.22 532.77 859.828 529.25C858.621 528.475 858.276 526.403 857.516 524.918C856.818 524.513 856.106 524.135 855.408 523.729C853.72 529.338 858.175 536.08 851.419 541.659C850.14 533.965 852.588 526.706 850.717 519.764C850.037 519.577 848.751 521.109 848.724 519.057C849.375 519.296 850.031 519.556 850.681 519.796C857.026 515.522 854.699 521.402 855.379 523.783C856.091 524.161 856.789 524.566 857.501 524.945C861.817 523.287 867.736 525.671 870.633 521.709C872.567 519.075 874.947 517.142 877.119 517.462C879.854 517.867 879.481 521.421 879.534 523.958C879.564 525.002 879.422 526.386 881.234 525.913C883.892 519.781 884.297 514.382 878.302 509.535C875.742 507.468 872.739 503.691 877.682 500.466C883.382 496.756 881.165 492.442 877.996 489.183C875.211 486.329 873.881 483.239 873.009 479.638L873.083 479.662C865.628 481.769 857.782 483.45 859.229 494.162C859.451 495.8 858.62 497.829 856.199 496.483C852.72 494.566 848.256 496.02 845.125 493.131C837.839 529.06 841.429 564.436 850.136 599.626C857.383 628.92 870.25 654.93 892.991 675.388C896.092 678.174 897.292 682.689 901.431 684.485C907.624 684.619 910.752 676.92 917.404 678.266C917.815 677.589 918.205 676.918 918.61 676.22C919.089 675.546 919.589 674.866 920.062 674.172C920.485 673.536 920.901 672.88 921.324 672.244C921.209 671.135 921.688 670.461 922.794 670.257C923.488 669.477 924.189 668.717 924.884 667.937C924.984 667.505 925.197 667.153 925.49 666.846C925.718 666.31 925.945 665.775 926.146 665.225C926.732 664.297 927.332 663.342 927.917 662.414C947.156 630.951 950.602 597.014 944.23 561.381C936.434 517.782 920.144 478.064 891.462 443.855C880.329 430.58 874.178 413.823 861.833 401.32C860.32 399.782 856.755 394.04 863.525 394.39C886.882 395.532 909.595 400.373 931.143 409.599C935.142 411.3 940.463 413.474 936.919 420.262C935.848 422.314 938.698 423.671 940.389 424.42C954.505 430.664 966.066 440.973 979.499 448.352C1018.64 469.902 1059.73 477.711 1103.73 467.92C1111.33 466.221 1118.27 463.029 1124.7 458.663C1125.66 455.972 1128.2 455.245 1130.31 453.838C1133.75 451.535 1138.79 449.289 1139.72 446.025C1142.4 436.774 1149.16 426.964 1139.81 417.522C1139.65 417.031 1139.39 416.59 1139.01 416.206C1134.99 416.146 1135.01 412.849 1134.19 410.218C1133.97 409.744 1133.68 409.289 1133.36 408.866C1130.42 406.749 1126.66 405.719 1124.83 402.191C1124.5 401.142 1124.2 400.086 1123.88 399.036C1121.48 399.408 1119.38 400.523 1116.76 398.562C1100.78 386.738 1081.44 382.569 1063.15 376.197C1058.9 374.724 1056.13 373.322 1054.84 369.191C1048.1 365.116 1039.81 368.065 1031.4 364.108C1038.21 359.969 1044.01 356.366 1049.9 352.916C1073.86 338.864 1093.51 320.514 1107.09 296.04C1113.36 284.758 1115.24 273.408 1109.82 261.166C1108.35 257.824 1106 256.659 1103.13 255.307C1079.06 244.05 1054.23 245.835 1029.3 251.321C994.102 259.045 962.256 273.714 933.745 296.139C918.995 307.739 906.159 320.785 894.841 335.546C893.23 337.663 891.902 340.617 888.396 340.409L888.461 340.324C889.803 342.985 887.994 343.86 886.01 344.673L886.072 344.498C885.661 345.332 885.271 346.16 884.866 347.014C886.456 350.545 880.683 350.627 881.49 353.844C890.264 356.196 895.766 342.155 905.368 349.285C905.453 349.35 905.888 349.069 906.08 348.88C912.297 342.359 921.332 341.39 929.066 338.376C935.51 335.864 939.652 330.382 946.281 328.512C958.455 325.057 970.91 320.627 980.509 312.938C991.415 304.182 1005.11 306.585 1016.02 299.819C1007.71 309.356 995.128 310.912 985.029 317.087C987.104 318.398 989.712 315.772 991.441 317.831C992.251 318.786 992.481 320.377 992.552 321.722C992.585 322.227 991.151 323.398 990.912 323.265C983.373 319.127 979.822 329.656 972.523 328.158C969.883 327.614 966.137 339.026 963.374 327.391C963.016 325.904 960.199 326.932 958.726 327.577C954.916 329.202 951.114 330.937 948.163 334.086C950.011 336.244 953.86 336.085 953.26 339.548C952.775 342.395 949.886 342.235 947.829 342.867C942.422 344.546 936.976 346.011 931.492 347.578C930.99 345.348 932.932 345.174 933.745 344.181C934.954 342.694 937.186 341.34 935.194 339.222C933.742 337.667 932.105 338.985 930.641 339.896C929.689 340.481 928.652 341.001 927.643 341.468C925.015 342.689 920.158 342.845 921.707 346.858C922.795 349.726 926.336 351.781 930.516 352.311C933.957 352.761 936.275 348.025 940.828 351.739C922.345 358.652 902.742 358.587 885.675 367.401C890.159 366.411 894.665 365.416 899.362 364.387C898.555 370.416 894.697 375.324 897.614 380.916C911.328 383.558 925.193 383.046 939.043 383.031C942.665 381.369 946.112 381.37 950.481 384.129C945.538 386.257 941.514 387.921 938.215 390.946C941.044 393.249 943.995 391.355 946.649 392.029C948.435 392.482 950.058 393.697 948.106 395.486C945.673 397.703 942.486 401.434 940.166 401.067C930.032 399.439 919.363 398.837 910.76 392.071L910.58 392.145C909.829 391.866 909.099 391.582 908.354 391.325C903.378 391.224 898.53 390.079 893.564 389.773C884.086 389.189 874.721 387.275 865.133 388.267C864.306 388.346 857.766 388.333 863.549 384.443C858.127 381.134 854.246 381.884 853.152 388.711C852.954 389.977 853.143 390.952 851.641 390.553C845.873 389.088 845.711 392.672 845.852 396.616ZM888.217 464.392C887.017 460.974 885.894 457.512 884.611 454.117C883.976 452.44 881.389 450.672 883.923 449.12C886.016 447.828 888.848 448.81 889.483 451.271C890.645 455.729 894.529 457.889 896.743 461.174C899.558 465.385 900.976 472.076 896.725 475.999C892.382 479.993 894.085 471.224 890.47 471.495C891.584 478.296 893.901 484.529 898.196 490.556C898.439 488.897 898.303 486.697 898.856 486.517C902.3 485.332 903.923 488.114 905.253 490.421C907.963 495.131 903.307 496.304 900.918 498.442C898.169 500.884 898.012 498.063 897.276 496.504C895.961 493.701 894.625 490.904 893.324 488.074C892.553 486.392 892.311 483.662 889.399 485.613C885.384 488.327 885.443 484.93 884.657 482.647C881.524 473.557 883.091 463.842 880.248 454.042C884.531 456.893 885.108 461.027 888.217 464.392ZM896.845 588.099C899.006 595.429 895.972 601.736 889.303 602.364C886.232 602.659 880.931 605.337 879.817 600.574C878.921 596.733 881.165 592.13 886.64 591.864C889.289 591.735 890.265 590.762 889.7 588.237C889.065 585.463 889.139 582.823 892.772 582.77C896.254 582.738 895.935 586.165 896.845 588.099ZM874.516 550.509C877.141 550.14 879.32 551.107 879.462 553.798C879.615 556.373 880.978 560.125 877.522 561.269C874.654 562.2 873.093 559.243 872.112 556.904C870.983 554.204 871.589 551.86 874.516 550.509ZM1081.56 389.585C1080.46 389.721 1079.25 389.709 1079.25 388.299C1079.24 387.808 1080.26 387.137 1080.95 386.874C1081.9 386.513 1083.24 386.218 1083.56 387.628C1083.85 388.956 1082.59 389.269 1081.56 389.585ZM844.408 520.244C844.26 520.04 844.118 519.857 843.991 519.647C844.16 519.532 844.417 519.257 844.497 519.301C844.689 519.425 844.801 519.662 844.929 519.872C844.745 520.014 844.577 520.129 844.408 520.244Z" fill="#A7BCD9"/>
<path opacity="0.9" d="M666.716 1028.4C667.539 1002.28 659.97 978.049 650.212 954.308C649.781 953.267 649.287 952.244 648.835 951.209C645.672 944.053 647.24 931.36 631.08 938.571C639.612 933.807 640.376 927.701 639.522 920.871C637.882 907.84 638.423 894.298 630.673 882.677L630.794 882.709C630.229 882.848 629.644 882.993 629.079 883.132C628.074 882.747 627.838 882.233 628.769 881.497L628.76 881.544C627.77 878.469 626.759 875.399 625.769 872.324C622.511 871.576 617.53 875.841 616.339 869.085C615.969 868.183 615.606 867.302 615.236 866.4C609.312 869.793 611.763 865.131 612.061 862.964C614.918 842.089 615.969 820.925 622.507 800.634C622.923 799.351 622.56 797.843 622.56 796.432C620.163 795.013 616.872 794.072 617.396 790.497C618.197 784.918 616.264 781.911 607.265 782.846C613.47 779.418 613.885 776.479 614.358 772.65C614.902 768.286 620.74 771.409 623.762 769.606L623.715 769.44C623.78 768.728 623.845 768.015 623.91 767.302C623.549 765.726 623.174 764.177 622.813 762.601C620.028 763.038 620.211 768.224 616.333 766.713C615.449 766.361 614.199 764.569 614.343 764.371C618.521 758.7 612.298 759.403 610.273 757.564C607.069 754.651 599.977 753.408 602.868 747.545C605.071 743.11 603.537 740.795 601.533 737.852C600.374 736.146 599.162 734.567 600.693 732.562C602.441 730.295 604.554 731.191 606.81 731.801C610.774 732.907 614.044 736.518 618.717 735.094C618.351 733.497 618.005 731.894 617.633 730.277C614.627 719.83 611.642 709.377 608.636 698.931C602.795 680.048 593.224 663.305 579.626 648.921C575.978 649.157 574.476 651.108 573.604 654.715C571.898 661.672 571.501 668.591 564.29 673.986C555.959 680.238 565.871 684.772 568.041 690.331C572.233 686.828 571.071 682.213 572.083 678.073C578.317 683.367 583.597 688.687 592.359 686.297C595.537 685.434 596.678 686.921 597.033 691.454C597.479 697.169 591.572 708.46 605.762 707.676C607.811 707.561 608.1 709.986 606.873 711.567C604.44 714.725 600.898 716.274 597.126 715.605C594.131 715.072 592.514 712.467 592.719 709.185C592.967 705.353 592.098 701.84 589.731 698.8C588.595 697.334 587.862 694.61 585.397 695.538C582.307 696.712 583.691 699.518 584.516 701.387C587.3 707.688 588.857 714.161 588.434 721.065C588.34 722.614 589.51 724.832 587.145 725.328C584.697 725.848 583.811 723.683 583.151 721.767C581.78 717.749 580.917 713.473 579.016 709.718C578.032 707.76 575.469 705.448 572.734 707.236C571.339 708.15 569.438 710.506 571.102 712.336C578.818 720.856 572.946 731.801 576.274 741.26C577.202 743.883 576.33 748.901 575.685 752.756C575.407 754.447 573.666 757.049 573.009 756.005C569.314 750.121 568.04 756.238 565.802 757.101C564.43 757.627 562.878 758.07 561.882 756.855C561.332 756.184 561.187 754.344 561.687 753.821C565.075 750.167 562.004 742.784 569.537 741.259C572.183 740.727 571.195 736.957 570.714 734.408C569.189 726.404 567.347 718.625 564.442 710.88C560.93 701.563 559.642 691.409 557.487 681.593C556.494 677.018 553.89 673.934 549.196 675.364C544.087 676.913 540.735 673.639 539.275 670.877C536.455 665.549 534.471 665.264 528.884 667.487C523.837 669.488 513.425 670.805 512.521 667.795C510.271 660.311 506.345 663.492 502.505 663.603C497.164 690.045 502.576 715.341 509.687 740.711C522.352 785.919 551.425 817.733 590.145 842.18C594.653 845.034 598.602 848.831 602.688 852.321C607.385 856.307 608.195 861.18 603.999 865.692C599.053 871.022 596.641 863.987 593.126 862.573C591.533 861.931 590.558 859.77 587.868 856.62C588.16 862.895 588.373 867.244 588.564 871.6C590.182 871.697 591.893 872.126 593.433 871.798C601.232 870.108 605.85 872.797 606.712 880.99C604.991 890.951 595.646 893.889 589.432 899.716C589.201 901.886 593.157 901.786 592.015 904.216C591.46 905.405 590.111 906.484 588.486 905.806C580.365 902.529 578.487 907.789 577.157 913.945C576.039 919.122 573.266 924.145 568.982 926.308C562.212 929.719 556.837 934.568 551.776 939.729C548.689 942.872 546.637 943.212 544.817 939.657C540.941 932.123 536.551 933.914 530.704 937.42C527.171 939.548 523.375 941.617 519.656 943.328C512.546 946.568 505.613 950.271 497.974 952.834C513.072 942.298 529.128 933.235 541.808 919.406C538.258 918.495 535.177 922.128 531.639 919.064C537.084 915.405 542.116 911.393 548.321 912.665C557.208 914.471 563.091 911.089 567.656 904.032C553.791 903.29 539.926 902.549 526.061 901.807C516.947 902.418 507.783 898.386 498.748 901.705C485.643 906.523 470.35 901.958 458.282 912.21C453.118 916.618 445.677 918.385 439.294 921.349C416.418 932.942 398.977 950.482 384.541 971.327C376.1 983.543 371.387 997.762 363.599 1010.31C361.057 1014.41 364.084 1015.14 366.626 1016.36C381.256 1023.46 397.134 1025.53 413.012 1026.51C474.337 1030.26 524.955 1009.38 561.909 959.379C578.086 937.498 590.702 913.098 608.506 892.365C611.628 888.72 609.846 879.424 619.191 882.284C626.351 884.471 633.155 893.721 633.359 901.878C633.61 912.239 628.359 921.283 626.014 931.019C626.57 932.808 625.567 933.609 624.054 934.109C623.649 934.806 623.249 935.525 622.865 936.217C626.524 948.402 627.195 960.702 626.313 973.446C625.624 983.649 622.466 994.066 626.187 1004.35L626.719 1004.65C630.488 1007.89 629.991 1011.8 629.273 1016.25C627.744 1025.87 636.245 1034.48 645.995 1033.19C649.489 1032.73 650.571 1034.17 651.698 1036.62C652.587 1038.56 652.206 1041.7 655.227 1041.77C658.364 1041.86 658.884 1038.67 660.306 1036.67C662.349 1033.87 662.027 1029.22 666.716 1028.4ZM593.319 763.323C586.31 756.415 590.138 748.113 587.115 741.522C585.876 738.831 585.297 736.019 589.282 734.769C593.226 733.531 593.542 736.597 595.15 738.936C601.124 747.707 591.661 754.305 593.319 763.323ZM628.958 982.16C628.394 977.127 630.529 973.16 632.953 969.266C633.855 967.8 634.975 966.159 636.914 966.679C640.388 967.635 639.764 971.171 640.745 973.667C641.328 975.157 641.718 978.404 640.68 978.141C635.566 976.848 634.312 984.213 628.958 982.16ZM543.679 680.342C543.383 680.718 543.126 681.15 542.792 681.469C542.7 681.54 542.085 681.268 542.082 681.179C542.124 680.697 542.281 680.227 542.39 679.748C542.825 679.937 543.244 680.153 543.679 680.342Z" fill="#A7BCD9"/>
<path opacity="0.9" d="M866.674 781.517C864.638 774.622 857.951 773.778 852.73 771.642C818.938 757.787 785.05 759.429 751.375 772.315C722.923 783.194 699.216 800.889 680.146 824.401C672.48 833.844 665.648 844.011 657.775 853.356C659.199 855.524 656.039 858.172 658.9 861.138C664.716 856.343 666.262 847.574 674.892 845.58C677.665 844.944 679.811 841.802 683.705 843.287C689.354 845.434 692.009 837.49 696.216 838.191C709.078 840.361 719.866 834.795 731.148 830.722C732.975 830.066 735.233 829.824 735.313 827.204C735.372 825.687 734.722 824.194 733.217 823.863C727.772 822.664 727.329 819.388 729.123 814.936C729.892 813.082 729.511 811.512 727.344 811.056C725.576 810.666 723.728 810.387 724.48 808.001C725.089 806.059 726.845 805.781 728.686 806.039C734.782 806.85 740.538 805.296 746.264 803.481C748.792 802.692 751.408 802.057 752.644 805.442C753.631 808.115 754.802 810.96 752.351 813.429C750.769 815.022 748.729 816.187 747.062 817.715C745.238 819.4 742.68 821.026 744.182 824.089C745.814 827.451 748.575 825.678 750.89 825.084C755.803 823.793 760.69 822.33 765.574 820.935C760.338 824.938 754.742 827.521 749.181 830.228C744.622 832.448 741 835.05 746.15 840.228C748.604 842.706 745.966 844.914 745.544 847.117C745.26 848.631 743.409 848.107 741.963 847.512C738.103 845.906 720.841 849.18 720.249 852.438C718.809 860.326 712.376 860.843 705.807 863.547C712.692 866.103 717.485 862.585 722.575 861.758C721.828 858.591 723.974 857.016 726.209 855.75C728.213 854.618 731.105 853.77 732.222 856.272C733.774 859.746 729.972 859.287 728.243 860.05C726.457 860.851 724.447 861.179 722.543 861.722C719.852 867.349 721.629 873.96 722.075 879.049C722.793 887.127 720.156 885.574 715.479 884.873C709.989 884.068 704.816 883.978 705.773 892.033C720.336 895.06 734.963 893.613 749.49 891.972C769.262 889.728 788.525 885.234 806.441 876.177C810.086 867.86 824.23 862.993 814.037 850.815C815.19 850.307 815.557 850.023 815.69 850.097C821.3 853.755 827.109 859.753 831.169 848.497C840.984 847.597 847.984 841.075 855.807 836.177C860.62 828.266 866.273 820.786 868.763 811.635C869.094 810.914 869.419 810.172 869.75 809.45C869.75 809.45 869.827 809.406 869.821 809.385C869.747 806.698 869.795 804.042 872.893 802.822L872.887 802.801C868.849 799.007 873.03 786.687 860.019 791.365C864.07 788.776 864.203 784.462 866.674 781.517ZM721.136 814.396C715.17 817.488 711.436 819.539 707.616 821.369C706.295 821.993 704.766 821.735 704.157 820.073C703.543 818.391 704.631 817.341 706.032 816.919C710.112 815.686 714.073 813.57 721.136 814.396Z" fill="#A7BCD9"/>
<path opacity="0.9" d="M843.689 340.842C843.098 332.661 842.507 324.48 841.916 316.298C840.317 319.553 838.768 321.652 837.127 316.3C835.623 311.424 836.058 305.188 827.907 304.158C836.253 303.051 838.657 297.439 836.83 291.67C831.628 275.336 825.335 259.336 819.45 243.197C818.921 241.736 817.623 241.189 816.204 240.766C807.377 238.071 806.957 236.758 813.296 230.426C814.706 229.016 815.59 227.8 814.437 226.115C813.624 224.914 812.628 222.445 810.763 224.142C807.848 226.788 807.502 224.402 806.908 222.557C806.385 220.96 805.817 218.816 808.315 218.551C814.18 217.928 811.127 214.367 810.787 211.688L810.627 211.599C805.779 215.312 803.426 213.97 801.942 208.148C799.956 200.409 800.843 192.701 800.415 184.07C802.449 187.586 803.959 190.289 805.526 192.953C806.915 195.31 809.31 197.581 811.657 196.396C815.098 194.652 820.558 194.727 821.641 190.836C822.821 186.581 821.488 181.209 817.26 178.789C811.079 175.249 809.305 169.666 807.718 163.56C807.112 161.204 807.006 157.384 804.05 157.534C798.545 157.852 797.336 153.698 795.699 150.472C792.811 144.827 788.389 142.195 782.37 141.339C780.481 141.073 778.568 140.253 776.921 139.268C767.225 133.374 757.999 126.539 745.991 125.715C747.094 122.132 752.637 122.81 751.215 118.067C748.451 116.775 747.57 121.683 745.79 120.467C741.495 117.575 743.026 126.07 740.025 123.322C736.788 120.374 740.862 117.084 740.794 113.79C740.756 111.54 742.53 110.227 744.989 111.629C747.88 113.288 750.479 111.337 753.237 111.042C750.249 106.926 746.832 103.738 741.185 105.753C735.559 107.763 734.941 112.417 734.89 117.491C734.861 119.738 734.887 122.26 733.932 124.167C726.313 139.26 727.87 156.075 724.596 171.965C723.145 179.028 725.157 185.371 726.91 191.9C734.574 220.38 743.722 248.258 760.802 272.796C761.757 274.18 763.007 275.346 764.13 276.614C770.655 273.52 768.855 270.429 764.515 266.677C763.123 265.485 759.984 262.643 764.123 260.677C766.508 259.548 770.375 257.727 771.229 261.737C772.216 266.447 774.15 270.081 777.209 273.663C780.996 278.066 786.849 281.006 787.691 287.638C787.709 287.857 788.711 288.153 789.231 288.094C798.6 286.963 798.688 294.012 798.525 299.789C798.439 303.015 799.137 304.674 801.576 305.768C810.616 309.835 811.213 311.612 805.927 319.592C814.455 331.193 826.371 339.453 835.981 349.984C834.749 343.239 831.855 337.103 828.997 330.935C827.826 328.404 827.096 324.986 830.59 323.585C834.203 322.127 834.02 326.344 835.74 327.823C839.74 331.404 836.981 339.064 843.689 340.842Z" fill="#B9C9E0"/>
<path opacity="0.9" d="M739.903 741.63C756.099 715.737 764.169 687.644 762.237 657.056C761.457 644.764 756.503 633.374 753.116 621.67C752.454 619.352 751.059 618.072 748.732 619.408C733.894 627.876 716.535 630.26 701.874 639.506C687.858 648.344 677.676 660.655 667.925 673.379C654.24 691.212 644.178 710.92 640.423 733.35C639.541 738.571 637.525 743.58 641.716 749.166C645.083 753.666 639.469 758.852 639.07 764.271C638.132 777.053 639.58 789.646 639.798 802.322C640.016 814.841 636.503 826.366 631.82 837.71C632.754 838.473 634.19 839.115 634.847 838.122C639.967 830.346 648.163 824.558 650.676 815.177C652.352 808.9 654.644 803.679 660.882 800.599C662.866 799.629 665.618 795.709 662.78 794.706C656.646 792.585 661.539 790.673 662.198 788.828C664.037 783.669 671.197 781.467 671.153 775.906C671.112 769.022 674.222 768.47 679.118 770.094C676.931 759.928 678.741 750.121 684.098 743.173C686.977 739.463 691.684 736.037 693.023 731.401C694.425 726.591 698.254 718.132 697.252 717.679C690.467 714.692 695.641 711.49 697.211 710.482C701.261 707.893 701.063 706.338 697.729 703.283C694.728 700.535 696.449 697.156 699.074 695.22C701.96 693.097 706.057 690.674 709.102 693.341C712.212 696.08 707.097 697.764 706.438 700.236C706.323 700.694 706.597 701.265 706.713 701.903C710.183 702.77 713.902 699.805 717.361 702.511C718.23 703.203 720.069 702.589 719.83 701.359C719.191 698.183 719.023 695.007 723.171 695.502C726.532 695.907 725.772 700.065 726.934 702.486L726.88 702.457C731.442 697.818 731.898 692.987 728.424 687.8C726.556 685.021 727.295 682.28 729.297 679.962C731.615 677.263 734.127 679.478 736.297 680.336C740.155 681.853 738.432 683.733 736.619 686.087C734.606 688.677 735.448 693.115 738.316 692.654C744.991 691.576 745.29 692.386 741.278 697.382C739.888 699.1 742.156 699.437 743.27 700.127C745.274 701.345 748.417 700.828 749.575 704.728C741.109 704.706 738.613 713.366 731.828 716.177C730.128 716.886 725.83 721.114 732.591 722.138C737.856 722.94 735.077 724.338 732.998 725.76C732.008 726.446 731.118 728.11 732.224 728.22C741.196 729.15 737.666 737.008 739.903 741.63ZM699.818 658.719C713.642 654.771 714.038 655.061 714.617 668.999C714.685 670.726 714.448 672.562 716.807 672.828C718.448 673.009 719.323 671.841 720.08 670.573C721.138 668.793 719.285 663.323 724.541 666.836C728.745 669.643 723.595 670.733 723.074 672.673C722.527 674.754 719.932 676.48 719.804 678.464C719.544 682.725 717.664 685.389 713.676 685.296C709.15 685.201 708.653 680.642 707.693 677.513C704.772 668.072 701.739 666.073 692.492 668.803C691.049 669.237 689.82 669.947 688.962 668.199C688.241 666.771 688.818 665.42 689.666 664.237C692.43 660.515 696.584 659.463 699.818 658.719ZM685.303 664.476C686.612 669.609 686.31 674.822 686.41 680.032C686.44 681.859 685.795 683.521 684.024 684.138C680.814 685.279 681.793 681.731 680.761 681.019C675.842 677.588 675.203 675.039 680.682 671.415C682.926 669.946 680.448 667.385 679.94 665.291C679.52 663.508 680.493 661.663 682.285 661.353C684.221 661.002 685.205 662.646 685.303 664.476ZM685.354 693.654C691.94 699.003 690.539 704.441 685.977 709.549C684.336 711.406 681.936 714.285 678.849 711.943C676.224 709.962 677.768 707.215 678.912 705.03C680.875 701.246 683.119 697.583 685.354 693.654ZM721.491 658.663C721.041 656.62 720.858 654.568 723.634 654.178C725.958 653.85 727.297 655.326 727.965 657.351C728.713 659.578 728.048 661.246 725.612 661.807C723.045 662.383 722.111 660.68 721.491 658.663ZM721.986 689.236C722.367 688.926 722.801 688.332 723.147 688.367C723.493 688.403 724.07 689.089 724.034 689.435C723.999 689.781 723.313 690.357 722.967 690.322C722.58 690.298 722.302 689.638 721.986 689.236ZM738.69 716.456C739.071 716.146 739.47 715.584 739.816 715.619C740.162 715.655 740.706 716.306 740.67 716.652C740.635 716.997 739.964 717.547 739.639 717.506C739.272 717.476 739 716.838 738.69 716.456Z" fill="#A7BCD9"/>
<path opacity="0.9" d="M666.716 1028.4C662.048 1029.21 662.349 1033.87 660.298 1036.72C658.855 1038.72 658.334 1041.91 655.218 1041.82C652.191 1041.72 652.573 1038.59 651.689 1036.67C650.557 1034.2 649.475 1032.76 645.986 1033.24C636.237 1034.53 627.735 1025.92 629.264 1016.3C629.977 1011.82 630.459 1007.95 626.71 1004.7C626.415 1006.01 626.146 1007.34 625.776 1008.63C625.752 1008.71 624.54 1008.7 624.422 1008.44C623.405 1006.45 624.558 1005.31 626.199 1004.39C622.498 994.101 625.636 983.691 626.325 973.487C627.207 960.744 626.536 948.443 622.877 936.258C614.655 950.493 607.175 965.211 598.051 978.876C578.331 1008.42 579.098 1040.73 584.231 1073.51C586.822 1090.03 595.865 1103.9 607.009 1116.28C608.056 1117.43 609.995 1118.58 610.595 1117.78C615.704 1111.06 623.694 1114.36 629.98 1111.91C632.155 1111.07 633.4 1109.86 632.809 1107.48C632.038 1104.38 632.26 1101.32 633.147 1096.28C634.725 1102.59 640.425 1101.07 642.704 1104.74L642.597 1104.68C645.811 1104.41 647.529 1102.36 649.025 1099.76C661.611 1077.6 668.453 1054.07 666.716 1028.4Z" fill="#B9C9E0"/>
<path opacity="0.9" d="M845.852 396.616C845.716 392.693 845.879 389.109 851.564 390.597C853.087 390.991 852.877 390.021 853.075 388.755C854.19 381.923 858.071 381.172 863.472 384.488C864.652 384.151 865.831 383.814 866.99 383.483C868.723 377.011 874.946 378.659 879.203 376.95C882.136 375.777 886.266 370.255 888.054 374.714C889.984 379.513 882.7 378.146 879.951 380.274C885.813 380.503 891.681 380.752 897.543 380.981C894.62 375.368 898.484 370.481 899.292 364.453C894.573 365.487 890.089 366.476 885.604 367.466C902.671 358.652 922.295 358.711 940.757 351.804C936.204 348.09 933.907 352.82 930.445 352.376C926.265 351.846 922.744 349.785 921.636 346.923C920.108 342.904 924.944 342.754 927.573 341.533C928.601 341.06 929.624 340.567 930.57 339.961C932.013 339.056 933.651 337.738 935.123 339.287C937.115 341.405 934.883 342.759 933.674 344.246C932.882 345.233 930.939 345.407 931.421 347.643C936.905 346.077 942.371 344.605 947.758 342.932C949.815 342.3 952.683 342.466 953.189 339.613C953.783 336.13 949.94 336.309 948.092 334.151C951.043 331.002 954.824 329.273 958.656 327.642C960.134 327.018 962.945 325.969 963.303 327.456C966.066 339.091 969.818 327.7 972.452 328.223C979.751 329.721 983.302 319.192 990.841 323.33C991.074 323.443 992.514 322.293 992.481 321.787C992.396 320.468 992.165 318.877 991.37 317.896C989.641 315.837 987.027 318.442 984.958 317.152C995.078 310.972 1007.64 309.421 1015.95 299.884C1005.03 306.65 991.344 304.247 980.438 313.003C970.839 320.692 958.384 325.122 946.21 328.577C939.582 330.447 935.439 335.929 928.995 338.441C921.261 341.455 912.226 342.424 906.009 348.945C905.817 349.135 905.382 349.415 905.297 349.35C895.701 342.241 890.193 356.261 881.419 353.909C880.618 350.712 886.371 350.636 884.795 347.079C885.206 346.245 885.596 345.418 886.007 344.584L885.945 344.758C885.833 342.798 886.3 341.142 888.396 340.409L888.331 340.495C892.036 331.132 898.833 323.818 905.166 316.368C909.503 311.256 911.951 304.781 917.589 300.619C919.862 298.94 920.146 295.702 919.186 292.731C918.062 289.268 919.706 286.717 922.181 284.488C921.332 282.066 922.695 280.177 923.609 278.125C924.446 276.274 927.118 274.19 924.546 272.238C921.986 270.328 919.264 270.904 917.395 273.922C916.765 274.93 915.713 275.321 914.329 273.611C919.022 266.137 919.262 256.241 926.449 249.666C926.221 247.851 926.334 246.207 928.628 245.932C928.867 245.909 929.5 246.713 929.432 247.024C929.071 248.582 927.758 249.158 926.39 249.616C927.74 255.521 929.741 257.434 933.564 250.992C934.218 249.91 935.702 249.307 936.793 248.503C936.943 248.326 937.074 248.154 937.224 247.977C937.047 248.14 936.89 248.296 936.713 248.459C938.002 250.62 934.758 253.136 938.09 256.259C940.745 248.785 948.452 248.263 953.348 243.775L953.289 243.882C953.543 242.107 950.422 238.231 955.897 239.689C962.413 230.217 966.709 219.789 969.689 208.752C968.578 208.308 968.717 207.776 969.574 207.173L969.509 207.259C969.154 205.86 968.921 204.494 970.254 203.442L970.266 203.483C963.878 200.159 965.802 207.131 963.694 208.763C961.903 207.349 960.312 205.699 958.367 204.687C956.389 203.64 955.532 204.714 955.216 206.975C954.988 208.608 960.262 210.303 955.266 211.618C952.268 212.407 949.729 210.96 948.165 208.541C946.716 206.291 948.485 201.51 943.335 202.287C939.344 202.89 939.228 206.482 938.56 209.471C937.785 213.028 934.852 214.985 932.032 215.455C927.503 216.211 930.389 211.738 929.18 209.934C928.559 209.014 928.334 207.758 926.912 207.873C925.552 207.97 924.905 209.073 924.863 210.181C924.784 212.174 925.049 214.203 925.271 218.035C923.175 212.969 917.298 216.685 917.322 211.44C909.688 228.44 902.4 245.476 899.185 264.079C897.464 274.04 894.12 283.726 891.411 293.521C890.19 297.944 888.691 302.335 894.94 305.722C888.898 305.567 887.691 308.396 887.236 313.071C885.778 328.106 880.574 342.016 873.948 355.572C869.992 363.664 864.18 369.801 857.38 375.303C857.262 377.396 856.75 379.445 854.4 379.915C851.603 380.467 851.334 378.037 850.699 376.204C849.448 372.688 847.574 369.574 844.861 366.969C845.585 369.112 846.268 371.268 847.069 373.367C848.014 375.896 842.435 384.966 840.529 383.854C834.226 380.125 830.61 386.037 825.463 386.903C825.839 387.512 826.043 388.148 826.241 388.136C829.951 388.039 835.677 385.441 836.141 390.905C836.667 396.978 830.37 395.15 826.542 395.617C822.048 396.184 817.448 396.221 813.067 397.182C807.125 398.476 800.589 401.686 803.448 390.303C801.565 390.84 800.598 390.982 800.598 391.139C800.45 401.121 793.213 401.33 785.902 402.455C770.792 404.8 755.753 407.707 740.741 410.629C726.897 413.329 713.1 416.352 699.282 419.223C699.468 421.051 695.389 422.596 698.909 424.658C702.463 420.016 707.938 420.691 712.763 419.716C756.945 411.016 801.203 402.741 845.852 396.616ZM893.595 360.416C900.149 354.29 907.413 350.022 916.442 350.13C909.036 354.058 902.304 359.563 893.595 360.416ZM911.036 279.947C912.579 279.238 913.173 279.829 913.519 280.648C914.09 282.097 913.797 283.502 912.564 284.436C911.464 285.287 910.273 284.956 910.22 283.516C910.187 282.227 910.796 280.911 911.036 279.947Z" fill="#B9C9E0"/>
<path opacity="0.9" d="M739.903 741.63C737.645 737.014 741.196 729.15 732.182 728.232C731.077 728.122 731.946 726.464 732.957 725.772C735.035 724.35 737.808 722.931 732.549 722.15C725.788 721.126 730.087 716.898 731.787 716.189C738.572 713.378 741.067 704.718 749.534 704.74C748.361 700.867 745.233 701.357 743.229 700.139C742.093 699.455 739.853 699.133 741.236 697.394C745.248 692.398 744.95 691.588 738.274 692.666C735.407 693.127 734.564 688.688 736.578 686.099C738.39 683.745 740.12 681.886 736.256 680.348C734.086 679.49 731.594 677.269 729.256 679.974C727.254 682.292 726.521 685.053 728.383 687.812C731.856 692.999 731.38 697.836 726.839 702.469C726.688 702.646 726.552 702.797 726.401 702.974C726.558 702.818 726.735 702.655 726.898 702.519C725.71 700.082 726.496 695.94 723.135 695.534C718.988 695.04 719.156 698.216 719.794 701.391C720.034 702.621 718.189 703.215 717.326 702.544C713.867 699.838 710.169 702.797 706.677 701.936C706.562 701.297 706.287 700.727 706.402 700.268C707.056 697.776 712.176 696.112 709.066 693.374C706.016 690.686 701.924 693.13 699.039 695.253C696.413 697.189 694.693 700.568 697.693 703.315C701.033 706.391 701.226 707.926 697.175 710.515C695.605 711.523 690.411 714.73 697.216 717.712C698.218 718.164 694.39 726.623 692.988 731.434C691.628 736.075 686.921 739.502 684.062 743.206C678.705 750.153 676.875 759.967 679.082 770.126C674.187 768.502 671.077 769.055 671.118 775.938C671.141 781.506 664.002 783.701 662.163 788.861C661.503 790.706 656.637 792.633 662.745 794.739C665.597 795.715 662.824 799.641 660.846 800.631C654.609 803.711 652.317 808.933 650.641 815.21C648.127 824.591 639.953 830.373 634.811 838.154C634.155 839.148 632.733 838.479 631.784 837.743C628.617 848.677 618.539 855.629 615.207 866.453C615.57 867.335 615.94 868.236 616.309 869.138C629.06 857.281 638.876 842.904 648.248 828.541C655.474 817.478 665.227 810.484 675.831 803.963C698.244 790.197 719.465 775.16 733.763 752.339C734.824 750.648 736.308 749.261 736.01 747.041C735.868 744.193 736.876 742.159 739.889 741.5L739.903 741.63Z" fill="#B9C9E0"/>
<path opacity="0.9" d="M502.469 663.636C506.31 663.524 510.236 660.343 512.485 667.827C513.389 670.837 523.822 669.514 528.848 667.519C534.435 665.297 536.419 665.581 539.239 670.91C540.699 673.671 544.072 676.939 549.16 675.397C553.855 673.966 556.438 677.057 557.452 681.625C559.606 691.442 560.895 701.596 564.406 710.913C567.312 718.657 569.153 726.437 570.678 734.441C571.16 736.99 572.168 740.754 569.501 741.292C561.968 742.816 565.045 750.22 561.651 753.854C561.158 754.398 561.317 756.21 561.846 756.887C562.828 758.129 564.38 757.686 565.766 757.133C568.004 756.27 569.279 750.153 572.974 756.038C573.63 757.081 575.371 754.48 575.649 752.789C576.294 748.933 577.167 743.916 576.238 741.293C572.91 731.833 578.782 720.889 571.067 712.369C569.402 710.538 571.283 708.188 572.699 707.269C575.439 705.501 577.996 707.793 578.981 709.75C580.861 713.512 581.738 717.761 583.116 721.8C583.775 723.716 584.656 725.86 587.109 725.361C589.475 724.864 588.304 722.646 588.399 721.097C588.801 714.199 587.244 707.726 584.48 701.419C583.655 699.55 582.257 696.771 585.361 695.571C587.827 694.643 588.56 697.366 589.695 698.833C592.063 701.873 592.952 705.38 592.683 709.217C592.452 712.485 594.096 715.105 597.09 715.637C600.863 716.306 604.404 714.757 606.837 711.6C608.064 710.018 607.775 707.594 605.726 707.709C591.542 708.514 597.443 697.202 596.997 691.486C596.643 686.954 595.502 685.466 592.324 686.329C583.541 688.726 578.282 683.4 572.047 678.106C571.036 682.245 572.197 686.861 568.005 690.364C565.809 684.79 555.897 680.256 564.255 674.018C571.445 668.629 571.862 661.705 573.568 654.748C574.44 651.141 575.948 649.21 579.59 648.953C567.308 632.671 549.32 624.466 531.751 616.007C524.692 612.606 518.607 618.104 515.568 628.778C516.342 631.489 515.606 633.378 512.667 634.061C512.419 634.602 512.171 635.143 511.896 635.669C514.29 638.254 516.679 640.818 519.729 644.133C512.977 645.255 507.659 646.931 517.219 651.722C513.089 654.894 509.618 651.207 506.074 651.883L506.115 651.871C506.455 653.923 509.157 657.271 503.744 656.108C501.828 658.334 501.5 660.868 502.469 663.636Z" fill="#B9C9E0"/>
<path opacity="0.9" d="M722.57 861.737C717.479 862.564 712.66 866.067 705.802 863.526C712.371 860.822 718.818 860.279 720.244 852.417C720.835 849.159 738.097 845.885 741.958 847.492C743.403 848.086 745.26 848.631 745.538 847.096C745.934 844.878 748.598 842.685 746.144 840.207C741.015 835.023 744.637 832.421 749.175 830.208C754.736 827.5 760.353 824.911 765.568 820.914C760.684 822.309 755.803 823.792 750.884 825.063C748.575 825.678 745.814 827.451 744.176 824.068C742.695 820.999 745.232 819.379 747.056 817.694C748.723 816.166 750.743 815.007 752.345 813.408C754.775 810.945 753.611 808.121 752.638 805.422C751.403 802.036 748.78 802.65 746.259 803.46C740.532 805.275 734.776 806.829 728.68 806.018C726.845 805.781 725.083 806.038 724.474 807.98C723.743 810.36 725.57 810.645 727.338 811.035C729.511 811.512 729.866 813.067 729.118 814.915C727.302 819.373 727.766 822.644 733.211 823.842C734.716 824.173 735.366 825.667 735.307 827.183C735.207 829.809 732.969 830.045 731.142 830.701C719.86 834.774 709.073 840.34 696.21 838.17C692.003 837.469 689.369 845.407 683.699 843.266C679.785 841.787 677.659 844.923 674.886 845.559C666.257 847.553 664.704 856.302 658.895 861.117C656.027 858.131 659.214 855.497 657.769 853.335C654.594 854.913 652.796 857.71 651.075 860.619C651.243 867.869 637.86 874.535 629.636 871.287C628.341 871.612 627.052 871.958 625.737 872.289C626.727 875.364 627.738 878.433 628.728 881.508C629.399 881.899 630.091 882.283 630.762 882.674L630.64 882.641C649.168 877.529 666.491 883.954 684.021 888.282C691.172 890.046 698.264 892.072 705.735 891.976C704.783 883.942 709.951 884.011 715.447 884.837C720.117 885.518 722.734 887.077 722.042 879.013C721.596 873.925 719.82 867.313 722.51 861.687L722.57 861.737Z" fill="#B9C9E0"/>
<path opacity="0.9" d="M753.14 111.093C750.408 111.403 747.804 113.333 744.892 111.68C742.433 110.278 740.659 111.59 740.697 113.841C740.765 117.134 736.685 120.404 739.928 123.373C742.949 126.114 741.391 117.605 745.693 120.518C747.493 121.727 748.374 116.819 751.118 118.118C752.519 122.867 746.996 122.183 745.893 125.766C757.881 126.596 767.122 133.404 776.824 139.319C778.45 140.31 780.383 141.123 782.272 141.39C788.291 142.245 792.714 144.877 795.602 150.522C797.239 153.748 798.442 157.882 803.953 157.585C806.903 157.414 807.015 161.254 807.621 163.611C809.208 169.717 810.981 175.3 817.163 178.84C821.39 181.259 822.723 186.632 821.543 190.887C820.461 194.777 815.001 194.703 811.56 196.447C809.233 197.626 806.824 195.381 805.429 193.004C803.862 190.34 802.357 187.658 800.318 184.121C800.752 192.772 799.864 200.481 801.845 208.198C803.349 214.014 805.681 215.363 810.53 211.65C810.379 209.634 808.366 207.522 811.24 205.045C813.114 207.688 814.441 209.75 810.69 211.739C811.029 214.418 814.083 217.978 808.218 218.601C805.72 218.867 806.272 221.037 806.81 222.607C807.419 224.426 807.75 226.839 810.665 224.193C812.531 222.496 813.506 224.971 814.34 226.165C815.493 227.851 814.609 229.066 813.198 230.476C806.875 236.782 807.28 238.121 816.107 240.817C817.532 241.26 818.823 241.787 819.353 243.248C825.232 259.366 831.525 275.366 836.733 291.721C838.559 297.49 836.15 303.081 827.81 304.209C835.954 305.218 835.525 311.475 837.03 316.351C838.67 321.703 840.24 319.598 841.819 316.348C843.617 297.254 842.944 278.127 843.3 258.996C843.698 237.033 838.644 216.359 832.582 195.681C832.192 194.315 831.6 193.029 831.107 191.692C828.588 190.397 828.405 187.875 827.914 185.53C818.81 166.505 808.275 148.425 790.781 135.758C778.74 126.907 767.055 117.26 753.14 111.093Z" fill="#A7BCD9"/>
<path opacity="0.9" d="M700.906 567.854C693.163 574.834 683.791 576.346 674.872 572.155C673.09 571.321 671.103 570.948 669.253 570.268C665.767 568.957 663.97 570.03 665.344 573.668C667.62 579.756 670.493 586.368 676.465 588.938C682.082 591.364 687.604 587.973 692.654 584.18C711.592 569.929 724.56 551.07 731.863 529.15C739.728 505.591 738.721 481.768 725.83 459.437C722.067 452.922 722.139 444.395 715.443 439.367C711.381 441.132 715.07 445.586 712.797 447.578C706.686 452.905 709.193 457.137 713.807 461.617C716.97 464.698 714.516 466.921 711.853 468.175C706.593 470.684 702.079 467.339 702.322 461.136C702.556 454.98 701.971 449.64 694.231 448.873C693.849 459.056 694.295 469.316 691.944 479.345C690.708 484.578 695.539 491.303 700.978 491.54C702.291 491.591 703.733 490.529 704.957 492.307C704.481 496.987 695.523 498.068 699.18 504.68C701.258 508.429 704.608 505.033 707.191 505.145C707.463 508.918 705.196 509.521 703.102 510.499C696.087 513.757 694.609 519.552 695.69 526.63C696.063 529.031 697.496 529.271 699.238 529.177C702.058 529.02 704.863 528.577 707.69 528.442C715.444 528.085 719.689 531.977 721.196 541.957C721.947 546.936 718.372 548.763 713.805 548.992C712.126 549.069 710.89 550.698 711.369 551.904C715.46 562.31 706.467 564.05 700.864 568.023L700.906 567.854Z" fill="#B9C9E0"/>
<path opacity="0.9" d="M439.264 921.402C445.668 918.432 453.088 916.671 458.253 912.263C470.321 902.011 485.613 906.576 498.719 901.759C507.753 898.44 516.912 902.45 526.032 901.861C527.652 898.443 531.205 898.659 534.07 897.953C547.232 894.664 560.437 891.609 573.637 888.533C584.635 885.975 595.668 883.54 606.683 881.043C605.82 872.85 601.203 870.162 593.404 871.852C591.864 872.18 590.173 871.745 588.535 871.653C577.118 874.936 565.836 880.262 554.254 881.085C534.97 882.451 517.557 891.073 498.894 893.202C483.462 894.967 468.29 898.114 452.891 899.915C449.515 900.319 446.272 901.581 443.602 903.911C442.653 904.742 440.539 905.256 441.926 906.897C442.6 907.689 444.453 907.518 445.736 908.719C430.594 908.208 415.215 919.562 400.263 906.707C396.198 903.211 391.329 906.617 387.17 907.334C377.724 908.98 367.245 907.316 358.497 914.695C355.697 914.689 357.563 907.82 353.125 909.603C350.816 910.531 351.209 913.552 350.911 915.72C350.319 920.232 353.556 920.046 356.752 920.969C360.601 922.064 362.307 927.016 367.134 927.541C369.928 927.84 372.305 927.698 371.932 924.827C371.058 918.159 375.317 919.517 379.202 919.169C400.934 917.127 422.648 914.865 444.373 912.645C445.721 912.507 447.114 911.818 448.902 913.456C447.084 917.669 439.874 916.012 439.264 921.402ZM391.847 909.29C390.983 909.715 390.537 910.111 390.073 910.132C389.218 910.197 389.062 909.727 389.68 909.147C389.872 908.958 390.185 908.801 390.416 908.825C390.815 908.89 391.202 909.071 391.847 909.29Z" fill="#B9C9E0"/>
<path opacity="0.9" d="M857.475 524.93C858.214 526.421 858.574 528.467 859.786 529.262C865.158 532.788 868.947 536.026 860.554 540.415C859.014 541.213 858.928 542.872 859.983 543.981C863.43 547.586 868.347 547.637 872.521 547.206C876.367 546.802 876.908 542.819 875.812 539.214C875.634 539.064 875.457 538.913 875.279 538.762C875.442 538.939 875.605 539.117 875.788 539.288C878.517 538.576 880.16 535.555 883.566 535.724C883.643 538.03 882.324 540.78 885.212 542.193C886.454 542.779 887.935 543.655 889.097 543.412C890.829 543.052 890.12 541.195 890.294 539.847C891.04 533.679 888.131 528.197 887.221 522.345C884.496 505.124 882.88 487.632 878.813 470.727C875.651 457.616 872.296 444.538 869.595 431.318C868.965 428.252 868.034 425.227 865.436 423.103C862.795 441.521 855.253 458.293 848.038 475.196C845.655 480.801 844.035 486.883 845.081 493.211C848.232 496.094 852.69 494.62 856.155 496.563C858.57 497.888 859.407 495.88 859.185 494.242C857.737 483.53 865.583 481.848 873.039 479.742C873.258 479.097 871.771 477.887 873.684 477.767C873.444 478.417 873.205 479.067 872.98 479.691C873.846 483.272 875.176 486.362 877.967 489.237C881.136 492.495 883.353 496.81 877.653 500.519C872.704 503.724 875.713 507.521 878.273 509.588C884.268 514.435 883.869 519.855 881.205 525.966C879.392 526.439 879.528 525.034 879.505 524.011C879.452 521.474 879.825 517.92 877.09 517.515C874.917 517.195 872.537 519.129 870.604 521.763C867.694 525.683 861.797 523.293 857.475 524.93C857.475 524.93 857.46 524.957 857.475 524.93Z" fill="#B9C9E0"/>
<path opacity="0.9" d="M917.301 211.445C917.277 216.691 923.155 212.975 925.25 218.04C925.029 214.208 924.769 212.201 924.843 210.187C924.884 209.078 925.532 207.976 926.892 207.878C928.299 207.79 928.538 209.02 929.159 209.939C930.368 211.743 927.482 216.216 932.012 215.46C934.811 214.997 937.759 213.013 938.539 209.477C939.202 206.467 939.323 202.895 943.314 202.293C948.464 201.516 946.675 206.303 948.144 208.547C949.708 210.966 952.247 212.412 955.245 211.623C960.241 210.308 954.967 208.613 955.195 206.981C955.512 204.719 956.354 203.673 958.347 204.693C960.292 205.705 961.882 207.355 963.674 208.768C965.755 207.122 963.851 200.144 970.246 203.489C974.346 198.489 976.12 192.946 974.589 186.488C972.349 177.076 970.301 167.632 968.004 158.259C965.817 149.347 965.001 149.154 958.246 155.673C956.824 157.042 955.603 158.644 954.284 160.14C959.124 162.743 958.582 168.136 960.078 172.275C960.965 174.753 959.605 178.455 955.055 178.277C948.983 178.019 943.661 179.135 939.768 184.859C938.035 187.413 934.644 186.434 932.516 183.841C932.037 184.515 931.558 185.189 931.1 185.857C930.68 186.581 930.266 187.326 929.826 188.057C929.429 188.707 929.033 189.357 928.643 190.029C928.794 191.105 928.321 191.8 927.298 192.136C922.26 197.694 920.82 205.113 917.301 211.445Z" fill="#A7BCD9"/>
<path opacity="0.9" d="M805.841 319.683C811.127 311.704 810.53 309.927 801.49 305.86C799.051 304.765 798.353 303.107 798.439 299.881C798.602 294.103 798.514 287.054 789.146 288.185C788.646 288.238 787.644 287.942 787.605 287.73C786.778 281.071 780.904 278.137 777.123 273.754C774.064 270.173 772.131 266.539 771.143 261.829C770.289 257.819 766.422 259.64 764.037 260.769C759.898 262.734 763.037 265.576 764.43 266.768C768.769 270.521 770.569 273.611 764.045 276.706C774.849 294.082 790.504 306.736 805.841 319.683ZM767.56 263.859C767.179 264.013 766.792 264.146 766.41 264.3C766.555 264.102 766.644 263.785 766.845 263.705C767.025 263.631 767.318 263.794 767.56 263.859Z" fill="#A7BCD9"/>
<path opacity="0.9" d="M694.199 448.837C701.959 449.599 702.529 454.965 702.289 461.1C702.047 467.304 706.561 470.649 711.82 468.139C714.478 466.865 716.932 464.642 713.774 461.581C709.16 457.101 706.653 452.87 712.764 447.542C715.038 445.55 711.349 441.096 715.411 439.332C714.929 438.35 714.468 437.363 714.007 436.375C713.566 435.852 713.126 435.328 712.685 434.805C709.366 429.686 702.679 429.156 698.889 424.664C695.368 422.602 699.448 421.056 699.262 419.229C694.611 421.206 690.789 416.992 686.325 417.506C686.062 418.544 685.814 419.555 685.571 420.587C685.178 420.386 684.785 420.185 684.386 419.963C685.075 419.162 685.763 418.361 686.452 417.559C684.158 415.327 681.817 412.615 680.88 418.502C680.528 420.639 680.055 422.745 679.635 424.879C680.607 425.855 681.606 426.846 682.6 427.816C694.043 427.995 692.349 437.187 693.856 444.189C694.137 444.624 694.172 445.062 693.927 445.535C694.027 446.67 694.11 447.743 694.199 448.837Z" fill="#A7BCD9"/>
<path opacity="0.9" d="M203.536 955.57C205.505 959.642 202.64 964.423 205.383 968.385C223.068 960.402 240.747 952.398 258.431 944.415C260.016 943.693 261.849 943.058 261.098 940.899C260.203 938.312 258.015 938.489 255.57 938.314C239.914 937.256 227.036 945.143 213.549 951.054C210.188 952.529 206.865 954.06 203.536 955.57Z" fill="#B9C9E0"/>
<path opacity="0.9" d="M936.76 248.468C935.654 249.298 934.164 249.881 933.532 250.957C929.73 257.393 927.708 255.486 926.357 249.581L926.437 249.625C919.25 256.2 919.01 266.096 914.318 273.57C915.701 275.279 916.754 274.889 917.383 273.881C919.252 270.862 921.975 270.286 924.535 272.197C927.127 274.143 924.428 276.212 923.597 278.083C922.683 280.135 921.321 282.024 922.169 284.446C923.337 284.851 924.531 285.272 925.699 285.677C926.444 285.464 927.168 285.257 927.919 285.065C928.353 284.784 928.729 284.453 929.039 284.051C929.421 283.427 929.808 282.824 930.189 282.2L930.284 282.061C930.754 281.435 931.203 280.814 931.673 280.187L931.688 280.16C932.126 279.498 932.563 278.836 933.001 278.174L933.031 278.121C933.489 277.452 933.968 276.778 934.426 276.11C941.817 265.94 949.752 256.107 953.316 243.74C948.42 248.227 940.713 248.749 938.057 256.223C934.726 253.101 937.969 250.585 936.68 248.423L936.76 248.468Z" fill="#A7BCD9"/>
<path opacity="0.9" d="M618.67 735.085C614.023 736.524 610.727 732.898 606.763 731.792C604.501 731.162 602.387 730.265 600.646 732.554C599.094 734.564 600.327 736.137 601.485 737.843C603.495 740.806 605.024 743.101 602.821 747.536C599.923 753.378 607.021 754.642 610.226 757.555C612.251 759.394 618.474 758.691 614.296 764.362C614.131 764.566 615.402 766.352 616.286 766.704C620.143 768.221 619.981 763.029 622.766 762.592C622.991 753.192 622.052 743.947 618.67 735.085Z" fill="#B9C9E0"/>
<path opacity="0.9" d="M855.78 836.162C847.952 841.04 840.957 847.582 831.142 848.482C827.056 859.723 821.247 853.726 815.663 850.082C815.53 850.008 815.163 850.292 814.01 850.8C824.224 862.972 810.086 867.86 806.414 876.162C817.613 874.621 825.764 867.816 833.722 860.573C839.283 855.515 844.903 850.507 850.66 845.662C853.714 843.11 854.988 839.814 855.78 836.162Z" fill="#B9C9E0"/>
<path opacity="0.9" d="M844.834 366.954C847.548 369.559 849.422 372.673 850.672 376.189C851.302 378.001 851.597 380.447 854.373 379.9C856.723 379.43 857.214 377.387 857.353 375.288C852.7 376.55 854.037 372.295 852.819 370.382C852.213 368.652 851.607 366.923 851.001 365.193C848.548 357.073 846.115 348.947 843.668 340.848C836.96 339.07 839.725 331.43 835.66 327.935C833.94 326.456 834.123 322.24 830.511 323.697C826.996 325.104 827.725 328.522 828.917 331.047C831.775 337.216 834.663 343.331 835.901 350.096C836.667 351.601 837.459 353.121 838.225 354.626C838.618 355.141 839.032 355.649 839.445 356.158C841.231 359.745 843.043 363.346 844.834 366.954Z" fill="#A7BCD9"/>
<path opacity="0.9" d="M932.457 183.791C934.606 186.378 937.976 187.363 939.709 184.809C943.602 179.085 948.924 177.968 954.996 178.227C959.551 178.426 960.906 174.703 960.019 172.225C958.544 168.08 959.065 162.692 954.225 160.09C944.91 166.108 937.652 174.002 932.457 183.791Z" fill="#B9C9E0"/>
<path opacity="0.9" d="M358.586 908.11C361.261 909.092 364.179 910.61 365.45 906.441C368.431 896.657 373.812 887.755 375.805 877.649C376.337 874.968 378.034 871.036 375.066 869.891C370.892 868.285 371.545 873.314 370.569 875.384C365.617 885.865 361.924 896.837 358.586 908.11Z" fill="#A7BCD9"/>
<path opacity="0.9" d="M623.7 769.623C620.678 771.427 614.84 768.303 614.296 772.667C613.823 776.496 613.403 779.415 607.203 782.864C616.208 781.949 618.135 784.936 617.334 790.515C616.816 794.11 620.101 795.03 622.498 796.45C625.138 787.592 624.678 778.612 623.7 769.623Z" fill="#B9C9E0"/>
<path opacity="0.9" d="M682.591 427.863C681.598 426.893 680.619 425.897 679.626 424.927C663.561 428.709 663.561 428.709 655.127 422.767C652.646 440.803 633.818 433.106 625.528 442.638C644.679 438.221 662.512 428.404 682.591 427.863Z" fill="#B9C9E0"/>
<path opacity="0.9" d="M866.674 781.517C864.223 784.456 864.09 788.77 859.978 791.377C872.989 786.698 868.808 799.018 872.846 802.813C874.777 796.642 869.293 791.627 869.961 785.66C871.617 785.344 871.966 786.408 872.427 787.396C873.541 789.809 873.325 793.833 877.065 793.526C879.998 793.293 880.885 789.973 880.326 787.468C879.507 783.896 877.902 780.236 873.347 780.193C871.112 780.205 868.895 781.062 866.674 781.517Z" fill="#B9C9E0"/>
<path opacity="0.9" d="M506.036 651.827C509.58 651.15 513.051 654.838 517.181 651.666C507.641 646.869 512.939 645.199 519.691 644.077C516.646 640.782 514.252 638.198 511.857 635.613C509.61 640.911 504.546 645.201 506.036 651.827Z" fill="#A7BCD9"/>
<path opacity="0.9" d="M917.354 678.325C910.702 676.979 907.574 684.678 901.381 684.544C903.559 687.548 906.178 691.233 910.051 689.746C914.713 687.967 917.014 683.482 917.354 678.325Z" fill="#B9C9E0"/>
<path opacity="0.9" d="M773.055 393.52C771.219 394.537 769.161 395.483 767.322 396.725C766.403 397.345 766.051 398.699 766.955 399.672C767.411 400.169 768.67 400.66 769.043 400.397C773.176 397.471 778.494 399.556 782.701 397.123C784.14 396.287 785.991 395.557 785.228 393.514C784.593 391.837 782.884 392.594 781.536 392.732C778.793 393.001 776.023 393.255 773.055 393.52Z" fill="#B9C9E0"/>
<path opacity="0.9" d="M629.642 871.308C637.866 874.555 651.249 867.89 651.081 860.64C643.856 864.024 637.594 869.372 629.642 871.308Z" fill="#A7BCD9"/>
<path opacity="0.9" d="M608.588 698.922C611.594 709.368 614.58 719.821 617.586 730.268C617.001 719.13 613.995 708.683 608.588 698.922Z" fill="#B9C9E0"/>
<path opacity="0.9" d="M872.852 802.834C869.753 804.054 869.727 806.703 869.78 809.397C872.544 808.026 874.067 806.068 872.852 802.834Z" fill="#B9C9E0"/>
<path opacity="0.9" d="M503.706 656.052C509.119 657.215 506.411 653.847 506.077 651.815C503.99 652.501 503.632 654.148 503.706 656.052Z" fill="#A7BCD9"/>
<path opacity="0.9" d="M955.849 239.68C950.38 238.243 953.496 242.099 953.242 243.873C954.12 242.48 954.971 241.073 955.849 239.68Z" fill="#A7BCD9"/>
<path opacity="0.9" d="M739.892 741.432C736.9 742.085 735.898 744.14 736.013 746.972C737.736 745.406 739.557 743.945 739.892 741.432Z" fill="#A7BCD9"/>
<path opacity="0.9" d="M344.75 914.367C344.809 915.358 344.848 916.354 344.907 917.345C345.406 917.292 346.34 917.271 346.343 917.203C346.4 916.224 346.326 915.26 346.273 914.291C345.877 914.314 345.454 914.323 344.75 914.367Z" fill="#B9C9E0"/>
<path opacity="0.9" d="M512.629 634.005C515.568 633.322 516.304 631.433 515.529 628.721C513.203 629.744 512.812 631.825 512.629 634.005Z" fill="#A7BCD9"/>
<path opacity="0.9" d="M828.012 185.48C828.502 187.824 828.686 190.346 831.204 191.642C830.811 189.247 830.69 186.707 828.012 185.48Z" fill="#B9C9E0"/>
<path opacity="0.9" d="M851.022 365.187C851.628 366.917 852.234 368.646 852.84 370.376C853.679 368.144 853.177 366.385 851.022 365.187Z" fill="#B9C9E0"/>
<path opacity="0.9" d="M970.207 203.433C968.88 204.506 969.113 205.872 969.462 207.25C970.627 206.156 971.339 204.967 970.207 203.433Z" fill="#A7BCD9"/>
<path opacity="0.9" d="M927.867 662.473C927.282 663.401 926.682 664.356 926.096 665.284C927.226 664.693 928.296 664.052 927.867 662.473Z" fill="#B9C9E0"/>
<path opacity="0.9" d="M624.06 934.129C625.553 933.636 626.555 932.834 626.02 931.04C625.355 932.08 624.71 933.115 624.06 934.129Z" fill="#B9C9E0"/>
<path opacity="0.9" d="M929.766 188.007C930.186 187.282 930.621 186.531 931.041 185.807C930.606 186.558 930.186 187.282 929.766 188.007Z" fill="#B9C9E0"/>
<path opacity="0.9" d="M927.218 192.092C928.241 191.755 928.714 191.061 928.563 189.984C928.137 190.688 927.691 191.398 927.218 192.092Z" fill="#B9C9E0"/>
<path opacity="0.9" d="M623.842 767.299C623.777 768.012 623.712 768.725 623.647 769.437C623.712 768.725 623.777 768.012 623.842 767.299Z" fill="#B9C9E0"/>
<path opacity="0.9" d="M969.527 207.164C968.69 207.761 968.551 208.293 969.642 208.743C969.911 208.196 969.873 207.67 969.527 207.164Z" fill="#A7BCD9"/>
<path opacity="0.9" d="M934.411 276.137C933.953 276.805 933.474 277.479 933.016 278.147C933.495 277.473 933.953 276.805 934.411 276.137Z" fill="#B9C9E0"/>
<path opacity="0.9" d="M700.846 567.961C700.705 567.778 700.536 567.579 700.394 567.396C700.572 567.547 700.749 567.698 700.906 567.854C700.906 567.854 700.846 567.961 700.846 567.961Z" fill="#B9C9E0"/>
<path opacity="0.9" d="M933.007 278.194C932.569 278.857 932.132 279.519 931.694 280.181C932.132 279.519 932.569 278.857 933.007 278.194Z" fill="#B9C9E0"/>
<path opacity="0.9" d="M693.918 445.582C694.164 445.109 694.128 444.671 693.847 444.237L693.531 444.931L693.918 445.582Z" fill="#B9C9E0"/>
<path opacity="0.9" d="M931.674 280.187C931.203 280.814 930.754 281.435 930.284 282.061C930.754 281.435 931.203 280.814 931.674 280.187Z" fill="#B9C9E0"/>
<path opacity="0.9" d="M712.691 434.825C713.132 435.349 713.572 435.872 714.012 436.396C713.572 435.872 713.132 435.349 712.691 434.825Z" fill="#B9C9E0"/>
<path opacity="0.9" d="M930.189 282.2C929.808 282.824 929.421 283.427 929.039 284.051C929.427 283.448 929.808 282.824 930.189 282.2Z" fill="#B9C9E0"/>
<path opacity="0.9" d="M927.925 285.086C927.18 285.299 926.45 285.485 925.705 285.698C926.769 286.603 927.481 286.354 927.925 285.086Z" fill="#B9C9E0"/>
<path opacity="0.9" d="M920.018 674.251C919.518 674.931 919.039 675.606 918.566 676.3C919.039 675.606 919.539 674.926 920.018 674.251Z" fill="#B9C9E0"/>
<path opacity="0.9" d="M922.743 670.316C921.644 670.541 921.159 671.194 921.274 672.303C921.759 671.65 922.264 670.991 922.743 670.316Z" fill="#B9C9E0"/>
<path opacity="0.9" d="M925.44 666.905C925.127 667.218 924.92 667.59 924.834 667.996C925.632 667.969 925.872 667.632 925.44 666.905Z" fill="#B9C9E0"/>
<path opacity="0.9" d="M839.44 356.137C839.026 355.629 838.633 355.114 838.219 354.605C838.633 355.114 839.026 355.629 839.44 356.137Z" fill="#B9C9E0"/>
<path opacity="0.9" d="M869.73 809.456C869.399 810.178 869.073 810.92 868.742 811.641C869.067 810.899 869.399 810.178 869.73 809.456Z" fill="#B9C9E0"/>
<path opacity="0.9" d="M866.99 383.483C865.811 383.82 864.631 384.157 863.472 384.488C857.704 388.351 864.25 388.385 865.057 388.311C874.644 387.319 884.009 389.234 893.487 389.818C898.474 390.117 903.322 391.262 908.277 391.37C909.028 391.648 909.758 391.932 910.503 392.189L910.683 392.115C915.014 391.057 919.585 388.565 923.614 389.273C930.591 390.504 935.147 388.352 938.987 383.069C925.137 383.085 911.272 383.597 897.558 380.954C891.696 380.726 885.828 380.476 879.966 380.248C875.64 381.326 871.315 382.405 866.99 383.483Z" fill="#E1E6F1"/>
<path opacity="0.9" d="M888.218 464.393C885.108 461.027 884.552 456.888 880.207 454.054C883.044 463.833 881.477 473.549 884.616 482.659C885.402 484.942 885.343 488.339 889.358 485.625C892.243 483.659 892.491 486.409 893.283 488.086C894.578 490.895 895.92 493.713 897.235 496.516C897.971 498.075 898.128 500.895 900.877 498.454C903.272 496.337 907.922 495.143 905.212 490.433C903.882 488.126 902.259 485.344 898.815 486.529C898.262 486.709 898.398 488.909 898.155 490.567C893.866 484.562 891.563 478.302 890.429 471.507C894.044 471.235 892.341 480.005 896.684 476.011C900.935 472.088 899.537 465.391 896.702 461.186C894.488 457.9 890.604 455.741 889.442 451.282C888.801 448.802 885.975 447.84 883.882 449.132C881.348 450.684 883.935 452.452 884.57 454.129C885.874 457.518 887.018 460.974 888.218 464.393Z" fill="#B9C9E0"/>
<path opacity="0.9" d="M938.987 383.069C935.167 388.346 930.591 390.504 923.614 389.273C919.605 388.559 915.014 391.057 910.683 392.115C919.306 398.876 929.955 399.483 940.089 401.111C942.389 401.484 945.576 397.753 948.03 395.53C950.001 393.736 948.358 392.526 946.572 392.074C943.938 391.393 940.988 393.288 938.138 390.99C941.438 387.966 945.44 386.308 950.404 384.174C946.056 381.408 942.609 381.408 938.987 383.069Z" fill="#B9C9E0"/>
<path opacity="0.9" d="M896.846 588.099C895.935 586.165 896.255 582.738 892.778 582.791C889.145 582.844 889.071 585.484 889.706 588.258C890.291 590.777 889.316 591.75 886.646 591.885C881.171 592.15 878.927 596.754 879.823 600.595C880.937 605.358 886.232 602.66 889.309 602.385C895.973 601.736 899 595.409 896.846 588.099Z" fill="#B9C9E0"/>
<path opacity="0.9" d="M855.337 523.795C854.678 521.408 856.985 515.534 850.64 519.808L850.67 519.755C852.546 526.718 850.092 533.956 851.372 541.65C858.113 536.098 853.652 529.335 855.361 523.721L855.337 523.795Z" fill="#B9C9E0"/>
<path opacity="0.9" d="M874.516 550.509C871.589 551.86 870.983 554.204 872.106 556.883C873.094 559.243 874.654 562.2 877.516 561.249C880.993 560.099 879.615 556.373 879.456 553.777C879.32 551.107 877.141 550.14 874.516 550.509Z" fill="#B9C9E0"/>
<path opacity="0.9" d="M888.405 340.362C886.309 341.095 885.857 342.724 885.954 344.711C887.944 343.919 889.747 343.023 888.405 340.362Z" fill="#E1E6F1"/>
<path opacity="0.9" d="M844.408 520.245C844.577 520.129 844.76 519.987 844.929 519.872C844.781 519.668 844.689 519.426 844.497 519.302C844.417 519.257 844.16 519.532 843.992 519.647C844.119 519.857 844.266 520.061 844.408 520.245Z" fill="#B9C9E0"/>
<path opacity="0.9" d="M850.661 519.802C850.011 519.562 849.354 519.302 848.704 519.063C848.725 521.094 850.011 519.562 850.696 519.77C850.691 519.749 850.661 519.802 850.661 519.802Z" fill="#B9C9E0"/>
<path opacity="0.9" d="M886.037 344.531C885.626 345.364 885.236 346.192 884.825 347.026C885.215 346.198 885.626 345.364 886.037 344.531Z" fill="#E1E6F1"/>
<path opacity="0.9" d="M855.367 523.741C856.065 524.146 856.777 524.525 857.475 524.93L857.46 524.957C856.748 524.578 856.05 524.173 855.337 523.795L855.367 523.741Z" fill="#B9C9E0"/>
<path opacity="0.9" d="M910.524 392.183C909.773 391.905 909.043 391.621 908.298 391.364C909.022 391.627 909.773 391.905 910.524 392.183Z" fill="#B9C9E0"/>
<path opacity="0.9" d="M567.626 904.085C563.061 911.142 557.158 914.53 548.292 912.719C542.066 911.452 537.034 915.464 531.609 919.117C535.127 922.187 538.222 918.527 541.779 919.459C529.099 933.289 513.043 942.352 497.944 952.887C505.589 950.345 512.522 946.642 519.626 943.382C523.351 941.691 527.141 939.601 530.674 937.473C536.522 933.967 540.912 932.176 544.787 939.71C546.602 943.244 548.66 942.925 551.746 939.783C556.808 934.621 562.188 929.793 568.952 926.362C573.236 924.198 576.009 919.175 577.127 913.998C578.458 907.842 580.329 902.562 588.456 905.86C590.076 906.516 591.424 905.437 591.986 904.27C593.127 901.839 589.172 901.939 589.402 899.769C582.236 901.636 575.168 904.08 567.626 904.085Z" fill="#B9C9E0"/>
<path opacity="0.9" d="M567.626 904.085C575.174 904.101 582.216 901.642 589.376 899.754C595.59 893.927 604.929 890.969 606.656 881.029C595.641 883.525 584.614 885.981 573.611 888.519C560.411 891.594 547.184 894.655 534.043 897.938C531.179 898.644 527.646 898.422 526.005 901.846C539.911 902.575 553.782 903.338 567.626 904.085Z" fill="#E1E6F1"/>
<path opacity="0.9" d="M593.319 763.323C591.682 754.299 601.124 747.707 595.156 738.957C593.542 736.597 593.232 733.552 589.288 734.79C585.303 736.04 585.876 738.831 587.121 741.543C590.118 748.119 586.31 756.415 593.319 763.323Z" fill="#B9C9E0"/>
<path opacity="0.9" d="M543.679 680.342C543.244 680.153 542.824 679.937 542.39 679.748C542.281 680.227 542.124 680.697 542.082 681.179C542.085 681.268 542.7 681.54 542.792 681.469C543.132 681.17 543.389 680.739 543.679 680.342Z" fill="#B9C9E0"/>
<path opacity="0.9" d="M630.788 882.688C630.117 882.298 629.426 881.914 628.755 881.523L628.763 881.476C628.979 881.996 629.071 882.552 629.074 883.111C629.638 882.972 630.203 882.833 630.788 882.688Z" fill="#E1E6F1"/>
<path opacity="0.9" d="M629.053 883.117C629.05 882.558 628.959 882.002 628.743 881.482C627.812 882.218 628.048 882.732 629.053 883.117Z" fill="#B9C9E0"/>
<path opacity="0.9" d="M721.136 814.396C714.079 813.591 710.118 815.707 706.032 816.919C704.631 817.341 703.543 818.391 704.157 820.073C704.766 821.735 706.295 821.992 707.616 821.369C711.457 819.533 715.19 817.482 721.136 814.396Z" fill="#B9C9E0"/>
<path opacity="0.9" d="M722.516 861.708C724.42 861.164 726.43 860.836 728.216 860.035C729.966 859.267 733.768 859.726 732.195 856.257C731.078 853.755 728.181 854.583 726.182 855.736C723.968 856.995 721.801 858.576 722.549 861.743C722.57 861.737 722.516 861.708 722.516 861.708Z" fill="#B9C9E0"/>
<path opacity="0.9" d="M699.818 658.719C696.59 659.484 692.43 660.515 689.687 664.231C688.832 665.393 688.262 666.765 688.983 668.193C689.861 669.935 691.064 669.211 692.513 668.797C701.745 666.093 704.799 668.086 707.713 677.507C708.674 680.636 709.17 685.195 713.696 685.29C717.684 685.383 719.565 682.719 719.825 678.458C719.952 676.474 722.548 674.748 723.095 672.667C723.595 670.733 728.765 669.637 724.562 666.83C719.306 663.317 721.138 668.793 720.1 670.567C719.343 671.835 718.468 673.003 716.828 672.822C714.469 672.556 714.699 670.699 714.637 668.993C714.038 655.06 713.642 654.771 699.818 658.719Z" fill="#B9C9E0"/>
<path opacity="0.9" d="M685.303 664.476C685.199 662.625 684.221 661.002 682.284 661.353C680.499 661.684 679.526 663.529 679.94 665.291C680.442 667.364 682.92 669.925 680.682 671.415C675.197 675.018 675.842 677.588 680.761 681.018C681.793 681.731 680.814 685.279 684.024 684.138C685.774 683.527 686.44 681.859 686.41 680.032C686.316 674.843 686.612 669.609 685.303 664.476Z" fill="#B9C9E0"/>
<path opacity="0.9" d="M685.354 693.654C683.113 697.562 680.869 701.225 678.891 705.036C677.753 707.242 676.23 709.982 678.829 711.949C681.909 714.27 684.309 711.391 685.956 709.555C690.539 704.441 691.92 699.009 685.354 693.654Z" fill="#B9C9E0"/>
<path opacity="0.9" d="M721.491 658.663C722.132 660.674 723.045 662.383 725.605 661.786C728.041 661.225 728.707 659.557 727.959 657.331C727.27 655.311 725.931 653.835 723.628 654.157C720.837 654.574 721.041 656.62 721.491 658.663Z" fill="#B9C9E0"/>
<path opacity="0.9" d="M721.985 689.236C722.296 689.618 722.6 690.292 722.946 690.327C723.292 690.363 723.984 689.807 724.013 689.441C724.049 689.095 723.493 688.403 723.127 688.373C722.781 688.337 722.367 688.926 721.985 689.236Z" fill="#B9C9E0"/>
<path opacity="0.9" d="M738.69 716.456C739 716.837 739.272 717.476 739.618 717.512C739.964 717.547 740.614 717.003 740.65 716.657C740.685 716.311 740.141 715.661 739.795 715.625C739.449 715.59 739.05 716.151 738.69 716.456Z" fill="#B9C9E0"/>
<path opacity="0.9" d="M893.595 360.416C902.298 359.542 909.009 354.043 916.442 350.13C907.419 350.043 900.155 354.311 893.595 360.416Z" fill="#A7BCD9"/>
<path opacity="0.9" d="M866.99 383.483C871.315 382.404 875.641 381.326 879.966 380.247C882.7 378.146 890.005 379.507 888.069 374.687C886.287 370.249 882.151 375.751 879.218 376.924C874.946 378.659 868.723 377.011 866.99 383.483Z" fill="#A7BCD9"/>
<path opacity="0.9" d="M911.036 279.947C910.796 280.911 910.187 282.227 910.226 283.537C910.279 284.977 911.449 285.314 912.57 284.457C913.797 283.502 914.095 282.118 913.525 280.669C913.173 279.829 912.558 279.244 911.036 279.947Z" fill="#A7BCD9"/>
<path opacity="0.9" d="M926.363 249.601C927.726 249.123 929.038 248.546 929.405 247.009C929.473 246.698 928.84 245.894 928.601 245.918C926.307 246.192 926.194 247.836 926.422 249.652L926.363 249.601Z" fill="#A7BCD9"/>
<path opacity="0.9" d="M936.686 248.444C936.864 248.281 937.02 248.125 937.198 247.962C937.047 248.14 936.917 248.311 936.766 248.488C936.76 248.468 936.686 248.444 936.686 248.444Z" fill="#A7BCD9"/>
<path opacity="0.9" d="M726.892 702.499C726.736 702.655 726.559 702.818 726.396 702.953C726.547 702.776 726.683 702.626 726.833 702.448C726.818 702.475 726.892 702.499 726.892 702.499Z" fill="#A7BCD9"/>
<path opacity="0.9" d="M810.746 211.7C814.497 209.711 813.17 207.65 811.296 205.006C808.422 207.483 810.429 209.574 810.586 211.611L810.746 211.7Z" fill="#B9C9E0"/>
<path opacity="0.9" d="M516.615 476.72C511.896 477.911 506.992 478.685 503.172 482.081C508.221 481.736 512.792 480.185 516.615 476.72Z" fill="#E1E6F1"/>
<path opacity="0.9" d="M391.847 909.289C391.202 909.071 390.809 908.869 390.422 908.846C390.191 908.822 389.878 908.979 389.686 909.168C389.053 909.774 389.225 910.217 390.079 910.153C390.537 910.111 390.989 909.736 391.847 909.289Z" fill="#E1E6F1"/>
<path opacity="0.9" d="M872.953 479.676C873.193 479.026 873.433 478.375 873.657 477.752C871.739 477.852 873.246 479.055 873.013 479.727C873.027 479.7 872.953 479.676 872.953 479.676Z" fill="#A7BCD9"/>
<path opacity="0.9" d="M875.761 539.274C875.599 539.096 875.436 538.919 875.253 538.747C875.43 538.898 875.608 539.049 875.785 539.2C875.812 539.214 875.761 539.274 875.761 539.274Z" fill="#A7BCD9"/>
<path opacity="0.9" d="M767.561 263.859C767.318 263.794 767.025 263.632 766.824 263.711C766.644 263.785 766.529 264.087 766.39 264.306C766.792 264.146 767.179 264.013 767.561 263.859Z" fill="#B9C9E0"/>
<path opacity="0.9" d="M686.443 417.607C685.754 418.408 685.066 419.209 684.377 420.01C684.77 420.211 685.163 420.412 685.562 420.634C685.805 419.602 686.074 418.585 686.316 417.553C686.331 417.527 686.443 417.607 686.443 417.607Z" fill="#E1E6F1"/>
</g>
<g clip-path="url(#clip1)">
<path opacity="0.9" d="M489.53 381.001C485.444 381.589 480.376 380.578 479.851 386.959C479.775 387.985 479.206 389.135 478.154 388.747C470.348 385.792 469.167 392.495 466.251 396.727C463.559 397.696 461.952 399.864 460.576 402.151C454.656 412.039 448.243 421.576 441.98 431.219C433.913 443.656 427.649 457.262 420.572 470.334C418.164 474.77 414.285 478.362 413.134 483.533C412.877 484.656 411.784 485.973 413.085 486.74C413.951 487.264 415.405 486.992 416.555 486.863C419.293 486.557 418.998 483.961 419.714 482.128C422.501 482.959 422.98 485.866 424.957 487.202L424.944 487.126C423.029 489.727 422.345 493.068 425.323 494.485C428.546 496.032 432.525 497.372 436.319 495.452C437.493 494.845 437.884 493.502 436.872 492.423C431.369 486.511 435.32 484.973 440.655 483.674C441.844 483.393 442.711 481.825 443.743 480.847C444.419 480.719 445.099 480.617 445.775 480.489C445.541 485.478 440.046 489.634 443.895 496.037C447.107 490.215 447.198 483.684 450.673 478.633C451.272 478.676 451.872 480.272 452.476 478.63C451.885 478.638 451.283 478.661 450.692 478.669C446.803 473.431 447.006 478.82 445.784 480.54C445.103 480.643 444.427 480.77 443.747 480.872C440.747 478.314 435.311 478.551 434.106 474.543C433.298 471.876 431.933 469.646 430.095 469.286C427.781 468.836 427.072 471.799 426.31 473.824C425.99 474.655 425.711 475.807 424.388 474.913C423.991 469.228 425.197 464.772 431.393 462.577C434.038 461.642 437.525 459.458 434.465 455.462C430.935 450.861 433.942 448.021 437.415 446.301C440.464 444.797 442.41 442.69 444.133 440.042L444.067 440.04C449.465 443.851 455.297 447.43 451.092 455.632C450.449 456.886 450.542 458.753 452.871 458.358C456.212 457.805 459.389 460.241 462.727 458.807C458.39 489.764 445.465 517.187 428.478 543.008C414.338 564.503 396.61 581.763 372.518 591.756C369.234 593.115 366.988 596.405 363.15 596.673C358.132 595.023 357.801 587.945 352.07 587.139C351.932 586.478 351.809 585.827 351.681 585.151C351.487 584.473 351.278 583.785 351.095 583.092C350.935 582.461 350.786 581.815 350.627 581.184C351.034 580.325 350.84 579.647 350.009 579.169C349.672 578.344 349.324 577.535 348.987 576.71C349.028 576.334 348.957 575.991 348.809 575.661C348.778 575.166 348.747 574.671 348.741 574.172C348.534 573.259 348.322 572.321 348.115 571.408C341.573 540.65 348.432 512.386 363.667 485.545C382.308 452.704 406.678 425.395 439.449 406.034C452.168 398.521 461.87 386.794 475.344 380.246C476.998 379.44 481.494 375.835 475.951 374.194C456.844 368.481 437.207 365.925 417.262 367.225C413.563 367.457 408.667 367.695 409.592 374.159C409.87 376.112 407.193 376.395 405.621 376.517C392.498 377.529 380.276 382.536 367.381 384.655C329.788 390.868 294.534 385.483 261.927 365.117C256.302 361.595 251.624 357.057 247.692 351.721C247.687 349.287 245.847 347.98 244.554 346.251C242.442 343.423 239.024 340.185 239.206 337.298C239.672 329.098 237.024 319.293 247.217 314.354C247.487 314.005 247.821 313.725 248.235 313.523C251.487 314.617 252.406 311.961 253.811 310.077C254.126 309.761 254.485 309.476 254.865 309.228C257.824 308.358 261.142 308.598 263.619 306.283C264.176 305.53 264.718 304.767 265.275 304.015C267.099 304.995 268.471 306.487 271.134 305.654C287.337 300.684 304.074 302.823 320.592 302.894C324.426 302.915 327.054 302.575 329.264 299.621C335.838 298.257 341.667 302.981 349.548 302.185C345.248 296.925 341.608 292.382 337.854 287.938C322.572 269.836 311.979 249.504 308.004 225.972C306.165 215.121 307.872 205.46 315.705 197.157C317.834 194.887 320.052 194.617 322.744 194.345C345.298 192.128 364.755 200.612 383.248 212.102C409.357 228.303 430.802 249.138 447.366 275.263C455.934 288.777 462.555 302.911 467.466 317.992C468.161 320.152 468.391 322.903 471.269 323.732L471.241 323.644C469.407 325.403 470.613 326.62 471.978 327.837L471.977 327.679C472.071 328.466 472.15 329.242 472.234 330.044C469.953 332.432 474.572 334.136 473.011 336.494C465.288 335.894 464.847 323.043 455.103 326.05C455.016 326.078 454.746 325.729 454.645 325.522C451.496 318.514 444.506 315.17 439.143 310.551C434.673 306.701 432.898 301.118 428.099 297.733C419.29 291.499 410.532 284.401 404.994 275.494C398.709 265.357 387.019 263.403 380.162 254.864C384.138 264.891 393.814 269.715 400.182 277.546C398.142 278.011 396.79 275.16 394.815 276.324C393.893 276.862 393.256 278.075 392.818 279.137C392.648 279.534 393.469 280.882 393.699 280.843C400.935 279.657 400.803 289.13 407.097 289.998C409.374 290.31 409.148 300.549 414.672 291.979C415.382 290.884 417.355 292.511 418.356 293.447C420.959 295.836 423.524 298.31 425.003 301.68C422.905 302.891 419.855 301.67 419.355 304.624C418.937 307.051 421.305 307.742 422.78 308.835C426.652 311.72 430.615 314.444 434.58 317.26C435.617 315.61 434.105 314.919 433.733 313.889C433.182 312.351 431.772 310.628 433.975 309.492C435.583 308.653 436.526 310.178 437.445 311.326C438.044 312.066 438.731 312.779 439.409 313.441C441.176 315.168 445.037 316.673 442.653 319.459C440.965 321.457 437.534 322.104 434.022 321.343C431.127 320.728 430.607 316.262 425.892 317.956C438.793 328.761 454.575 334.274 465.798 346.206C462.473 344.137 459.132 342.058 455.647 339.897C454.585 344.974 456.295 350.015 452.362 353.682C440.585 351.914 429.581 347.566 418.448 343.621C416.007 341.257 413.235 340.279 408.939 341.257C412.31 344.372 415.073 346.852 416.868 350.22C413.939 351.269 412.104 348.908 409.778 348.697C408.214 348.554 406.564 349.07 407.626 351.062C408.953 353.536 410.457 357.44 412.427 357.804C421.038 359.372 429.788 361.917 438.626 358.919L438.75 359.03C439.433 359.019 440.1 358.998 440.772 359.003C444.802 360.334 449.025 360.79 453.106 361.954C460.893 364.175 468.967 365.295 476.395 368.814C477.038 369.113 482.3 370.959 478.754 366.19C484.052 365.068 486.961 366.773 485.903 372.573C485.704 373.647 485.275 374.378 486.596 374.483C491.638 374.958 490.752 377.885 489.53 381.001ZM436.22 423.482C438.155 421.074 440.04 418.609 442.035 416.244C443.022 415.076 445.604 414.389 444.007 412.422C442.69 410.789 440.134 410.775 438.925 412.572C436.726 415.828 432.99 416.461 430.277 418.474C426.819 421.06 423.78 426.038 426.085 430.399C428.444 434.843 429.563 427.308 432.393 428.553C429.567 433.705 425.935 438.058 420.771 441.684C421.047 440.282 421.78 438.552 421.387 438.25C418.954 436.319 416.859 438.096 415.135 439.573C411.619 442.59 415.03 444.856 416.344 447.252C417.862 449.996 418.789 447.773 419.823 446.729C421.676 444.848 423.544 442.978 425.393 441.072C426.491 439.939 427.46 437.813 429.248 440.208C431.706 443.53 432.623 440.782 433.903 439.17C439.001 432.751 440.498 424.494 445.565 417.423C441.312 418.499 439.675 421.659 436.22 423.482ZM394.188 520.48C390.371 525.76 391.021 531.691 396.205 534.09C398.592 535.2 402.094 538.858 404.342 535.344C406.152 532.51 405.654 528.172 401.326 526.404C399.233 525.548 398.725 524.489 399.895 522.619C401.193 520.569 401.883 518.425 398.976 517.352C396.185 516.337 395.469 519.183 394.188 520.48ZM422.811 496.596C420.805 495.554 418.778 495.713 417.901 497.836C417.046 499.863 414.886 502.493 417.34 504.394C419.382 505.956 421.476 504.022 422.929 502.42C424.593 500.585 424.781 498.513 422.811 496.596ZM301.973 308.444C302.821 308.867 303.799 309.201 304.199 308.067C304.343 307.674 303.716 306.846 303.239 306.44C302.578 305.88 301.578 305.26 300.926 306.305C300.327 307.275 301.246 307.883 301.973 308.444ZM455.599 480.825C455.775 480.703 455.942 480.596 456.103 480.463C456.001 480.323 455.872 480.029 455.795 480.042C455.605 480.087 455.448 480.245 455.286 480.378C455.404 480.529 455.496 480.685 455.599 480.825Z" fill="#A7BCD9"/>
<path opacity="0.9" d="M507.096 336.773C509.893 330.362 512.69 323.952 515.487 317.542C515.849 320.613 516.499 322.74 519.337 318.903C521.93 315.41 523.35 310.273 530.196 311.758C523.8 308.499 523.459 303.304 526.565 299.185C535.383 287.529 544.984 276.451 554.296 265.146C555.136 264.121 556.335 264.05 557.596 264.113C565.459 264.452 566.169 263.515 562.869 256.625C562.135 255.09 561.769 253.862 563.174 252.835C564.169 252.1 565.67 250.398 566.689 252.292C568.282 255.246 569.237 253.426 570.238 252.111C571.112 250.976 572.177 249.413 570.243 248.491C565.704 246.325 569.17 244.329 570.203 242.272L570.357 242.246C573.202 246.607 575.475 246.196 578.32 241.936C582.113 236.278 583.587 229.829 586.38 223.011C583.747 225.26 581.766 227.005 579.75 228.702C577.964 230.202 575.394 231.349 573.843 229.729C571.571 227.35 567.159 225.86 567.393 222.425C567.651 218.669 570.248 214.728 574.334 213.983C580.309 212.891 583.319 208.906 586.328 204.447C587.484 202.724 588.653 199.683 590.988 200.643C595.324 202.462 597.475 199.465 599.707 197.336C603.631 193.617 607.934 192.757 613.017 193.777C614.612 194.1 616.382 193.984 617.986 193.659C627.455 191.673 636.814 188.797 646.704 191.544C646.834 188.35 642.184 187.321 644.673 183.911C647.262 183.657 646.578 187.853 648.354 187.381C652.629 186.275 648.987 192.671 652.18 191.313C655.619 189.862 653.277 186.06 654.266 183.431C654.936 181.633 653.882 180.074 651.506 180.503C648.71 181.016 647.174 178.709 645.04 177.689C648.611 175.228 652.264 173.635 656.233 176.858C660.186 180.072 659.363 183.989 657.963 188.083C657.35 189.898 656.613 191.918 656.839 193.722C658.683 208.02 652.66 221.098 650.783 234.803C649.946 240.894 646.528 245.422 643.266 250.174C629.021 270.897 613.754 290.714 593.057 305.594C591.896 306.436 590.56 307.018 589.297 307.719C584.928 303.378 587.253 301.405 591.807 299.62C593.265 299.057 596.596 297.663 593.826 294.908C592.228 293.322 589.635 290.761 587.81 293.742C585.68 297.249 583.094 299.622 579.618 301.633C575.323 304.098 569.782 304.8 567.223 309.893C567.147 310.064 566.257 310.017 565.855 309.822C558.643 306.253 556.571 311.896 555.063 316.587C554.217 319.205 553.185 320.341 550.913 320.528C542.49 321.232 541.506 322.491 543.492 330.408C533.342 337.314 521.416 340.572 510.7 346.31C513.605 341.237 517.673 337.126 521.722 332.978C523.382 331.275 524.939 328.734 522.526 326.616C520.035 324.418 518.986 327.861 517.183 328.561C512.94 330.32 512.995 337.247 507.096 336.773Z" fill="#B9C9E0"/>
<path opacity="0.9" d="M489.53 381.002C490.752 377.885 491.638 374.958 486.645 374.54C485.309 374.425 485.753 373.704 485.953 372.631C486.995 366.82 484.087 365.115 478.803 366.247C477.95 365.642 477.097 365.036 476.259 364.441C476.702 358.745 471.231 358.304 468.292 355.721C466.267 353.946 464.513 348.333 461.809 351.41C458.896 354.721 465.141 355.69 466.748 358.181C461.969 356.701 457.179 355.235 452.401 353.755C456.344 350.072 454.624 345.046 455.685 339.97C459.186 342.141 462.511 344.21 465.836 346.279C454.614 334.347 438.817 328.823 425.931 318.028C430.646 316.334 431.151 320.79 434.06 321.416C437.572 322.176 440.988 321.518 442.692 319.532C445.061 316.735 441.214 315.241 439.447 313.513C438.754 312.841 438.072 312.154 437.483 311.398C436.58 310.261 435.637 308.736 434.013 309.564C431.81 310.701 433.221 312.423 433.771 313.962C434.128 314.981 435.641 315.672 434.619 317.333C430.654 314.517 426.676 311.782 422.819 308.908C421.344 307.815 418.991 307.134 419.394 304.697C419.904 301.728 422.944 302.963 425.042 301.752C423.563 298.383 421.013 295.919 418.395 293.52C417.383 292.599 415.42 290.957 414.711 292.051C409.187 300.622 409.402 290.397 407.135 290.071C400.841 289.202 400.973 279.729 393.738 280.916C393.518 280.94 392.686 279.607 392.856 279.209C393.299 278.173 393.936 276.96 394.854 276.396C396.829 275.232 398.191 278.068 400.221 277.619C393.837 269.776 384.177 264.964 380.2 254.936C387.057 263.475 398.748 265.43 405.033 275.566C410.57 284.474 419.328 291.571 428.138 297.805C432.936 301.191 434.712 306.774 439.181 310.623C444.545 315.243 451.535 318.586 454.684 325.595C454.785 325.801 455.054 326.151 455.142 326.123C464.875 323.131 465.326 335.967 473.049 336.567C474.6 334.224 469.996 332.53 472.272 330.117C472.178 329.33 472.099 328.553 472.005 327.766L472.006 327.924C472.652 326.38 472.746 324.916 471.269 323.732L471.297 323.819C470.975 315.239 467.585 307.429 464.607 299.641C462.569 294.3 462.438 288.399 459.086 283.452C457.734 281.457 458.424 278.773 460.04 276.656C461.926 274.191 461.328 271.673 459.971 269.178C461.34 267.472 460.78 265.566 460.628 263.657C460.48 261.932 458.923 259.497 461.544 258.658C464.145 257.849 466.171 259.085 466.817 262.042C467.037 263.032 467.773 263.644 469.37 262.663C467.718 255.321 470.334 247.297 466.42 239.97C467.118 238.575 467.494 237.221 465.727 236.349C465.542 236.262 464.805 236.729 464.771 236.998C464.619 238.353 465.511 239.189 466.482 239.946C463.72 244.311 461.568 245.281 460.322 239.016C460.104 237.96 459.081 237.054 458.432 236.098C458.361 235.913 458.305 235.738 458.234 235.552C458.331 235.733 458.413 235.904 458.509 236.085C456.859 237.457 458.753 240.4 455.188 241.966C455.174 235.202 449.125 232.594 446.461 227.596L446.479 227.699C446.778 226.2 450.388 223.969 445.571 223.588C443.02 214.122 442.524 204.518 443.259 194.798C444.279 194.757 444.318 194.289 443.8 193.561L443.828 193.649C444.51 192.625 445.086 191.593 444.312 190.368L444.291 190.398C450.371 189.539 446.845 194.598 448.077 196.509C449.919 195.881 451.666 195.006 453.517 194.744C455.405 194.464 455.79 195.57 455.402 197.479C455.122 198.856 450.4 198.721 454.045 201.197C456.231 202.682 458.684 202.24 460.628 200.74C462.431 199.341 462.366 194.996 466.286 197.082C469.325 198.7 468.398 201.621 468.087 204.214C467.701 207.294 469.504 209.7 471.638 210.878C475.066 212.772 474.015 208.356 475.499 207.249C476.259 206.686 476.796 205.739 477.907 206.235C478.973 206.7 479.181 207.77 478.899 208.674C478.398 210.298 477.609 211.854 476.343 214.872C479.466 211.394 483.137 216.05 484.606 211.826C485.921 227.662 486.948 243.428 484.253 259.298C482.811 267.796 482.751 276.533 482.15 285.177C481.877 289.08 481.836 293.036 475.85 293.984C480.753 295.576 480.92 298.193 479.96 302.081C476.866 314.583 477.103 327.245 478.584 340.025C479.469 347.654 482.401 354.239 486.308 360.592C485.809 362.309 485.639 364.102 487.396 365.147C489.488 366.385 490.394 364.507 491.425 363.213C493.428 360.742 495.819 358.77 498.74 357.446C497.549 358.964 496.389 360.503 495.149 361.964C493.671 363.728 495.583 372.605 497.432 372.252C503.558 371.042 504.788 376.823 508.681 378.98C508.206 379.363 507.862 379.817 507.706 379.751C504.75 378.62 500.883 374.905 498.959 379.167C496.813 383.9 502.395 384.218 505.341 385.68C508.794 387.412 512.482 388.748 515.733 390.764C520.144 393.491 524.489 397.928 525.42 387.964C526.781 388.931 527.518 389.319 527.474 389.445C524.761 397.513 530.521 399.735 536.08 402.716C547.565 408.891 558.833 415.498 570.075 422.109C580.442 428.21 590.679 434.557 600.975 440.789C600.307 442.206 603.149 444.607 599.733 445.265C598.192 440.524 593.598 439.512 589.995 437.359C556.926 417.835 523.684 398.617 489.53 381.002ZM461.401 338.356C457.868 331.571 453.238 326.077 445.948 323.6C450.799 328.846 454.65 335.183 461.401 338.356ZM470.221 268.692C469.181 267.683 468.536 267.99 468.025 268.551C467.155 269.554 466.992 270.766 467.719 271.867C468.361 272.864 469.413 272.935 469.865 271.793C470.257 270.766 470.14 269.535 470.221 268.692Z" fill="#B9C9E0"/>
<path opacity="0.9" d="M645.094 177.772C647.202 178.797 648.749 181.088 651.56 180.586C653.935 180.157 654.989 181.716 654.32 183.514C653.331 186.143 655.683 189.93 652.233 191.396C649.026 192.743 652.693 186.343 648.408 187.464C646.617 187.926 647.301 183.729 644.727 183.994C642.253 187.415 646.887 188.433 646.757 191.627C636.882 188.891 627.519 191.741 618.039 193.742C616.451 194.077 614.665 194.183 613.071 193.86C607.988 192.84 603.685 193.7 599.761 197.419C597.528 199.548 595.388 202.53 591.041 200.726C588.717 199.751 587.537 202.807 586.381 204.53C583.373 208.989 580.362 212.974 574.387 214.066C570.301 214.811 567.705 218.752 567.446 222.508C567.212 225.943 571.624 227.433 573.897 229.812C575.433 231.421 578.007 230.3 579.804 228.785C581.819 227.088 583.79 225.358 586.434 223.094C583.63 229.927 582.156 236.376 578.374 242.019C575.514 246.268 573.255 246.69 570.41 242.329C571.104 240.75 573.322 239.624 571.714 236.816C569.457 238.41 567.804 239.69 570.257 242.355C569.223 244.412 565.757 246.408 570.297 248.574C572.23 249.497 571.17 251.085 570.292 252.194C569.286 253.484 568.336 255.329 566.742 252.375C565.724 250.481 564.237 252.194 563.228 252.918C561.822 253.945 562.188 255.173 562.922 256.708C566.218 263.573 565.512 264.535 557.649 264.196C556.378 264.148 555.189 264.204 554.349 265.229C545.048 276.519 535.447 287.597 526.619 299.268C523.513 303.387 523.864 308.567 530.25 311.841C523.414 310.341 521.984 315.493 519.391 318.986C516.553 322.824 515.888 320.685 515.54 317.625C519.512 301.762 525.481 286.574 530.624 271.092C536.536 253.321 546.467 238.133 557.209 223.229C557.911 222.241 558.751 221.375 559.527 220.44C561.92 220.114 562.783 218.138 563.843 216.392C576.563 203.68 590.165 192.135 607.827 186.917C620.031 183.204 632.155 178.78 645.094 177.772Z" fill="#A7BCD9"/>
<path opacity="0.9" d="M443.762 480.883C442.745 481.872 441.874 483.414 440.674 483.71C435.354 485.019 431.388 486.547 436.891 492.459C437.904 493.538 437.502 494.896 436.339 495.488C432.544 497.408 428.576 496.053 425.342 494.522C422.364 493.104 423.059 489.749 424.963 487.162C425.149 487.091 425.334 487.02 425.52 486.949C425.339 487.046 425.158 487.142 424.961 487.228C422.969 485.881 422.505 482.985 419.718 482.154C419.002 483.986 419.282 486.571 416.559 486.888C415.394 487.007 413.955 487.29 413.089 486.765C411.799 485.984 412.896 484.692 413.138 483.559C414.289 478.388 418.184 474.806 420.576 470.36C427.654 457.287 433.917 443.682 441.984 431.245C448.248 421.602 454.656 412.039 460.58 402.176C461.956 399.89 463.563 397.722 466.255 396.753C463.153 412.31 464.458 427.937 465.463 443.575C465.789 448.758 465.366 454.108 462.729 458.899C459.377 460.323 456.21 457.871 452.873 458.45C450.555 458.83 450.452 456.978 451.095 455.724C455.299 447.522 449.467 443.943 444.069 440.132C444.076 439.552 445.615 439.001 444.111 438.361C444.119 438.952 444.127 439.543 444.131 440.108C442.419 442.741 440.472 444.848 437.413 446.367C433.94 448.088 430.933 450.927 434.463 455.528C437.534 459.509 434.036 461.708 431.391 462.643C425.195 464.838 423.978 469.309 424.386 474.979C425.709 475.874 425.998 474.706 426.308 473.89C427.07 471.865 427.779 468.902 430.093 469.352C431.931 469.712 433.296 471.942 434.103 474.609C435.341 478.572 440.751 478.34 443.762 480.883C443.762 480.883 443.777 480.894 443.762 480.883Z" fill="#B9C9E0"/>
<path opacity="0.9" d="M484.621 211.837C483.152 216.061 479.481 211.405 476.358 214.882C477.624 211.864 478.402 210.324 478.914 208.684C479.195 207.781 478.988 206.71 477.922 206.246C476.815 205.775 476.274 206.696 475.514 207.26C474.03 208.367 475.081 212.782 471.653 210.889C469.534 209.721 467.726 207.289 468.102 204.225C468.424 201.616 469.34 198.71 466.301 197.093C462.381 195.006 462.461 199.363 460.642 200.75C458.699 202.251 456.246 202.693 454.06 201.207C450.415 198.732 455.137 198.866 455.417 197.489C455.804 195.581 455.424 194.5 453.532 194.755C451.681 195.016 449.934 195.891 448.092 196.519C446.886 194.605 450.397 189.534 444.306 190.408C442.427 185.225 442.573 180.264 445.637 175.506C450.109 168.575 454.436 161.563 458.943 154.679C463.23 148.135 463.941 148.212 467.523 155.37C468.279 156.875 468.806 158.51 469.441 160.087C464.812 160.806 463.716 165.295 461.339 168.199C459.923 169.94 459.966 173.302 463.675 174.45C468.631 175.967 472.593 178.375 474.1 184.083C474.769 186.628 477.773 186.804 480.22 185.323C480.414 186.001 480.608 186.679 480.787 187.346C480.919 188.047 481.04 188.764 481.188 189.476C481.322 190.112 481.456 190.747 481.579 191.397C481.152 192.22 481.336 192.913 482.062 193.474C484.536 199.373 483.589 205.746 484.621 211.837Z" fill="#A7BCD9"/>
<path opacity="0.9" d="M543.535 330.506C541.549 322.589 542.533 321.33 550.956 320.626C553.228 320.439 554.26 319.303 555.106 316.685C556.614 311.994 558.686 306.351 565.898 309.92C566.285 310.105 567.175 310.151 567.266 309.991C569.821 304.872 575.377 304.181 579.661 301.731C583.137 299.72 585.723 297.347 587.853 293.84C589.678 290.859 592.271 293.42 593.869 295.006C596.639 297.761 593.308 299.155 591.85 299.718C587.296 301.503 584.971 303.476 589.34 307.817C575.721 318.72 559.541 324.45 543.535 330.506ZM590.148 296.505C590.411 296.737 590.684 296.954 590.947 297.185C590.887 296.985 590.906 296.706 590.767 296.584C590.642 296.474 590.361 296.521 590.148 296.505Z" fill="#A7BCD9"/>
<path opacity="0.9" d="M458.458 236.094C459.111 237.076 460.144 237.967 460.348 239.012C461.578 245.266 463.746 244.306 466.507 239.942L466.431 239.955C470.344 247.282 467.729 255.307 469.381 262.648C467.784 263.629 467.048 263.017 466.828 262.027C466.182 259.07 464.156 257.834 461.555 258.643C458.918 259.472 460.501 261.902 460.639 263.642C460.791 265.551 461.351 267.457 459.981 269.163C458.927 269.158 457.848 269.156 456.794 269.151C456.255 268.768 455.732 268.396 455.182 268.029C454.912 267.68 454.704 267.307 454.569 266.895C454.439 266.285 454.299 265.691 454.169 265.081L454.133 264.942C453.932 264.305 453.747 263.678 453.547 263.041L453.543 263.015C453.379 262.358 453.215 261.702 453.051 261.045L453.042 260.994C452.863 260.327 452.67 259.649 452.491 258.981C449.433 248.706 445.843 238.547 446.487 227.592C449.15 232.59 455.2 235.198 455.214 241.961C458.779 240.396 456.885 237.453 458.535 236.081L458.458 236.094Z" fill="#A7BCD9"/>
<path d="M329.277 299.697C327.067 302.652 324.439 302.992 320.605 302.97C304.072 302.889 287.361 300.746 271.147 305.731C268.469 306.554 267.113 305.072 265.288 304.092C279.382 296.227 294.815 295.797 310.319 296.566C316.676 296.871 323.407 296.046 329.277 299.697Z" fill="#CED8E9"/>
<path opacity="0.9" d="M498.755 357.456C495.834 358.781 493.443 360.752 491.44 363.224C490.419 364.503 489.488 366.385 487.411 365.157C485.654 364.112 485.839 362.33 486.323 360.603C489.707 362.939 489.839 359.138 491.362 357.946C492.34 356.727 493.318 355.508 494.296 354.29C498.573 348.458 502.835 342.615 507.101 336.798C512.999 337.273 512.944 330.346 517.204 328.689C519.007 327.989 520.056 324.547 522.548 326.744C524.975 328.873 523.418 331.414 521.744 333.106C517.695 337.254 513.637 341.351 510.722 346.438C509.679 347.431 508.611 348.428 507.568 349.421C507.106 349.723 506.629 350.015 506.152 350.306C503.698 352.683 501.219 355.064 498.755 357.456Z" fill="#A7BCD9"/>
<path opacity="0.9" d="M480.272 185.314C477.809 186.784 474.82 186.62 474.152 184.074C472.645 178.367 468.683 175.958 463.727 174.442C460.007 173.308 459.974 169.931 461.39 168.191C463.753 165.276 464.863 160.797 469.493 160.078C475.287 167.547 478.883 175.954 480.272 185.314Z" fill="#B9C9E0"/>
<path d="M247.215 314.42C237.022 319.359 239.685 329.175 239.204 337.365C239.048 340.247 242.451 343.475 244.551 346.317C245.845 348.046 247.696 349.338 247.69 351.788C240.839 345.617 235.19 338.453 230.046 330.861C227.426 326.974 227.324 323.885 232.619 322.04C237.826 320.223 241.311 314.999 247.215 314.42Z" fill="#CED8E9"/>
<path opacity="0.9" d="M352.094 587.2C357.825 588.006 358.155 595.084 363.174 596.735C360.569 598.532 357.418 600.751 354.725 598.456C351.471 595.717 350.904 591.443 352.094 587.2Z" fill="#B9C9E0"/>
<path opacity="0.9" d="M548.936 399.195C550.124 400.533 551.51 401.878 552.636 403.398C553.2 404.158 553.098 405.347 552.095 405.873C551.588 406.143 550.436 406.18 550.211 405.863C547.718 402.336 542.85 402.503 540.157 399.353C539.237 398.272 537.956 397.159 539.149 395.733C540.136 394.565 541.295 395.659 542.34 396.153C544.48 397.133 546.635 398.124 548.936 399.195Z" fill="#B9C9E0"/>
<path d="M263.632 306.36C261.155 308.675 257.822 308.424 254.878 309.304C256.946 305.821 260.073 305.475 263.632 306.36Z" fill="#CED8E9"/>
<path d="M253.809 310.144C252.404 312.027 251.485 314.684 248.233 313.59C249.531 311.54 250.809 309.454 253.809 310.144Z" fill="#CED8E9"/>
<path opacity="0.9" d="M445.612 223.594C450.418 223.991 446.818 226.206 446.519 227.705C446.208 226.336 445.912 224.978 445.612 223.594Z" fill="#A7BCD9"/>
<path opacity="0.9" d="M563.779 216.324C562.719 218.07 561.856 220.046 559.463 220.372C560.47 218.543 561.288 216.536 563.779 216.324Z" fill="#B9C9E0"/>
<path opacity="0.9" d="M494.292 354.264C493.314 355.483 492.335 356.701 491.357 357.92C491.316 355.887 492.219 354.615 494.292 354.264Z" fill="#B9C9E0"/>
<path opacity="0.9" d="M444.353 190.374C445.116 191.614 444.54 192.646 443.869 193.655C443.242 192.445 443.007 191.287 444.353 190.374Z" fill="#A7BCD9"/>
<path opacity="0.9" d="M348.128 571.485C348.335 572.398 348.546 573.336 348.754 574.248C348.024 573.438 347.345 572.618 348.128 571.485Z" fill="#B9C9E0"/>
<path opacity="0.9" d="M481.239 189.467C481.107 188.766 480.97 188.039 480.838 187.337C480.985 188.049 481.117 188.751 481.239 189.467Z" fill="#B9C9E0"/>
<path opacity="0.9" d="M482.129 193.476C481.402 192.915 481.219 192.222 481.645 191.399C481.799 192.071 481.956 192.768 482.129 193.476Z" fill="#B9C9E0"/>
<path opacity="0.9" d="M443.841 193.567C444.344 194.285 444.305 194.752 443.3 194.804C443.239 194.288 443.419 193.876 443.841 193.567Z" fill="#A7BCD9"/>
<path opacity="0.9" d="M452.495 259.007C452.674 259.674 452.868 260.352 453.047 261.019C452.853 260.341 452.674 259.674 452.495 259.007Z" fill="#B9C9E0"/>
<path opacity="0.9" d="M453.051 261.045C453.215 261.702 453.379 262.359 453.543 263.015C453.379 262.359 453.215 261.702 453.051 261.045Z" fill="#B9C9E0"/>
<path opacity="0.9" d="M453.547 263.041C453.747 263.678 453.933 264.305 454.133 264.942C453.933 264.305 453.747 263.678 453.547 263.041Z" fill="#B9C9E0"/>
<path opacity="0.9" d="M454.169 265.081C454.299 265.69 454.439 266.285 454.569 266.895C454.439 266.285 454.299 265.69 454.169 265.081Z" fill="#B9C9E0"/>
<path opacity="0.9" d="M455.182 268.029C455.721 268.411 456.255 268.768 456.794 269.151C455.682 269.576 455.179 269.174 455.182 268.029Z" fill="#B9C9E0"/>
<path opacity="0.9" d="M351.108 583.169C351.317 583.857 351.511 584.535 351.694 585.228C351.511 584.535 351.302 583.847 351.108 583.169Z" fill="#B9C9E0"/>
<path opacity="0.9" d="M350.022 579.246C350.843 579.739 351.047 580.402 350.64 581.261C350.435 580.598 350.226 579.909 350.022 579.246Z" fill="#B9C9E0"/>
<path opacity="0.9" d="M348.833 575.723C348.996 576.063 349.056 576.422 349.01 576.772C348.366 576.539 348.279 576.185 348.833 575.723Z" fill="#B9C9E0"/>
<path opacity="0.9" d="M506.173 350.276C506.65 349.985 507.112 349.683 507.589 349.391C507.102 349.698 506.65 349.985 506.173 350.276Z" fill="#B9C9E0"/>
<path opacity="0.9" d="M476.259 364.441C477.112 365.047 477.965 365.652 478.803 366.248C482.345 370.991 477.072 369.16 476.444 368.872C469.016 365.352 460.942 364.233 453.155 362.012C449.06 360.837 444.836 360.381 440.822 359.061C440.139 359.071 439.471 359.092 438.799 359.087L438.675 358.977C435.493 356.897 432.524 353.596 429.084 353.02C423.124 352.03 420.071 349.006 418.482 343.668C429.615 347.613 440.619 351.961 452.396 353.729C457.175 355.21 461.965 356.675 466.744 358.156C469.915 360.251 473.087 362.346 476.259 364.441Z" fill="#E1E6F1"/>
<path opacity="0.9" d="M436.22 423.482C439.675 421.659 441.297 418.488 445.595 417.444C440.539 424.501 439.042 432.757 433.933 439.191C432.653 440.803 431.736 443.551 429.278 440.23C427.516 437.83 426.536 439.97 425.423 441.094C423.585 442.985 421.706 444.869 419.853 446.75C418.819 447.794 417.892 450.017 416.374 447.273C415.049 444.892 411.649 442.612 415.165 439.594C416.889 438.117 418.984 436.341 421.417 438.271C421.81 438.573 421.077 440.303 420.801 441.706C425.954 438.095 429.582 433.715 432.423 428.574C429.593 427.33 428.474 434.864 426.115 430.42C423.81 426.059 426.834 421.071 430.307 418.495C433.02 416.482 436.756 415.849 438.955 412.593C440.175 410.781 442.72 410.81 444.037 412.443C445.634 414.41 443.052 415.098 442.065 416.265C440.055 418.62 438.165 421.059 436.22 423.482Z" fill="#B9C9E0"/>
<path opacity="0.9" d="M418.472 343.683C420.046 349.01 423.113 352.044 429.073 353.035C432.499 353.6 435.482 356.912 438.664 358.992C429.812 361.979 421.077 359.445 412.466 357.877C410.511 357.524 409.007 353.619 407.664 351.135C406.588 349.132 408.253 348.626 409.817 348.769C412.128 348.97 413.963 351.331 416.907 350.293C415.112 346.924 412.363 344.455 408.977 341.33C413.259 340.341 416.031 341.319 418.472 343.683Z" fill="#B9C9E0"/>
<path opacity="0.9" d="M394.188 520.48C395.469 519.183 396.185 516.337 398.965 517.367C401.872 518.44 401.182 520.584 399.884 522.634C398.699 524.493 399.207 525.552 401.316 526.419C405.643 528.187 406.141 532.525 404.331 535.359C402.083 538.873 398.592 535.2 396.195 534.105C391.01 531.706 390.371 525.76 394.188 520.48Z" fill="#B9C9E0"/>
<path opacity="0.9" d="M445.814 480.562C447.021 478.83 446.833 473.452 450.722 478.69L450.713 478.639C447.228 483.705 447.148 490.221 443.935 496.043C440.091 489.666 445.597 485.495 445.816 480.496L445.814 480.562Z" fill="#B9C9E0"/>
<path opacity="0.9" d="M422.811 496.596C424.781 498.513 424.603 500.57 422.94 502.405C421.476 504.022 419.382 505.956 417.351 504.379C414.882 502.468 417.046 499.863 417.911 497.821C418.778 495.713 420.805 495.554 422.811 496.596Z" fill="#B9C9E0"/>
<path d="M301.973 308.445C301.25 307.909 300.327 307.276 300.926 306.305C301.563 305.25 302.563 305.87 303.239 306.44C303.716 306.846 304.343 307.674 304.199 308.067C303.784 309.191 302.821 308.867 301.973 308.445Z" fill="#CED8E9"/>
<path opacity="0.9" d="M471.265 323.706C472.742 324.891 472.644 326.329 472.002 327.899C470.637 326.682 469.441 325.45 471.265 323.706Z" fill="#E1E6F1"/>
<path opacity="0.9" d="M455.599 480.825C455.496 480.685 455.389 480.519 455.286 480.378C455.463 480.256 455.605 480.087 455.795 480.042C455.872 480.029 456.001 480.323 456.103 480.463C455.942 480.596 455.775 480.703 455.599 480.825Z" fill="#B9C9E0"/>
<path opacity="0.9" d="M450.696 478.694C451.287 478.686 451.889 478.663 452.48 478.655C451.887 480.283 451.287 478.686 450.677 478.658C450.688 478.643 450.696 478.694 450.696 478.694Z" fill="#B9C9E0"/>
<path opacity="0.9" d="M471.997 327.715C472.091 328.502 472.17 329.279 472.263 330.066C472.185 329.289 472.091 328.502 471.997 327.715Z" fill="#E1E6F1"/>
<path opacity="0.9" d="M445.794 480.526C445.118 480.653 444.438 480.756 443.762 480.883L443.766 480.909C444.447 480.807 445.123 480.679 445.803 480.577C445.814 480.562 445.794 480.526 445.794 480.526Z" fill="#B9C9E0"/>
<path opacity="0.9" d="M438.784 359.077C439.467 359.066 440.134 359.045 440.806 359.05C440.139 359.071 439.456 359.081 438.784 359.077Z" fill="#B9C9E0"/>
<path opacity="0.9" d="M461.401 338.356C454.65 335.183 450.814 328.857 445.948 323.6C453.239 326.077 457.868 331.571 461.401 338.356Z" fill="#A7BCD9"/>
<path opacity="0.9" d="M476.259 364.441C473.087 362.346 469.915 360.251 466.744 358.156C465.141 355.689 458.881 354.71 461.805 351.385C464.498 348.322 466.263 353.92 468.288 355.696C471.231 358.304 476.692 358.76 476.259 364.441Z" fill="#A7BCD9"/>
<path opacity="0.9" d="M470.221 268.692C470.14 269.535 470.257 270.766 469.854 271.808C469.403 272.95 468.366 272.889 467.708 271.882C466.992 270.766 467.145 269.569 468.015 268.566C468.536 267.99 469.196 267.694 470.221 268.692Z" fill="#A7BCD9"/>
<path opacity="0.9" d="M466.508 239.942C465.548 239.17 464.656 238.334 464.797 236.994C464.83 236.725 465.567 236.258 465.753 236.345C467.52 237.217 467.144 238.57 466.446 239.965C466.446 239.965 466.508 239.942 466.508 239.942Z" fill="#A7BCD9"/>
<path opacity="0.9" d="M458.535 236.081C458.438 235.9 458.357 235.729 458.26 235.548C458.331 235.733 458.387 235.908 458.458 236.094L458.535 236.081Z" fill="#A7BCD9"/>
<path opacity="0.9" d="M570.223 242.308C567.77 239.643 569.422 238.363 571.68 236.769C573.287 239.577 571.08 240.688 570.376 242.282L570.223 242.308Z" fill="#B9C9E0"/>
<path opacity="0.9" d="M444.167 440.089C444.159 439.498 444.151 438.907 444.148 438.342C445.662 438.967 444.108 439.507 444.106 440.113C444.091 440.102 444.167 440.089 444.167 440.089Z" fill="#A7BCD9"/>
<path opacity="0.9" d="M424.987 487.224C425.168 487.127 425.349 487.031 425.546 486.945C425.36 487.016 425.175 487.087 424.989 487.158C424.974 487.147 424.987 487.224 424.987 487.224Z" fill="#A7BCD9"/>
<path opacity="0.9" d="M590.158 296.49C590.372 296.506 590.653 296.459 590.792 296.58C590.916 296.691 590.923 296.966 590.973 297.181C590.684 296.954 590.421 296.722 590.158 296.49Z" fill="#B9C9E0"/>
</g>
</g>
<defs>
<clipPath id="clip0">
<rect width="939.736" height="1064.57" fill="white" transform="matrix(0.019654 -0.999807 -0.999807 -0.019654 1064.73 960.477)"/>
</clipPath>
<clipPath id="clip1">
<rect width="518.35" height="376.333" fill="white" transform="translate(139.094 445.363) rotate(-54.6181)"/>
</clipPath>
</defs>
</svg>
