<svg width="450" height="489" viewBox="0 0 450 489" fill="none" xmlns="http://www.w3.org/2000/svg">
<g opacity="0.15" clip-path="url(#clip0)">
<path opacity="0.9" d="M306.631 186.808C305.6 185.179 305.063 182.827 302.244 183.821C301.792 183.984 301.193 183.961 301.157 183.439C300.926 179.549 297.844 180.325 295.484 179.89C294.557 178.928 293.326 178.657 292.089 178.506C286.744 177.871 281.455 176.958 276.149 176.129C269.308 175.064 262.313 174.991 255.39 174.469C253.04 174.29 250.768 173.322 248.345 173.818C247.817 173.923 247.047 173.708 246.968 174.409C246.91 174.878 247.304 175.445 247.579 175.91C248.232 177.019 249.282 176.398 250.2 176.353C250.378 177.699 249.23 178.458 249.038 179.555L249.068 179.535C247.594 179.215 246.039 179.561 246.004 181.1C245.96 182.768 246.149 184.719 247.692 185.969C248.174 186.353 248.821 186.264 249.088 185.627C250.557 182.155 251.967 183.545 253.539 185.569C253.886 186.023 254.72 186.093 255.334 186.346C255.517 186.609 255.691 186.88 255.874 187.143C253.703 187.995 250.883 186.447 248.889 189.308C251.983 189.566 254.784 188.359 257.601 188.876C257.697 189.14 257.131 189.7 257.946 189.643C257.83 189.393 257.705 189.141 257.589 188.891C259.079 186.235 256.821 187.349 255.854 187.157C255.681 186.887 255.497 186.623 255.324 186.353C255.841 184.586 254.702 182.316 256.18 181.038C257.163 180.185 257.853 179.178 257.655 178.326C257.405 177.255 256.007 177.518 254.998 177.579C254.583 177.602 254.039 177.703 254.167 176.968C256.514 175.715 258.644 175.379 260.763 177.6C261.666 178.548 263.263 179.617 264.382 177.551C265.668 175.17 267.453 175.909 268.849 177.061C270.072 178.073 271.342 178.5 272.8 178.729L272.788 178.7C272.194 181.727 271.782 184.894 267.484 184.667C266.826 184.633 266.049 185.028 266.661 185.945C267.535 187.263 267.103 189.081 268.352 190.23C254.33 194.287 240.174 194.011 225.925 191.699C214.064 189.775 203.323 185.515 194.464 177.157C193.258 176.017 191.427 175.688 190.58 174.104C190.325 171.651 193.279 170.16 192.528 167.565C192.783 167.38 193.037 167.203 193.301 167.02C193.553 166.808 193.806 166.588 194.066 166.378C194.305 166.189 194.552 166.003 194.79 165.814C195.234 165.824 195.486 165.612 195.531 165.167C195.818 164.866 196.097 164.563 196.384 164.262C196.552 164.208 196.685 164.112 196.797 163.986C197.002 163.879 197.207 163.771 197.419 163.673C197.768 163.411 198.128 163.142 198.477 162.879C210.338 154.226 223.694 151.757 238.042 153.128C255.598 154.805 271.891 159.978 286.4 170.247C292.03 174.232 298.881 176.129 304.244 180.62C304.904 181.171 307.299 182.399 306.94 179.724C305.726 170.495 303.066 161.641 298.704 153.392C297.899 151.86 296.863 149.82 294.284 151.447C293.505 151.938 292.873 150.851 292.521 150.205C289.584 144.807 285.117 140.555 281.751 135.466C271.926 120.635 267.49 104.589 269.944 86.8128C270.371 83.7446 271.412 80.8859 272.936 78.1931C273.972 77.7268 274.178 76.6934 274.668 75.8126C275.47 74.3738 276.197 72.2999 277.463 71.8268C281.047 70.4613 284.72 67.4626 288.771 70.8632C288.971 70.9118 289.155 71.0006 289.319 71.1383C289.474 72.7326 290.782 72.6172 291.853 72.8566C292.048 72.9304 292.238 73.0294 292.416 73.1435C293.352 74.2381 293.883 75.6977 295.343 76.3114C295.77 76.4051 296.198 76.4905 296.626 76.5842C296.556 77.5487 296.182 78.4176 297.045 79.393C302.258 85.3481 304.541 92.8865 307.665 99.937C308.388 101.575 309.035 102.629 310.716 103.007C312.553 105.548 311.652 108.932 313.496 112.138C314.917 109.303 316.158 106.886 317.336 104.438C322.133 94.4748 328.776 86.084 338.047 79.902C342.32 77.049 346.763 75.9331 351.798 77.6864C353.172 78.1607 353.711 79.0541 354.341 80.149C359.591 89.3349 359.691 99.2424 358.325 109.312C356.404 123.526 351.619 136.636 343.647 148.676C339.523 154.904 334.763 160.42 329.273 165.39C328.486 166.098 327.357 166.72 327.553 168.104L327.585 168.076C326.485 167.63 326.197 168.376 325.939 169.189L326.006 169.159C325.688 169.349 325.373 169.531 325.047 169.719C323.594 169.203 323.749 171.496 322.446 171.281C321.227 167.876 326.621 165.237 323.478 161.659C323.45 161.628 323.547 161.446 323.616 161.364C326.002 158.685 326.092 155.07 327.037 151.904C327.824 149.265 329.865 147.444 330.392 144.754C331.366 139.812 332.719 134.727 335.459 130.668C338.579 126.057 337.18 120.704 339.51 116.154C335.995 119.761 335.787 124.803 333.665 129.01C333.077 128.229 334.034 127.11 333.161 126.49C332.756 126.2 332.117 126.16 331.581 126.176C331.379 126.179 330.961 126.786 331.022 126.877C332.909 129.733 328.846 131.484 329.678 134.331C329.98 135.36 325.573 137.217 330.28 137.936C330.882 138.029 330.566 139.181 330.358 139.786C329.837 141.35 329.272 142.915 328.118 144.188C327.201 143.525 327.139 141.993 325.785 142.343C324.671 142.628 324.828 143.769 324.644 144.605C324.154 146.805 323.749 149.013 323.306 151.24C324.207 151.367 324.213 150.59 324.581 150.236C325.132 149.708 325.597 148.778 326.502 149.5C327.166 150.025 326.696 150.718 326.382 151.328C326.181 151.724 326.009 152.153 325.856 152.568C325.457 153.65 325.553 155.583 323.91 155.098C322.737 154.76 321.806 153.422 321.459 151.78C321.169 150.43 322.973 149.356 321.351 147.671C319.209 155.228 319.872 163.003 316.93 170.06C317.177 168.249 317.425 166.429 317.68 164.532C315.314 165.048 313.492 166.738 311.178 165.762C309.683 160.407 309.435 154.89 308.991 149.395C309.532 147.904 309.42 146.537 308.183 144.893C307.499 146.923 306.969 148.573 305.877 149.98C304.87 148.933 305.526 147.701 305.172 146.67C304.934 145.976 304.399 145.371 303.753 146.204C302.952 147.241 301.575 148.626 301.796 149.535C302.772 153.503 303.358 157.716 306.323 160.909L306.3 160.983C306.435 161.272 306.571 161.552 306.697 161.84C306.899 163.81 307.512 165.696 307.794 167.657C308.335 171.398 309.399 175.051 309.317 178.887C309.313 179.218 309.53 181.812 310.886 179.392C312.376 181.435 312.204 182.999 309.531 183.655C309.035 183.775 308.641 183.731 308.849 184.314C309.618 186.555 308.201 186.736 306.631 186.808ZM278.355 172.201C279.751 172.566 281.161 172.899 282.55 173.298C283.236 173.495 284.022 174.464 284.556 173.409C285 172.536 284.518 171.445 283.521 171.272C281.714 170.956 280.731 169.485 279.355 168.714C277.592 167.734 274.891 167.388 273.472 169.202C272.028 171.055 275.453 170.094 275.463 171.538C272.728 171.316 270.179 170.599 267.647 169.091C268.298 168.941 269.175 168.924 269.229 168.698C269.587 167.293 268.43 166.74 267.471 166.287C265.514 165.365 265.2 167.25 264.429 168.267C263.55 169.437 264.674 169.408 265.316 169.649C266.472 170.08 267.625 170.519 268.791 170.943C269.484 171.195 270.574 171.202 269.895 172.421C268.949 174.102 270.295 173.968 271.226 174.206C274.936 175.154 278.74 174.216 282.722 175.026C281.451 173.419 279.792 173.325 278.355 172.201ZM228.98 172.794C226.001 172.175 223.597 173.583 223.564 176.249C223.547 177.477 222.657 179.667 224.584 179.955C226.137 180.185 227.891 179.146 227.818 176.965C227.783 175.91 228.138 175.491 229.158 175.633C230.279 175.795 231.325 175.68 231.228 174.237C231.127 172.854 229.777 173.092 228.98 172.794ZM244.625 180.432C244.686 179.379 244.231 178.546 243.159 178.577C242.132 178.6 240.598 178.181 240.257 179.589C239.981 180.757 241.205 181.28 242.165 181.594C243.273 181.954 244.184 181.637 244.625 180.432ZM301.753 93.0652C301.735 93.5071 301.779 93.9876 302.339 93.9417C302.534 93.9281 302.767 93.5029 302.849 93.2222C302.961 92.834 303.035 92.2896 302.465 92.2111C301.928 92.1393 301.845 92.6468 301.753 93.0652ZM257.615 191.394C257.701 191.446 257.778 191.497 257.866 191.54C257.906 191.47 258.007 191.359 257.986 191.329C257.931 191.256 257.833 191.219 257.746 191.176C257.695 191.253 257.655 191.324 257.615 191.394Z" fill="#1B74BB"/>
<path opacity="0.9" d="M61.732 278.388C72.0688 277.214 81.9318 279.43 91.6712 282.53C92.0983 282.668 92.5204 282.83 92.9458 282.976C95.8886 283.998 100.875 282.964 98.5386 289.609C100.152 286.07 102.55 285.569 105.289 285.686C110.513 285.913 115.87 285.259 120.734 287.956L120.717 287.909C120.681 288.138 120.642 288.375 120.605 288.603C120.791 288.99 121.003 289.067 121.264 288.673L121.246 288.678C122.499 288.971 123.75 289.273 125.002 289.566C125.405 290.834 123.874 292.949 126.595 293.202C126.964 293.319 127.326 293.435 127.696 293.552C126.542 296.013 128.313 294.889 129.163 294.7C137.354 292.889 145.719 291.785 153.559 288.533C154.055 288.326 154.665 288.421 155.225 288.375C155.866 289.28 156.347 290.555 157.748 290.231C159.936 289.732 161.193 290.401 161.114 294.002C162.273 291.429 163.426 291.169 164.93 290.857C166.644 290.499 165.215 288.285 165.832 287.027L165.9 287.041C166.18 286.992 166.461 286.943 166.742 286.894C167.379 286.986 168.006 287.084 168.643 287.176C168.56 288.295 166.496 288.391 167.222 289.881C167.39 290.22 168.142 290.658 168.216 290.594C170.331 288.752 170.254 291.244 171.05 291.988C172.31 293.164 173.034 295.938 175.267 294.6C176.955 293.582 177.924 294.116 179.157 294.815C179.872 295.22 180.538 295.649 181.284 294.977C182.127 294.21 181.702 293.4 181.387 292.525C180.819 290.988 179.28 289.809 179.693 287.908C180.338 288.002 180.986 288.087 181.64 288.182C185.883 289.035 190.129 289.88 194.372 290.734C202.056 292.438 209.012 295.691 215.163 300.619C215.188 302.074 214.462 302.733 213.059 303.196C210.354 304.099 207.621 304.481 205.715 307.517C203.504 311.025 201.382 307.24 199.106 306.56C200.359 304.783 202.229 305.094 203.839 304.558C201.535 302.257 199.252 300.335 199.916 296.781C200.155 295.492 199.527 295.088 197.717 295.094C195.434 295.103 191.146 297.813 190.995 292.158C190.974 291.341 190.002 291.305 189.415 291.843C188.241 292.911 187.741 294.366 188.13 295.841C188.438 297.012 189.525 297.569 190.821 297.381C192.333 297.158 193.756 297.389 195.039 298.23C195.658 298.632 196.763 298.835 196.475 299.843C196.11 301.107 194.951 300.649 194.182 300.383C191.591 299.483 188.972 299.075 186.246 299.467C185.634 299.555 184.716 299.162 184.595 300.117C184.469 301.105 185.357 301.386 186.138 301.586C187.778 301.999 189.503 302.203 191.055 302.835C191.864 303.162 192.865 304.103 192.244 305.246C191.927 305.83 191.054 306.66 190.273 306.06C186.641 303.275 182.489 305.96 178.626 304.947C177.555 304.664 175.592 305.173 174.083 305.554C173.421 305.719 172.445 306.494 172.881 306.721C175.336 307.996 172.95 308.7 172.68 309.616C172.516 310.177 172.391 310.807 172.906 311.163C173.19 311.359 173.925 311.357 174.116 311.142C175.456 309.679 178.486 310.658 178.846 307.62C178.971 306.553 180.499 306.822 181.526 306.93C184.753 307.275 187.9 307.753 191.068 308.655C194.88 309.745 198.951 309.927 202.917 310.463C204.765 310.708 206.074 311.641 205.659 313.55C205.21 315.627 206.619 316.851 207.762 317.341C209.969 318.286 210.146 319.064 209.446 321.353C208.816 323.42 208.632 327.594 209.856 327.855C212.899 328.504 211.764 330.165 211.845 331.692C201.525 334.669 191.31 333.344 181.01 331.346C162.657 327.789 149.086 317.288 138.124 302.72C136.845 301.025 135.209 299.581 133.692 298.074C131.957 296.339 129.997 296.176 128.343 297.987C126.388 300.123 129.258 300.851 129.934 302.2C130.24 302.811 131.13 303.128 132.467 304.093C129.968 304.18 128.235 304.237 126.5 304.303C126.409 303.664 126.183 302.999 126.263 302.377C126.68 299.228 125.463 297.484 122.183 297.408C118.286 298.414 117.424 302.217 115.314 304.871C114.46 305.033 114.371 303.461 113.444 303.992C112.99 304.251 112.606 304.821 112.927 305.444C114.492 308.56 112.466 309.475 110.066 310.203C108.048 310.815 106.145 312.078 105.426 313.848C104.292 316.644 102.543 318.934 100.659 321.11C99.5124 322.436 99.4443 323.261 100.914 323.868C104.03 325.161 103.462 326.961 102.261 329.395C101.532 330.865 100.834 332.439 100.276 333.97C99.2215 336.895 97.9772 339.766 97.2088 342.88C100.899 336.548 103.973 329.884 109.049 324.404C109.526 325.783 108.184 327.123 109.515 328.428C110.791 326.148 112.219 324.022 111.512 321.601C110.507 318.135 111.657 315.691 114.309 313.651C115.055 319.127 115.8 324.604 116.545 330.08C116.599 333.716 118.498 337.221 117.474 340.913C115.989 346.268 118.298 352.187 114.622 357.308C113.041 359.5 112.582 362.509 111.613 365.138C107.756 374.59 101.363 382.078 93.5597 388.483C88.9863 392.228 83.4969 394.56 78.772 398.056C77.225 399.198 76.8388 398.021 76.2713 397.052C72.9759 391.478 71.638 385.246 70.7356 378.979C67.251 354.771 73.8912 334.011 92.5314 317.728C100.689 310.599 109.962 304.802 117.61 297.065C118.955 295.708 122.703 296.113 121.263 292.499C120.163 289.729 116.271 287.33 113.026 287.514C108.907 287.751 105.488 290.128 101.701 291.374C100.973 291.212 100.687 291.636 100.538 292.252C100.275 292.436 100.003 292.617 99.7405 292.792C94.7855 291.736 89.8823 291.87 84.8536 292.633C80.8266 293.238 76.7955 294.829 72.5919 293.687L72.4572 293.485C71.0471 292.095 69.5144 292.419 67.7683 292.849C64.0022 293.768 60.3092 290.674 60.5018 286.764C60.571 285.363 59.9654 284.981 58.9548 284.613C58.156 284.323 56.9258 284.576 56.7968 283.38C56.6594 282.139 57.9097 281.829 58.6554 281.2C59.7 280.298 61.5575 280.275 61.732 278.388ZM169.316 298.901C172.285 301.457 175.456 299.669 178.17 300.655C179.278 301.059 180.413 301.197 180.779 299.575C181.142 297.971 179.915 297.945 178.934 297.383C175.259 295.297 172.949 299.266 169.316 298.901ZM81.3093 291.867C83.3248 291.927 84.83 290.951 86.2963 289.863C86.8489 289.458 87.4637 288.96 87.1939 288.207C86.7017 286.86 85.3186 287.223 84.2963 286.915C83.6859 286.732 82.3847 286.683 82.523 287.086C83.2025 289.073 80.3204 289.809 81.3093 291.867ZM203.862 315.901C203.723 316.03 203.56 316.146 203.444 316.289C203.419 316.328 203.547 316.563 203.582 316.561C203.772 316.529 203.954 316.452 204.14 316.393C204.051 316.226 203.952 316.067 203.862 315.901Z" fill="#1B74BB"/>
<path opacity="0.9" d="M153.202 191.043C156.005 191.627 156.558 194.253 157.575 196.255C164.173 209.211 164.624 222.709 160.606 236.488C157.214 248.128 150.962 258.108 142.252 266.437C138.754 269.785 134.941 272.826 131.489 276.253C130.582 275.758 129.634 277.098 128.363 276.059C130.077 273.596 133.507 272.698 134.018 269.209C134.18 268.089 135.357 267.135 134.641 265.639C133.605 263.467 136.672 262.156 136.256 260.51C134.977 255.477 136.835 251.016 138.084 246.409C138.285 245.662 138.308 244.759 139.345 244.642C139.945 244.569 140.558 244.779 140.739 245.365C141.392 247.486 142.706 247.556 144.415 246.699C145.126 246.334 145.761 246.434 146.012 247.279C146.225 247.968 146.395 248.692 147.318 248.316C148.069 248.012 148.122 247.306 147.96 246.584C147.44 244.192 147.869 241.858 148.403 239.527C148.634 238.498 148.801 237.44 147.417 237.06C146.324 236.755 145.157 236.383 144.257 237.435C143.676 238.114 143.281 238.961 142.728 239.673C142.119 240.451 141.557 241.518 140.292 241.022C138.905 240.484 139.519 239.331 139.679 238.393C140.032 236.402 140.454 234.416 140.848 232.433C139.43 234.64 138.587 236.944 137.693 239.238C136.961 241.119 136.046 242.64 133.824 240.765C132.76 239.872 131.97 240.99 131.109 241.23C130.518 241.391 130.786 242.108 131.069 242.663C131.832 244.142 131.094 251.097 129.821 251.437C126.737 252.265 126.741 254.834 125.882 257.527C124.643 254.879 125.883 252.864 126.046 250.817C127.327 251.011 127.883 250.108 128.312 249.18C128.696 248.348 128.939 247.174 127.909 246.812C126.48 246.309 126.786 247.802 126.54 248.513C126.28 249.248 126.215 250.056 126.061 250.829C123.916 252.079 121.234 251.589 119.2 251.577C115.971 251.554 116.673 252.55 117.104 254.383C117.602 256.535 117.806 258.584 114.578 258.466C112.903 252.787 113.001 246.937 113.18 241.12C113.427 233.203 114.584 225.415 117.595 218.013C120.777 216.297 122.249 210.528 127.413 214.176C127.578 213.702 127.678 213.548 127.645 213.497C126.01 211.39 123.441 209.28 127.776 207.304C127.814 203.381 130.174 200.392 131.864 197.129C134.847 194.963 137.631 192.478 141.182 191.193C141.457 191.038 141.741 190.885 142.017 190.73C142.017 190.73 142.032 190.698 142.04 190.7C143.109 190.642 144.162 190.537 144.545 189.268L144.554 189.27C146.191 190.748 150.944 188.69 149.511 194.003C150.407 192.312 152.114 192.12 153.202 191.043ZM144.889 249.851C143.856 252.318 143.163 253.866 142.561 255.441C142.357 255.985 142.509 256.583 143.188 256.771C143.876 256.96 144.257 256.494 144.379 255.925C144.735 254.266 145.446 252.626 144.889 249.851Z" fill="#1B74BB"/>
<path opacity="0.9" d="M328.836 185.855C332.102 185.824 335.368 185.793 338.634 185.762C337.394 186.502 336.612 187.185 338.789 187.662C340.773 188.1 343.234 187.725 343.908 190.925C344.076 187.578 346.224 186.442 348.573 186.98C355.225 188.513 361.779 190.491 368.376 192.301C368.973 192.464 369.232 192.961 369.446 193.51C370.803 196.925 371.338 197.049 373.644 194.328C374.158 193.723 374.612 193.333 375.318 193.735C375.821 194.019 376.833 194.334 376.22 195.129C375.265 196.372 376.223 196.431 376.975 196.607C377.626 196.763 378.495 196.918 378.519 195.919C378.576 193.571 380.088 194.667 381.162 194.715L381.203 194.776C379.887 196.82 380.496 197.71 382.855 198.109C385.991 198.646 389.021 198.044 392.46 197.933C390.998 197.241 389.877 196.729 388.768 196.194C387.788 195.719 386.809 194.843 387.203 193.874C387.783 192.452 387.575 190.288 389.084 189.732C390.735 189.126 392.91 189.48 394.008 191.079C395.614 193.416 397.887 193.939 400.362 194.37C401.317 194.534 402.836 194.452 402.873 195.63C402.926 197.824 404.614 198.169 405.947 198.714C408.281 199.676 409.47 201.345 410.005 203.705C410.172 204.446 410.56 205.178 411.004 205.799C413.659 209.455 416.671 212.893 417.389 217.631C418.775 217.077 418.326 214.9 420.254 215.31C420.857 216.364 418.938 216.873 419.478 217.54C420.766 219.15 417.345 218.818 418.533 219.92C419.808 221.108 420.981 219.385 422.291 219.305C423.185 219.247 423.648 218.501 423.012 217.571C422.259 216.477 422.949 215.383 422.977 214.279C424.707 215.331 426.084 216.583 425.467 218.889C424.853 221.186 423.026 221.583 421.014 221.767C420.123 221.852 419.122 221.924 418.396 222.364C412.654 225.877 405.93 225.805 399.731 227.62C396.975 228.425 394.392 227.833 391.744 227.349C380.192 225.233 368.831 222.509 358.537 216.53C357.957 216.196 357.454 215.738 356.914 215.333C357.929 212.644 359.214 213.258 360.845 214.858C361.363 215.372 362.593 216.525 363.239 214.819C363.609 213.836 364.206 212.243 362.587 212.034C360.685 211.795 359.18 211.146 357.659 210.049C355.789 208.689 354.432 206.463 351.772 206.344C351.685 206.344 351.535 205.956 351.541 205.748C351.685 201.994 348.885 202.188 346.597 202.44C345.32 202.579 344.639 202.356 344.125 201.424C342.217 197.97 341.493 197.79 338.498 200.147C333.617 197.14 329.951 192.681 325.459 189.21C328.176 189.48 330.705 190.429 333.246 191.362C334.288 191.745 335.669 191.923 336.111 190.491C336.572 189.011 334.904 189.221 334.262 188.586C332.71 187.116 329.76 188.459 328.836 185.855Z" fill="#5E8BC8"/>
<path opacity="0.9" d="M173.156 240.042C182.905 232.776 193.791 228.663 205.993 228.436C210.897 228.346 215.578 229.942 220.333 230.906C221.275 231.093 221.828 231.605 221.374 232.572C218.495 238.733 218.114 245.698 214.922 251.814C211.87 257.662 207.316 262.101 202.583 266.382C195.951 272.391 188.457 277.022 179.678 279.241C177.635 279.76 175.713 280.722 173.36 279.241C171.464 278.051 169.589 280.447 167.451 280.781C162.409 281.568 157.364 281.403 152.326 281.728C147.351 282.048 142.892 283.816 138.542 286.042C138.209 285.696 137.907 285.147 138.28 284.854C141.199 282.57 143.23 279.131 146.871 277.829C149.307 276.961 151.305 275.882 152.324 273.307C152.645 272.489 154.111 271.269 154.601 272.363C155.642 274.727 156.242 272.724 156.953 272.403C158.94 271.506 159.581 268.594 161.79 268.43C164.523 268.223 164.641 266.971 163.837 265.082C167.943 265.62 171.776 264.583 174.359 262.232C175.738 260.969 176.944 258.991 178.74 258.309C180.604 257.597 183.836 255.803 184.048 256.186C185.455 258.781 186.557 256.624 186.906 255.969C187.802 254.278 188.425 254.306 189.746 255.529C190.934 256.631 192.219 255.838 192.902 254.734C193.651 253.52 194.479 251.816 193.322 250.695C192.134 249.55 191.632 251.633 190.672 251.975C190.494 252.036 190.259 251.945 190.001 251.92C189.544 250.572 190.6 249 189.414 247.716C189.111 247.393 189.295 246.644 189.791 246.699C191.072 246.849 192.338 246.813 192.007 245.183C191.736 243.863 190.111 244.299 189.112 243.917L189.126 243.937C190.818 241.977 192.721 241.639 194.892 242.849C196.056 243.5 197.12 243.117 197.974 242.248C198.97 241.241 198.009 240.316 197.598 239.483C196.871 238.002 196.18 238.747 195.306 239.542C194.343 240.425 192.554 240.235 192.644 239.082C192.855 236.399 192.523 236.307 190.671 238.061C190.035 238.668 189.827 237.779 189.517 237.359C188.969 236.604 189.071 235.34 187.486 235.007C187.77 238.365 184.415 239.637 183.52 242.42C183.294 243.117 181.756 244.96 181.129 242.311C180.64 240.248 180.175 241.396 179.679 242.267C179.439 242.682 178.807 243.089 178.728 242.654C178.067 239.124 175.063 240.78 173.156 240.042ZM207.364 253.254C208.481 247.641 208.353 247.493 202.803 247.716C202.115 247.745 201.394 247.899 201.212 246.972C201.087 246.327 201.522 245.941 202 245.6C202.672 245.122 204.904 245.68 203.338 243.709C202.088 242.132 201.822 244.211 201.07 244.48C200.261 244.765 199.661 245.851 198.878 245.965C197.195 246.207 196.199 247.04 196.366 248.619C196.551 250.411 198.376 250.46 199.649 250.74C203.491 251.592 204.383 252.73 203.6 256.487C203.475 257.074 203.233 257.585 203.955 257.868C204.545 258.108 205.062 257.835 205.504 257.46C206.891 256.243 207.174 254.561 207.364 253.254ZM205.551 259.199C203.472 258.846 201.413 259.135 199.342 259.265C198.616 259.312 197.977 259.622 197.79 260.345C197.441 261.656 198.818 261.152 199.134 261.538C200.656 263.378 201.688 263.549 202.948 261.258C203.458 260.32 204.555 261.22 205.402 261.353C206.124 261.462 206.824 261.016 206.889 260.295C206.965 259.516 206.281 259.178 205.551 259.199ZM193.97 260.126C191.633 257.687 189.521 258.419 187.642 260.395C186.958 261.106 185.894 262.152 186.924 263.301C187.795 264.278 188.835 263.576 189.665 263.051C191.103 262.15 192.484 261.14 193.97 260.126ZM206.681 244.654C207.506 244.766 208.327 244.772 208.391 243.658C208.446 242.725 207.816 242.242 206.991 242.042C206.083 241.818 205.443 242.136 205.299 243.121C205.154 244.158 205.86 244.473 206.681 244.654ZM194.532 245.45C194.642 245.289 194.864 245.097 194.839 244.961C194.813 244.825 194.522 244.618 194.386 244.644C194.25 244.669 194.044 244.96 194.069 245.096C194.091 245.249 194.362 245.337 194.532 245.45ZM183.186 239.707C183.297 239.545 183.507 239.369 183.481 239.233C183.456 239.096 183.18 238.902 183.044 238.927C182.908 238.952 182.711 239.237 182.738 239.364C182.762 239.509 183.024 239.596 183.186 239.707Z" fill="#1B74BB"/>
<path opacity="0.9" d="M61.732 278.388C61.5592 280.267 59.7 280.298 58.6369 281.205C57.8895 281.842 56.6392 282.152 56.7783 283.386C56.9157 284.583 58.1459 284.33 58.9363 284.619C59.9554 284.987 60.5609 285.37 60.4834 286.77C60.2907 290.679 63.9837 293.773 67.7498 292.854C69.5043 292.426 71.027 292.109 72.4387 293.49C71.9262 293.65 71.4069 293.8 70.9062 293.989C70.8776 294.001 70.9218 294.481 71.0278 294.52C71.8518 294.858 72.2648 294.364 72.5751 293.683C76.7804 294.817 80.8097 293.235 84.8367 292.63C89.8654 291.866 94.7687 291.733 99.7236 292.789C94.3417 296.513 88.7442 299.959 83.6181 304.022C72.5361 312.805 59.6892 313.549 46.511 312.577C39.8706 312.086 34.0713 308.949 28.7973 304.929C28.3044 304.551 27.7859 303.819 28.0831 303.555C30.5838 301.31 29.0173 298.247 29.7828 295.674C30.0475 294.784 30.4857 294.251 31.4507 294.408C32.7032 294.613 33.9117 294.426 35.8846 293.91C33.3291 293.489 33.7452 291.178 32.2147 290.393L32.2417 290.434C32.2437 289.15 33.0044 288.402 33.9871 287.724C42.3692 282.011 51.4866 278.533 61.732 278.388Z" fill="#5E8BC8"/>
<path opacity="0.9" d="M306.631 186.808C308.192 186.734 309.609 186.553 308.834 184.346C308.628 183.755 309.02 183.807 309.515 183.687C312.191 183.023 312.362 181.459 310.871 179.424C310.966 178.945 311.061 178.466 311.155 177.995C313.667 177.098 312.811 174.682 313.35 172.938C313.72 171.736 315.778 169.919 313.95 169.354C311.983 168.744 312.762 171.589 312.007 172.749C311.725 170.431 311.436 168.111 311.154 165.793C313.477 166.77 315.29 165.079 317.657 164.562C317.4 166.468 317.153 168.279 316.906 170.091C319.849 163.033 319.187 155.25 321.327 147.701C322.949 149.387 321.147 150.452 321.436 151.811C321.782 153.452 322.715 154.782 323.887 155.129C325.531 155.604 325.433 153.681 325.832 152.598C325.986 152.175 326.149 151.753 326.359 151.358C326.671 150.756 327.141 150.064 326.478 149.53C325.573 148.808 325.108 149.738 324.557 150.266C324.191 150.612 324.185 151.388 323.282 151.27C323.726 149.043 324.132 146.827 324.62 144.636C324.804 143.799 324.645 142.667 325.761 142.373C327.124 142.024 327.178 143.555 328.095 144.218C329.248 142.945 329.811 141.389 330.334 139.816C330.533 139.209 330.858 138.06 330.256 137.966C325.549 137.248 329.948 135.389 329.654 134.361C328.823 131.514 332.885 129.763 330.998 126.907C330.946 126.818 331.355 126.21 331.557 126.206C332.083 126.197 332.722 126.237 333.138 126.521C334.011 127.14 333.062 128.261 333.641 129.04C335.765 124.825 335.971 119.791 339.486 116.184C337.156 120.734 338.555 126.088 335.435 130.699C332.696 134.757 331.343 139.842 330.368 144.784C329.841 147.474 327.801 149.295 327.013 151.934C326.068 155.1 325.978 158.716 323.592 161.394C323.523 161.476 323.426 161.658 323.455 161.69C326.588 165.266 321.204 167.906 322.422 171.311C323.717 171.525 323.56 169.24 325.023 169.75C325.34 169.56 325.656 169.378 325.974 169.188L325.907 169.218C326.688 169.199 327.33 168.96 327.553 168.104L327.521 168.133C331.116 166.359 333.798 163.425 336.548 160.671C338.436 158.784 340.926 157.603 342.394 155.231C342.987 154.275 344.262 154.057 345.473 154.341C346.884 154.675 347.843 153.94 348.647 152.885C349.635 153.143 350.341 152.541 351.125 152.112C351.833 151.72 352.573 150.592 353.431 151.549C354.273 152.503 354.133 153.602 352.995 154.441C352.616 154.724 352.495 155.154 353.219 155.647C356.032 153.543 359.952 153.127 362.327 150.062C363.055 150.093 363.704 149.995 363.738 149.076C363.74 148.98 363.4 148.755 363.279 148.792C362.672 148.986 362.486 149.526 362.349 150.084C359.962 149.739 359.137 149.008 361.569 147.282C361.978 146.987 362.169 146.379 362.452 145.92C362.518 145.855 362.581 145.797 362.647 145.732C362.588 145.807 362.531 145.875 362.472 145.95C361.573 145.509 360.68 146.878 359.332 145.657C362.212 144.361 362.168 141.287 363.79 139.199L363.75 139.226C364.445 139.067 366.085 140.18 365.329 138.055C368.876 135.162 372.874 133.119 377.158 131.578C377.37 132.005 377.576 131.933 377.788 131.573L377.756 131.601C378.323 131.697 378.872 131.745 379.247 131.182L379.23 131.179C380.757 133.605 377.927 133.068 377.348 133.957C377.968 134.622 378.674 135.2 379.139 135.938C379.619 136.689 379.221 137.064 378.333 137.263C377.693 137.406 376.849 135.369 376.49 137.394C376.274 138.609 376.931 139.569 377.941 140.111C378.882 140.613 380.721 139.756 380.581 141.824C380.471 143.427 379.049 143.59 377.885 143.952C376.498 144.375 375.817 145.602 375.723 146.736C375.57 148.557 377.251 147.267 378.006 147.688C378.392 147.905 378.898 147.953 378.898 148.521C378.904 149.064 378.487 149.356 378.049 149.409C377.26 149.505 376.447 149.465 374.919 149.502C376.997 150.169 375.714 152.621 377.794 152.441C371.296 156.022 364.772 159.467 357.494 161.346C353.597 162.352 349.862 163.993 346.063 165.386C344.347 166.014 342.653 166.751 341.106 164.382C341.364 166.774 340.28 167.345 338.44 167.677C332.521 168.744 327.169 171.26 322.005 174.329C318.923 176.161 316.676 178.666 314.714 181.542C313.887 181.657 313.091 181.927 312.981 182.874C312.852 184.002 313.826 184.03 314.574 184.222C316.01 184.604 317.307 185.247 318.429 186.239C317.554 186.021 316.677 185.82 315.818 185.57C314.783 185.277 311.365 187.785 311.869 188.505C313.554 190.885 311.325 192.511 311.149 194.581C310.895 194.452 310.636 194.392 310.634 194.313C310.552 192.838 311.397 190.482 309.213 190.475C306.786 190.464 307.716 192.902 307.656 194.436C307.577 196.237 307.711 198.064 307.473 199.833C307.153 202.232 306.091 204.93 310.516 203.426C310.364 204.19 310.339 204.579 310.277 204.584C306.32 204.967 306.473 207.844 306.264 210.781C305.825 216.852 305.16 222.913 304.489 228.963C303.868 234.543 303.117 240.115 302.427 245.69C301.696 245.676 301.215 247.345 300.283 246.015C302.009 244.454 301.563 242.304 301.793 240.358C303.808 222.548 305.652 204.72 306.631 186.808ZM319.444 166.691C321.662 163.892 323.119 160.872 322.783 157.293C321.465 160.359 319.499 163.208 319.444 166.691ZM350.811 157.16C351.043 156.524 350.789 156.308 350.452 156.197C349.859 156.018 349.311 156.18 348.98 156.699C348.678 157.163 348.848 157.625 349.422 157.599C349.934 157.57 350.437 157.286 350.811 157.16Z" fill="#5E8BC8"/>
<path opacity="0.9" d="M173.156 240.042C175.061 240.789 178.067 239.124 178.724 242.671C178.804 243.106 179.434 242.707 179.675 242.283C180.172 241.413 180.645 240.266 181.126 242.328C181.752 244.977 183.29 243.134 183.517 242.436C184.411 239.653 187.767 238.382 187.483 235.024C189.058 235.364 188.965 236.621 189.514 237.376C189.822 237.804 190.023 238.683 190.668 238.077C192.52 236.324 192.851 236.416 192.641 239.099C192.551 240.252 194.34 240.442 195.302 239.559C196.177 238.763 196.859 238.017 197.595 239.5C198.006 240.333 198.969 241.249 197.971 242.265C197.116 243.134 196.044 243.515 194.889 242.866C192.717 241.656 190.813 242.002 189.122 243.954C189.057 244.02 189.002 244.078 188.936 244.144C188.993 244.077 189.052 244.001 189.101 243.932C190.106 244.325 191.725 243.878 191.995 245.198C192.326 246.828 191.06 246.864 189.779 246.714C189.283 246.659 189.108 247.41 189.402 247.731C190.589 249.015 189.534 250.578 189.99 251.936C190.247 251.961 190.482 252.051 190.661 251.99C191.628 251.65 192.122 249.565 193.31 250.71C194.476 251.833 193.639 253.535 192.891 254.749C192.208 255.853 190.923 256.646 189.735 255.545C188.405 254.319 187.79 254.293 186.894 255.984C186.545 256.639 185.441 258.804 184.037 256.201C183.825 255.818 180.592 257.612 178.729 258.324C176.931 259.014 175.724 260.993 174.347 262.247C171.764 264.598 167.929 265.643 163.826 265.097C164.629 266.987 164.511 268.238 161.778 268.446C159.568 268.617 158.929 271.521 156.941 272.418C156.23 272.739 155.624 274.733 154.589 272.378C154.109 271.278 152.641 272.506 152.313 273.322C151.293 275.897 149.296 276.976 146.859 277.845C143.218 279.146 141.189 282.577 138.268 284.87C137.895 285.162 138.207 285.705 138.53 286.057C134.294 287.668 131.863 291.893 127.675 293.566C127.314 293.45 126.944 293.333 126.574 293.216C130.865 287.772 136.251 283.411 141.646 279.227C145.802 276.001 148.26 271.904 150.503 267.485C155.237 258.147 160.514 249.24 169.106 242.826C169.742 242.35 170.244 241.717 171.135 241.763C172.27 241.727 173.044 241.261 173.208 240.044L173.156 240.042Z" fill="#5E8BC8"/>
<path opacity="0.9" d="M211.833 331.707C211.752 330.18 212.887 328.519 209.844 327.87C208.62 327.609 208.805 323.427 209.434 321.368C210.134 319.079 209.957 318.302 207.75 317.356C206.607 316.866 205.2 315.634 205.647 313.566C206.062 311.657 204.751 310.732 202.905 310.478C198.939 309.942 194.868 309.761 191.056 308.67C187.888 307.769 184.741 307.291 181.514 306.946C180.487 306.837 178.961 306.56 178.834 307.635C178.474 310.673 175.435 309.693 174.104 311.157C173.904 311.371 173.18 311.366 172.894 311.178C172.369 310.829 172.494 310.199 172.669 309.631C172.938 308.715 175.324 308.011 172.869 306.736C172.433 306.51 173.409 305.734 174.071 305.569C175.58 305.188 177.543 304.679 178.614 304.962C182.477 305.975 186.629 303.291 190.261 306.075C191.042 306.676 191.913 305.853 192.232 305.262C192.845 304.117 191.852 303.177 191.043 302.85C189.489 302.226 187.774 302.016 186.126 301.601C185.345 301.401 184.465 301.122 184.584 300.132C184.704 299.178 185.622 299.57 186.234 299.482C188.958 299.098 191.577 299.506 194.17 300.398C194.939 300.664 196.087 301.129 196.463 299.858C196.751 298.85 195.646 298.648 195.027 298.245C193.744 297.404 192.323 297.165 190.809 297.397C189.52 297.594 188.426 297.027 188.118 295.857C187.729 294.382 188.229 292.926 189.403 291.858C189.99 291.32 190.962 291.357 190.983 292.173C191.125 297.826 195.422 295.118 197.705 295.109C199.515 295.103 200.143 295.507 199.904 296.796C199.239 300.358 201.523 302.272 203.827 304.573C202.217 305.109 200.348 304.798 199.094 306.575C201.377 307.265 203.499 311.051 205.703 307.532C207.607 304.505 210.342 304.114 213.047 303.212C214.451 302.749 215.168 302.088 215.151 300.634C222.012 304.979 225.854 311.849 229.782 318.544C231.362 321.234 229.378 323.827 225.241 325.379C224.139 325.16 223.414 325.513 223.238 326.701C223.032 326.817 222.825 326.934 222.625 327.06C221.522 326.194 220.426 325.329 219.011 324.227C218.786 326.942 218.294 329.106 216.081 325.469C214.957 327.21 216.533 328.468 216.38 329.896L216.383 329.879C215.558 329.811 214.141 328.848 214.779 330.957C213.958 331.79 212.963 332.002 211.833 331.707Z" fill="#5E8BC8"/>
<path opacity="0.9" d="M126.054 250.819C125.892 252.865 124.658 254.891 125.89 257.529C126.749 254.835 126.755 252.26 129.829 251.439C131.102 251.098 131.84 244.144 131.077 242.664C130.794 242.11 130.517 241.391 131.117 241.231C131.985 241.002 132.768 239.874 133.832 240.767C136.056 242.633 136.97 241.112 137.701 239.24C138.595 236.946 139.44 234.633 140.856 232.435C140.462 234.417 140.032 236.402 139.687 238.395C139.519 239.331 138.905 240.484 140.3 241.024C141.567 241.512 142.127 240.453 142.736 239.674C143.289 238.963 143.683 238.124 144.265 237.437C145.164 236.393 146.322 236.763 147.425 237.061C148.809 237.441 148.651 238.502 148.411 239.528C147.877 241.859 147.448 244.193 147.968 246.585C148.122 247.306 148.077 248.013 147.326 248.318C146.405 248.685 146.233 247.969 146.021 247.281C145.761 246.434 145.132 246.344 144.423 246.701C142.713 247.566 141.4 247.488 140.747 245.366C140.567 244.78 139.953 244.571 139.353 244.643C138.314 244.769 138.293 245.664 138.092 246.41C136.843 251.018 134.985 255.479 136.264 260.511C136.68 262.157 133.615 263.46 134.649 265.64C135.364 267.145 134.188 268.09 134.026 269.211C133.515 272.699 130.094 273.599 128.372 276.06C129.65 277.101 130.592 275.751 131.497 276.254C130.974 277.565 129.922 278.369 128.824 279.146C125.941 279.315 123.731 284.841 125.288 287.998C125.201 288.523 125.105 289.045 125.017 289.578C123.764 289.285 122.513 288.984 121.261 288.691C121.084 288.437 120.909 288.175 120.732 287.921L120.749 287.969C122.175 280.452 119.062 273.788 116.773 266.974C115.841 264.194 114.806 261.446 114.601 258.479C117.82 258.596 117.625 256.548 117.118 254.395C116.696 252.564 115.993 251.576 119.215 251.589C121.249 251.601 123.931 252.091 126.076 250.841L126.054 250.819Z" fill="#5E8BC8"/>
<path opacity="0.9" d="M422.96 214.32C422.925 215.413 422.244 216.509 422.995 217.611C423.631 218.541 423.168 219.288 422.274 219.345C420.965 219.426 419.8 221.15 418.516 219.96C417.33 218.851 420.758 219.192 419.462 217.58C418.923 216.905 420.842 216.396 420.237 215.35C418.307 214.949 418.758 217.117 417.372 217.671C416.653 212.942 413.65 209.497 410.987 205.84C410.541 205.227 410.155 204.487 409.988 203.746C409.453 201.386 408.264 199.717 405.93 198.754C404.597 198.209 402.917 197.866 402.856 195.67C402.828 194.494 401.3 194.574 400.345 194.411C397.87 193.979 395.597 193.457 393.991 191.119C392.893 189.521 390.718 189.167 389.067 189.773C387.559 190.328 387.766 192.492 387.186 193.914C386.793 194.875 387.763 195.758 388.751 196.235C389.86 196.77 390.973 197.28 392.443 197.974C388.995 198.083 385.965 198.685 382.838 198.15C380.481 197.742 379.87 196.86 381.186 194.816C381.991 194.81 382.894 195.541 383.784 194.32C382.674 193.662 381.813 193.203 381.145 194.756C380.071 194.708 378.559 193.612 378.502 195.959C378.478 196.959 377.599 196.81 376.958 196.648C376.217 196.465 375.248 196.412 376.204 195.17C376.816 194.374 375.802 194.068 375.301 193.776C374.595 193.373 374.141 193.763 373.627 194.369C371.331 197.082 370.786 196.965 369.429 193.551C369.207 193 368.956 192.504 368.359 192.342C361.771 190.533 355.216 188.556 348.556 187.02C346.208 186.483 344.067 187.621 343.891 190.966C343.225 187.767 340.756 188.141 338.772 187.702C336.595 187.225 337.379 186.534 338.617 185.802C346.137 184.469 353.749 184.115 361.33 183.352C370.033 182.482 378.402 183.815 386.806 185.549C387.36 185.66 387.89 185.852 388.437 186.005C389.033 186.962 390.039 186.953 390.986 187.071C398.833 190.065 406.35 193.658 411.946 200.187C415.851 204.677 420.059 209 422.96 214.32Z" fill="#1B74BB"/>
<path opacity="0.9" d="M243.389 249.872C240.871 253.171 240.576 256.938 242.529 260.34C242.918 261.02 243.131 261.796 243.461 262.508C244.094 263.848 243.727 264.596 242.239 264.169C239.749 263.464 237.031 262.539 235.817 260.253C234.671 258.103 235.837 255.802 237.178 253.676C242.218 245.7 249.28 239.943 257.742 236.334C266.836 232.449 276.323 232.075 285.604 236.464C288.312 237.745 291.694 237.44 293.907 239.933C293.339 241.602 291.452 240.283 290.735 241.25C288.819 243.847 287.059 242.99 285.13 241.305C283.805 240.15 283.002 241.195 282.592 242.293C281.767 244.461 283.241 246.143 285.695 245.845C288.13 245.553 290.269 245.612 290.825 248.657C286.796 249.139 282.71 249.295 278.806 250.554C276.769 251.214 273.944 249.516 273.672 247.366C273.61 246.847 273.984 246.24 273.239 245.812C271.397 246.153 271.259 249.742 268.516 248.506C266.961 247.803 268.2 246.364 268.071 245.342C266.565 245.357 266.399 246.276 266.079 247.138C265.015 250.027 262.763 250.802 259.919 250.603C258.954 250.533 258.812 249.972 258.793 249.278C258.763 248.154 258.848 247.027 258.809 245.901C258.699 242.813 257.016 241.255 253.007 240.982C251.006 240.845 250.397 242.323 250.455 244.142C250.479 244.811 249.873 245.354 249.378 245.203C245.116 243.918 244.718 247.542 243.323 249.894L243.389 249.872Z" fill="#5E8BC8"/>
<path opacity="0.9" d="M111.592 365.151C112.563 362.515 113.02 359.514 114.601 357.321C118.277 352.201 115.968 346.282 117.454 340.926C118.477 337.234 116.587 333.731 116.525 330.094C117.828 329.34 117.627 327.937 117.814 326.778C118.691 321.449 119.474 316.111 120.265 310.774C120.923 306.328 121.53 301.872 122.162 297.421C125.442 297.497 126.659 299.242 126.242 302.391C126.162 303.013 126.39 303.669 126.48 304.316C125.548 308.952 123.801 313.601 123.852 318.223C123.937 325.918 121.082 333.106 120.844 340.579C120.645 346.759 119.89 352.88 119.676 359.048C119.626 360.4 119.23 361.728 118.393 362.863C118.094 363.266 117.959 364.121 117.262 363.625C116.926 363.383 116.933 362.642 116.415 362.172C117.111 368.163 113.105 374.633 118.693 380.147C120.213 381.646 119.019 383.689 118.87 385.362C118.524 389.163 119.525 393.267 116.882 396.977C116.975 398.087 119.64 397.124 119.077 398.942C118.784 399.888 117.572 399.831 116.722 400.019C114.95 400.401 114.919 399.11 114.448 397.872C113.889 396.381 111.868 395.865 111.503 393.967C111.293 392.868 111.272 391.921 112.424 391.975C115.098 392.106 114.421 390.46 114.432 388.907C114.536 380.22 114.727 371.532 114.901 362.84C114.912 362.301 115.14 361.726 114.432 361.07C112.819 361.928 113.711 364.735 111.592 365.151ZM117.942 383.57C117.801 383.927 117.658 384.117 117.665 384.301C117.667 384.642 117.859 384.689 118.069 384.425C118.138 384.343 118.19 384.214 118.173 384.123C118.134 383.967 118.05 383.819 117.942 383.57Z" fill="#5E8BC8"/>
<path opacity="0.9" d="M255.33 186.363C254.715 186.118 253.891 186.041 253.536 185.586C251.962 183.57 250.554 182.171 249.085 185.644C248.818 186.281 248.163 186.369 247.688 185.986C246.145 184.736 245.965 182.787 246 181.117C246.036 179.578 247.599 179.234 249.065 179.552C249.131 179.617 249.196 179.683 249.262 179.748C249.186 179.689 249.11 179.631 249.036 179.564C249.23 178.458 250.376 177.708 250.198 176.362C249.28 176.406 248.232 177.019 247.577 175.919C247.304 175.445 246.908 174.886 246.967 174.417C247.053 173.718 247.813 173.94 248.343 173.827C250.766 173.331 253.037 174.307 255.389 174.478C262.311 174.999 269.306 175.073 276.147 176.137C281.453 176.966 286.752 177.873 292.087 178.515C293.324 178.665 294.555 178.936 295.482 179.898C288.259 181.544 281.848 185.081 275.375 188.492C273.228 189.619 270.867 190.46 268.322 190.25C267.075 189.093 267.515 187.277 266.631 185.965C266.027 185.05 266.796 184.653 267.453 184.688C271.752 184.914 272.164 181.747 272.757 178.721C273.006 178.613 273.534 179.164 273.52 178.401C273.27 178.517 273.02 178.633 272.779 178.743C271.33 178.515 270.06 178.088 268.829 177.074C267.433 175.923 265.648 175.183 264.361 177.565C263.251 179.632 261.646 178.562 260.742 177.613C258.624 175.392 256.486 175.727 254.147 176.982C254.019 177.716 254.571 177.617 254.978 177.593C255.987 177.532 257.385 177.268 257.635 178.34C257.833 179.192 257.143 180.199 256.16 181.051C254.699 182.333 255.839 184.595 255.33 186.363C255.32 186.369 255.33 186.363 255.33 186.363Z" fill="#5E8BC8"/>
<path opacity="0.9" d="M377.793 152.45C375.712 152.63 376.995 150.177 374.917 149.51C376.445 149.474 377.25 149.512 378.047 149.417C378.486 149.365 378.902 149.072 378.897 148.529C378.886 147.968 378.39 147.913 378.005 147.697C377.25 147.276 375.568 148.566 375.721 146.744C375.814 145.619 376.505 144.385 377.883 143.96C379.056 143.6 380.47 143.436 380.579 141.833C380.72 139.764 378.878 140.629 377.94 140.119C376.929 139.578 376.272 138.617 376.488 137.402C376.847 135.377 377.692 137.415 378.332 137.271C379.219 137.072 379.607 136.704 379.137 135.947C378.673 135.208 377.966 134.631 377.347 133.966C377.932 133.087 380.764 133.615 379.228 131.187C381.079 129.398 383.221 128.514 385.834 128.912C389.642 129.495 393.456 130.001 397.251 130.608C400.859 131.186 400.962 131.503 398.595 134.395C398.098 135.004 397.502 135.54 396.951 136.112C395.76 134.277 393.638 134.666 391.946 134.207C390.934 133.936 389.509 134.596 389.728 136.395C390.028 138.796 389.758 140.943 387.613 142.674C386.656 143.444 387.155 144.757 388.253 145.518C388.001 145.729 387.749 145.941 387.499 146.145C387.225 146.335 386.943 146.523 386.668 146.722C386.422 146.9 386.177 147.078 385.923 147.255C385.491 147.23 385.231 147.44 385.131 147.857C383.089 150.036 380.192 150.848 377.793 152.45Z" fill="#1B74BB"/>
<path opacity="0.9" d="M338.464 200.184C341.458 197.828 342.183 198.007 344.091 201.461C344.605 202.393 345.286 202.616 346.563 202.477C348.851 202.225 351.651 202.031 351.507 205.785C351.502 205.985 351.652 206.373 351.738 206.381C354.408 206.493 355.763 208.728 357.625 210.086C359.146 211.183 360.651 211.832 362.553 212.071C364.172 212.28 363.575 213.873 363.204 214.856C362.559 216.562 361.329 215.409 360.811 214.895C359.18 213.295 357.895 212.681 356.879 215.37C349.632 211.648 344.101 205.848 338.464 200.184ZM361.863 213.558C361.815 213.715 361.775 213.873 361.726 214.029C361.8 213.965 361.923 213.92 361.948 213.837C361.971 213.763 361.897 213.652 361.863 213.558Z" fill="#1B74BB"/>
<path opacity="0.9" d="M290.84 248.669C290.286 245.615 288.137 245.563 285.71 245.857C283.256 246.155 281.782 244.473 282.607 242.305C283.026 241.209 283.828 240.163 285.146 241.316C287.074 243.002 288.835 243.859 290.75 241.261C291.467 240.295 293.354 241.614 293.922 239.945C294.328 240.104 294.735 240.255 295.142 240.406C295.364 240.564 295.586 240.721 295.808 240.879C297.947 242.03 298.375 244.666 300.281 246.023C301.214 247.353 301.695 245.684 302.426 245.699C301.792 247.608 303.589 248.988 303.53 250.775C303.127 250.913 302.734 251.045 302.332 251.174C302.425 251.324 302.517 251.473 302.618 251.625C302.914 251.325 303.21 251.026 303.505 250.727C304.466 251.564 305.618 252.405 303.312 252.968C302.476 253.177 301.655 253.433 300.822 253.669C300.403 253.315 299.977 252.951 299.56 252.588C299.117 248.054 295.524 249.025 292.696 248.654C292.514 248.557 292.339 248.557 292.16 248.669C291.706 248.666 291.277 248.668 290.84 248.669Z" fill="#1B74BB"/>
<path opacity="0.9" d="M105.701 459.782C104.021 459.133 102.217 460.425 100.555 459.465C103.148 452.19 105.75 444.916 108.343 437.641C108.577 436.989 108.77 436.241 109.651 436.469C110.707 436.74 110.708 437.613 110.857 438.578C111.786 444.755 109.075 450.12 107.168 455.662C106.692 457.044 106.192 458.412 105.701 459.782Z" fill="#5E8BC8"/>
<path opacity="0.9" d="M362.467 145.932C362.174 146.398 361.991 147.008 361.585 147.294C359.154 149.011 359.977 149.751 362.364 150.095L362.344 150.065C359.969 153.13 356.049 153.547 353.235 155.651C352.512 155.157 352.633 154.727 353.012 154.445C354.149 153.605 354.29 152.506 353.448 151.553C352.591 150.587 351.858 151.725 351.142 152.116C350.358 152.545 349.652 153.147 348.664 152.889C348.465 152.439 348.259 151.979 348.06 151.529C348.121 151.226 348.179 150.932 348.231 150.628C348.328 150.446 348.447 150.287 348.597 150.15C348.832 149.979 349.059 149.806 349.294 149.634L349.346 149.592C349.579 149.385 349.811 149.187 350.045 148.98L350.055 148.973C350.303 148.778 350.552 148.583 350.801 148.388L350.821 148.374C351.071 148.171 351.323 147.959 351.573 147.756C355.369 144.493 359.013 141.026 363.805 139.211C362.184 141.299 362.227 144.373 359.347 145.669C360.695 146.89 361.588 145.521 362.488 145.962L362.467 145.932Z" fill="#1B74BB"/>
<path d="M310.686 103.028C309.004 102.649 308.358 101.595 307.635 99.9573C304.513 92.8984 302.236 85.37 297.015 79.4133C296.153 78.4294 296.526 77.5689 296.595 76.6045C302.638 81.1089 305.768 87.6016 308.401 94.3535C309.493 97.1214 311.121 99.8301 310.686 103.028Z" fill="#BAAC90"/>
<path opacity="0.9" d="M179.698 287.927C179.278 289.817 180.824 291.007 181.392 292.544C181.716 293.421 182.14 294.23 181.289 294.995C180.541 295.676 179.877 295.238 179.162 294.834C177.921 294.133 176.96 293.601 175.272 294.619C173.048 295.958 172.315 293.183 171.055 292.006C170.259 291.263 170.336 288.771 168.221 290.612C168.146 290.685 167.396 290.239 167.227 289.899C166.499 288.418 168.565 288.314 168.648 287.195C172.371 286.8 176.071 286.873 179.698 287.927Z" fill="#5E8BC8"/>
<path opacity="0.9" d="M131.87 197.14C130.189 200.404 127.82 203.391 127.782 207.314C123.454 209.3 126.023 211.41 127.651 213.507C127.685 213.558 127.584 213.712 127.42 214.186C122.257 210.53 120.777 216.297 117.602 218.023C117.849 213.53 120.285 210.076 122.9 206.683C124.727 204.313 126.531 201.921 128.267 199.48C129.18 198.185 130.447 197.573 131.87 197.14Z" fill="#5E8BC8"/>
<path opacity="0.9" d="M318.436 186.249C317.314 185.257 316.017 184.614 314.581 184.232C313.841 184.042 312.861 184.004 312.988 182.885C313.098 181.937 313.892 181.676 314.721 181.553C314.372 183.44 316.017 182.771 316.816 183.192C317.522 183.377 318.228 183.561 318.934 183.745C322.236 184.455 325.54 185.156 328.834 185.864C329.758 188.467 332.7 187.122 334.219 188.622C334.862 189.256 336.529 189.046 336.069 190.527C335.625 191.967 334.245 191.788 333.204 191.398C330.663 190.464 328.142 189.517 325.417 189.245C324.794 188.99 324.166 188.726 323.543 188.471C323.326 188.331 323.111 188.184 322.896 188.036C321.414 187.444 319.926 186.842 318.436 186.249Z" fill="#1B74BB"/>
<path opacity="0.9" d="M388.275 145.539C387.179 144.771 386.678 143.466 387.635 142.695C389.78 140.965 390.05 138.817 389.75 136.417C389.523 134.616 390.956 133.958 391.969 134.229C393.662 134.68 395.783 134.298 396.973 136.134C394.888 140.025 391.991 143.161 388.275 145.539Z" fill="#5E8BC8"/>
<path d="M288.742 70.8751C284.691 67.4745 281.016 70.4816 277.434 71.8387C276.175 72.3219 275.449 74.3873 274.639 75.8245C274.149 76.7053 273.952 77.7404 272.907 78.2049C274.229 74.1094 276.203 70.336 278.457 66.6967C279.613 64.8392 280.91 64.2064 282.708 66.1102C284.485 67.9837 287.376 68.472 288.742 70.8751Z" fill="#BAAC90"/>
<path opacity="0.9" d="M119.492 396.728C119.015 395.698 118.318 394.59 119.931 393.95C123.717 392.45 127.075 390.026 131.02 388.907C132.067 388.609 133.573 387.808 134.124 388.949C134.897 390.552 132.88 390.457 132.09 390.911C128.092 393.216 123.857 395.037 119.492 396.728Z" fill="#1B74BB"/>
<path opacity="0.9" d="M165.827 287.053C165.21 288.31 166.639 290.525 164.925 290.882C163.421 291.194 162.276 291.456 161.109 294.027C161.179 290.425 159.931 289.757 157.743 290.257C156.333 290.579 155.861 289.305 155.22 288.4C158.649 287.065 162.228 286.956 165.827 287.053Z" fill="#5E8BC8"/>
<path opacity="0.9" d="M299.542 252.593C299.959 252.956 300.386 253.312 300.803 253.674C299.825 260.17 299.825 260.17 302.457 263.323C295.38 264.893 299.047 272.113 295.535 275.711C296.664 267.97 299.98 260.577 299.542 252.593Z" fill="#5E8BC8"/>
<path opacity="0.9" d="M153.202 191.044C152.116 192.111 150.408 192.304 149.507 194.02C150.941 188.707 146.187 190.765 144.55 189.287C146.936 188.32 149.105 190.333 151.451 189.874C151.523 189.207 151.089 189.103 150.682 188.952C149.688 188.588 148.098 188.805 148.098 187.311C148.095 186.14 149.384 185.68 150.396 185.821C151.84 186.03 153.345 186.547 153.51 188.353C153.579 189.24 153.311 190.148 153.202 191.044Z" fill="#5E8BC8"/>
<path opacity="0.9" d="M216.404 329.909C216.557 328.481 214.98 327.224 216.105 325.482C218.319 329.111 218.809 326.955 219.035 324.24C220.442 325.341 221.545 326.207 222.649 327.073C220.619 328.137 219.082 330.285 216.404 329.909Z" fill="#1B74BB"/>
<path opacity="0.9" d="M192.506 167.587C193.257 170.182 190.303 171.673 190.558 174.126C189.294 173.359 187.747 172.44 188.211 170.855C188.765 168.948 190.471 167.89 192.506 167.587Z" fill="#5E8BC8"/>
<path opacity="0.9" d="M310.228 215.588C309.884 216.35 309.575 217.197 309.143 217.967C308.926 218.352 308.4 218.535 307.985 218.208C307.773 218.043 307.537 217.56 307.629 217.403C308.656 215.669 307.655 213.626 308.484 211.879C308.769 211.28 308.999 210.522 309.834 210.758C310.52 210.956 310.276 211.659 310.265 212.198C310.247 213.295 310.237 214.402 310.228 215.588Z" fill="#5E8BC8"/>
<path opacity="0.9" d="M125.279 287.997C123.723 284.839 125.933 279.313 128.815 279.145C127.707 282.121 125.789 284.779 125.279 287.997Z" fill="#1B74BB"/>
<path opacity="0.9" d="M194.377 290.752C190.134 289.899 185.888 289.054 181.645 288.2C186.084 288.071 190.328 288.924 194.377 290.752Z" fill="#5E8BC8"/>
<path opacity="0.9" d="M32.2298 290.405C31.8817 291.89 30.7595 292.479 29.2118 293.01C29.4114 290.91 30.5252 290.319 32.2652 290.447C32.2568 290.445 32.2298 290.405 32.2298 290.405Z" fill="#5E8BC8"/>
<path d="M295.312 76.3318C293.853 75.7181 293.323 74.2501 292.386 73.1638C294.265 73.3807 295.01 74.6469 295.312 76.3318Z" fill="#BAAC90"/>
<path d="M291.824 72.8685C290.753 72.6292 289.445 72.7445 289.291 71.1502C290.412 71.3122 291.545 71.4592 291.824 72.8685Z" fill="#BAAC90"/>
<path opacity="0.9" d="M144.541 189.285C144.158 190.554 143.107 190.65 142.037 190.717C142.491 189.576 143.218 188.908 144.541 189.285Z" fill="#5E8BC8"/>
<path opacity="0.9" d="M214.802 330.971C214.165 328.861 215.59 329.826 216.407 329.892C216.203 330.743 215.561 330.938 214.802 330.971Z" fill="#1B74BB"/>
<path opacity="0.9" d="M365.334 138.073C366.083 140.196 364.451 139.085 363.755 139.244C364.279 138.85 364.81 138.467 365.334 138.073Z" fill="#1B74BB"/>
<path opacity="0.9" d="M173.235 240.041C173.073 241.249 172.29 241.713 171.162 241.759C171.728 241.025 172.248 240.255 173.235 240.041Z" fill="#1B74BB"/>
<path opacity="0.9" d="M117.459 402.42C117.064 402.429 116.667 402.446 116.272 402.454C116.277 402.255 116.255 401.883 116.282 401.88C116.668 401.826 117.053 401.824 117.44 401.813C117.444 401.971 117.454 402.139 117.459 402.42Z" fill="#5E8BC8"/>
<path opacity="0.9" d="M223.262 326.715C223.437 325.527 224.163 325.173 225.264 325.393C224.934 326.349 224.121 326.571 223.262 326.715Z" fill="#1B74BB"/>
<path opacity="0.9" d="M391.003 187.031C390.056 186.912 389.049 186.921 388.453 185.964C389.417 186.042 390.428 186.008 391.003 187.031Z" fill="#5E8BC8"/>
<path opacity="0.9" d="M318.936 183.737C318.229 183.552 317.523 183.368 316.817 183.184C317.676 182.778 318.39 182.92 318.936 183.737Z" fill="#5E8BC8"/>
<path opacity="0.9" d="M379.252 131.2C378.869 131.762 378.32 131.714 377.762 131.62C378.158 131.122 378.606 130.801 379.252 131.2Z" fill="#1B74BB"/>
<path opacity="0.9" d="M198.455 162.901C198.106 163.164 197.746 163.433 197.397 163.695C197.595 163.228 197.815 162.783 198.455 162.901Z" fill="#5E8BC8"/>
<path opacity="0.9" d="M100.53 292.251C100.677 291.642 100.962 291.219 101.692 291.373C101.301 291.67 100.911 291.96 100.53 292.251Z" fill="#5E8BC8"/>
<path opacity="0.9" d="M386.69 146.743C386.964 146.553 387.247 146.357 387.521 146.167C387.237 146.363 386.964 146.553 386.69 146.743Z" fill="#5E8BC8"/>
<path opacity="0.9" d="M385.151 147.887C385.251 147.471 385.512 147.26 385.943 147.285C385.678 147.477 385.411 147.677 385.151 147.887Z" fill="#5E8BC8"/>
<path opacity="0.9" d="M166.744 286.921C166.464 286.97 166.183 287.019 165.903 287.067C166.183 287.019 166.464 286.97 166.744 286.921Z" fill="#5E8BC8"/>
<path opacity="0.9" d="M377.793 131.591C377.583 131.943 377.377 132.015 377.163 131.597C377.371 131.473 377.581 131.471 377.793 131.591Z" fill="#1B74BB"/>
<path opacity="0.9" d="M351.563 147.762C351.313 147.966 351.061 148.177 350.811 148.381C351.063 148.169 351.313 147.966 351.563 147.762Z" fill="#5E8BC8"/>
<path opacity="0.9" d="M243.349 249.899C243.426 249.95 243.511 250.01 243.588 250.061C243.522 249.995 243.457 249.929 243.389 249.872C243.389 249.872 243.349 249.899 243.349 249.899Z" fill="#5E8BC8"/>
<path opacity="0.9" d="M350.792 148.386C350.544 148.581 350.295 148.776 350.047 148.971C350.295 148.776 350.544 148.581 350.792 148.386Z" fill="#5E8BC8"/>
<path opacity="0.9" d="M292.142 248.674C292.321 248.562 292.496 248.562 292.677 248.659L292.412 248.807L292.142 248.674Z" fill="#5E8BC8"/>
<path opacity="0.9" d="M350.044 148.98C349.811 149.187 349.579 149.385 349.346 149.592C349.579 149.385 349.811 149.187 350.044 148.98Z" fill="#5E8BC8"/>
<path opacity="0.9" d="M295.799 240.877C295.577 240.72 295.355 240.562 295.133 240.404C295.355 240.562 295.577 240.72 295.799 240.877Z" fill="#5E8BC8"/>
<path opacity="0.9" d="M349.294 149.634C349.059 149.805 348.832 149.978 348.597 150.15C348.824 149.977 349.059 149.805 349.294 149.634Z" fill="#5E8BC8"/>
<path opacity="0.9" d="M348.223 150.626C348.163 150.929 348.113 151.224 348.052 151.527C347.659 151.134 347.734 150.843 348.223 150.626Z" fill="#5E8BC8"/>
<path opacity="0.9" d="M194.036 166.398C193.783 166.618 193.531 166.83 193.271 167.04C193.531 166.83 193.784 166.61 194.036 166.398Z" fill="#5E8BC8"/>
<path opacity="0.9" d="M195.509 165.189C195.456 165.632 195.212 165.846 194.769 165.836C195.012 165.622 195.257 165.401 195.509 165.189Z" fill="#5E8BC8"/>
<path opacity="0.9" d="M196.775 164.008C196.661 164.143 196.52 164.237 196.362 164.284C196.346 163.967 196.472 163.861 196.775 164.008Z" fill="#5E8BC8"/>
<path opacity="0.9" d="M322.904 188.038C323.119 188.185 323.336 188.325 323.551 188.472C323.336 188.325 323.119 188.185 322.904 188.038Z" fill="#5E8BC8"/>
<path opacity="0.9" d="M142.014 190.738C141.739 190.893 141.455 191.046 141.18 191.201C141.464 191.048 141.739 190.893 142.014 190.738Z" fill="#5E8BC8"/>
<path opacity="0.9" d="M311.156 177.995C311.06 178.474 310.965 178.953 310.871 179.424C309.526 181.837 309.299 179.242 309.302 178.919C309.384 175.083 308.32 171.43 307.779 167.689C307.498 165.72 306.886 163.834 306.682 161.872C306.548 161.583 306.411 161.302 306.285 161.015L306.308 160.941C306.587 159.189 307.427 157.294 307.016 155.719C306.3 152.991 307.006 151.114 308.978 149.418C309.422 154.914 309.67 160.431 311.165 165.786C311.446 168.104 311.736 170.424 312.017 172.743C311.73 174.493 311.443 176.244 311.156 177.995Z" fill="#C3D0EA"/>
<path opacity="0.9" d="M278.355 172.201C279.792 173.325 281.453 173.411 282.719 175.043C278.746 174.235 274.941 175.172 271.223 174.223C270.292 173.985 268.945 174.119 269.892 172.438C270.578 171.229 269.479 171.22 268.787 170.96C267.631 170.538 266.469 170.097 265.313 169.666C264.671 169.425 263.546 169.454 264.426 168.284C265.188 167.265 265.511 165.382 267.468 166.304C268.427 166.757 269.584 167.31 269.226 168.715C269.172 168.94 268.295 168.958 267.644 169.108C270.167 170.615 272.726 171.325 275.46 171.554C275.45 170.111 272.025 171.072 273.469 169.219C274.887 167.405 277.591 167.742 279.352 168.73C280.728 169.502 281.711 170.973 283.518 171.289C284.524 171.463 284.997 172.553 284.553 173.425C284.019 174.481 283.233 173.512 282.547 173.314C281.16 172.907 279.751 172.566 278.355 172.201Z" fill="#5E8BC8"/>
<path opacity="0.9" d="M308.978 149.418C307.007 151.105 306.3 152.991 307.016 155.719C307.429 157.286 306.587 159.188 306.308 160.941C303.345 157.739 302.757 153.535 301.781 149.567C301.559 148.667 302.936 147.281 303.738 146.235C304.386 145.395 304.919 146.008 305.157 146.701C305.513 147.724 304.857 148.956 305.862 150.012C306.954 148.605 307.482 146.963 308.168 144.925C309.407 146.56 309.519 147.928 308.978 149.418Z" fill="#5E8BC8"/>
<path opacity="0.9" d="M228.981 172.794C229.778 173.092 231.127 172.854 231.219 174.235C231.317 175.679 230.271 175.794 229.15 175.632C228.131 175.481 227.777 175.9 227.81 176.963C227.883 179.144 226.129 180.184 224.575 179.953C222.649 179.666 223.547 177.478 223.556 176.248C223.597 173.583 226.01 172.177 228.981 172.794Z" fill="#5E8BC8"/>
<path opacity="0.9" d="M255.85 187.174C256.819 187.358 259.075 186.252 257.585 188.908L257.605 188.894C254.781 188.376 251.988 189.585 248.893 189.327C250.877 186.472 253.706 188.022 255.879 187.162L255.85 187.174Z" fill="#5E8BC8"/>
<path opacity="0.9" d="M244.625 180.432C244.184 181.637 243.273 181.954 242.174 181.595C241.205 181.28 239.981 180.757 240.265 179.591C240.608 178.174 242.132 178.6 243.167 178.579C244.231 178.546 244.686 179.379 244.625 180.432Z" fill="#5E8BC8"/>
<path d="M301.753 93.0654C301.843 92.6553 301.937 92.1411 302.465 92.2113C303.036 92.2814 302.963 92.8258 302.849 93.2224C302.767 93.503 302.534 93.9283 302.339 93.9419C301.772 93.9776 301.735 93.5072 301.753 93.0654Z" fill="#BAAC90"/>
<path opacity="0.9" d="M327.572 168.099C327.349 168.955 326.717 169.187 325.926 169.213C326.175 168.398 326.472 167.653 327.572 168.099Z" fill="#C3D0EA"/>
<path opacity="0.9" d="M257.615 191.394C257.655 191.324 257.705 191.247 257.746 191.176C257.831 191.228 257.931 191.256 257.986 191.329C258.006 191.359 257.906 191.47 257.865 191.54C257.778 191.497 257.692 191.445 257.615 191.394Z" fill="#5E8BC8"/>
<path opacity="0.9" d="M257.587 188.9C257.703 189.15 257.828 189.402 257.944 189.652C257.138 189.709 257.703 189.15 257.599 188.885C257.607 188.886 257.587 188.9 257.587 188.9Z" fill="#5E8BC8"/>
<path opacity="0.9" d="M325.994 169.174C325.677 169.364 325.361 169.546 325.043 169.736C325.359 169.554 325.677 169.364 325.994 169.174Z" fill="#C3D0EA"/>
<path opacity="0.9" d="M255.87 187.16C255.687 186.896 255.514 186.626 255.33 186.363L255.32 186.369C255.493 186.64 255.677 186.903 255.85 187.173L255.87 187.16Z" fill="#5E8BC8"/>
<path opacity="0.9" d="M306.287 161.007C306.421 161.295 306.558 161.576 306.684 161.863C306.556 161.584 306.421 161.295 306.287 161.007Z" fill="#5E8BC8"/>
<path opacity="0.9" d="M114.289 313.664C111.637 315.704 110.485 318.157 111.492 321.615C112.197 324.044 110.769 326.17 109.495 328.441C108.162 327.145 109.514 325.799 109.029 324.418C103.953 329.898 100.878 336.562 97.1886 342.894C97.9485 339.778 99.1928 336.907 100.256 333.983C100.805 332.451 101.511 330.879 102.241 329.408C103.442 326.975 104.01 325.175 100.894 323.882C99.4325 323.277 99.4921 322.45 100.639 321.123C102.523 318.948 104.263 316.656 105.405 313.861C106.125 312.092 108.028 310.828 110.046 310.217C112.446 309.489 114.48 308.575 112.907 305.458C112.594 304.837 112.978 304.267 113.423 304.006C114.351 303.474 114.44 305.047 115.294 304.885C114.786 307.788 114.046 310.672 114.289 313.664Z" fill="#5E8BC8"/>
<path opacity="0.9" d="M114.289 313.664C114.037 310.67 114.784 307.797 115.3 304.895C117.41 302.24 118.28 298.439 122.169 297.431C121.537 301.882 120.921 306.337 120.272 310.785C119.481 316.121 118.696 321.468 117.821 326.788C117.634 327.947 117.837 329.342 116.531 330.104C115.79 324.611 115.036 319.132 114.289 313.664Z" fill="#C3D0EA"/>
<path opacity="0.9" d="M169.316 298.901C172.95 299.258 175.259 295.298 178.926 297.381C179.915 297.945 181.134 297.969 180.77 299.574C180.404 301.196 179.278 301.059 178.161 300.653C175.454 299.678 172.285 301.458 169.316 298.901Z" fill="#5E8BC8"/>
<path opacity="0.9" d="M81.309 291.867C80.3201 289.809 83.2039 289.064 82.521 287.094C82.3828 286.691 83.6856 286.732 84.2943 286.923C85.3082 287.23 86.6997 286.869 87.192 288.216C87.4634 288.96 86.8486 289.458 86.2943 289.872C84.8297 290.952 83.3228 291.936 81.309 291.867Z" fill="#5E8BC8"/>
<path opacity="0.9" d="M203.862 315.901C203.951 316.067 204.051 316.226 204.14 316.392C203.953 316.451 203.772 316.529 203.582 316.561C203.547 316.563 203.419 316.328 203.444 316.289C203.552 316.144 203.714 316.028 203.862 315.901Z" fill="#5E8BC8"/>
<path opacity="0.9" d="M120.726 287.911C120.902 288.165 121.077 288.427 121.254 288.68L121.272 288.675C121.059 288.606 120.836 288.588 120.614 288.605C120.65 288.377 120.687 288.148 120.726 287.911Z" fill="#C3D0EA"/>
<path opacity="0.9" d="M120.612 288.614C120.834 288.597 121.057 288.615 121.271 288.684C121.009 289.077 120.797 289 120.612 288.614Z" fill="#5E8BC8"/>
<path opacity="0.9" d="M144.889 249.85C145.438 252.624 144.727 254.264 144.379 255.924C144.257 256.494 143.876 256.96 143.188 256.77C142.509 256.583 142.357 255.985 142.561 255.44C143.165 253.857 143.857 252.309 144.889 249.85Z" fill="#5E8BC8"/>
<path opacity="0.9" d="M126.068 250.839C126.222 250.066 126.287 249.258 126.546 248.523C126.794 247.804 126.489 246.311 127.916 246.822C128.945 247.184 128.711 248.36 128.319 249.19C127.891 250.11 127.334 251.021 126.053 250.827C126.054 250.819 126.068 250.839 126.068 250.839Z" fill="#5E8BC8"/>
<path opacity="0.9" d="M207.364 253.253C207.166 254.559 206.892 256.243 205.506 257.452C205.073 257.829 204.547 258.1 203.957 257.86C203.237 257.568 203.485 257.067 203.602 256.479C204.375 252.728 203.484 251.582 199.651 250.731C198.378 250.452 196.552 250.403 196.367 248.61C196.201 247.031 197.197 246.199 198.879 245.957C199.663 245.842 200.263 244.756 201.072 244.472C201.823 244.211 202.089 242.124 203.34 243.7C204.905 245.671 202.673 245.122 202.002 245.592C201.524 245.933 201.089 246.318 201.214 246.963C201.396 247.89 202.126 247.739 202.805 247.708C208.353 247.493 208.481 247.641 207.364 253.253Z" fill="#5E8BC8"/>
<path opacity="0.9" d="M205.551 259.199C206.289 259.18 206.965 259.515 206.889 260.295C206.816 261.014 206.115 261.46 205.402 261.353C204.563 261.221 203.466 260.321 202.948 261.258C201.696 263.55 200.656 263.378 199.134 261.538C198.818 261.152 197.441 261.655 197.79 260.345C197.976 259.63 198.616 259.312 199.342 259.265C201.404 259.134 203.472 258.846 205.551 259.199Z" fill="#5E8BC8"/>
<path opacity="0.9" d="M193.971 260.126C192.493 261.142 191.112 262.151 189.664 263.06C188.825 263.583 187.787 264.276 186.922 263.309C185.901 262.162 186.965 261.116 187.64 260.403C189.521 258.419 191.632 257.695 193.971 260.126Z" fill="#5E8BC8"/>
<path opacity="0.9" d="M206.681 244.654C205.862 244.464 205.154 244.158 205.308 243.122C205.451 242.138 206.092 241.82 207 242.044C207.823 242.252 208.453 242.735 208.4 243.659C208.325 244.78 207.507 244.766 206.681 244.654Z" fill="#5E8BC8"/>
<path opacity="0.9" d="M194.531 245.449C194.37 245.339 194.093 245.24 194.067 245.104C194.042 244.968 194.24 244.676 194.384 244.652C194.52 244.627 194.813 244.825 194.837 244.969C194.862 245.105 194.642 245.288 194.531 245.449Z" fill="#5E8BC8"/>
<path opacity="0.9" d="M183.186 239.706C183.024 239.595 182.762 239.508 182.737 239.372C182.711 239.236 182.906 238.961 183.042 238.935C183.178 238.91 183.454 239.105 183.479 239.241C183.504 239.377 183.295 239.553 183.186 239.706Z" fill="#5E8BC8"/>
<path opacity="0.9" d="M72.5816 293.693C72.2814 294.367 71.86 294.86 71.0343 294.53C70.9284 294.491 70.8841 294.011 70.9127 293.999C71.4134 293.81 71.9327 293.66 72.4452 293.5L72.5816 293.693Z" fill="#1B74BB"/>
<path opacity="0.9" d="M319.444 166.691C319.508 163.21 321.472 160.369 322.783 157.293C323.111 160.87 321.654 163.89 319.444 166.691Z" fill="#1B74BB"/>
<path opacity="0.9" d="M311.155 177.995C311.443 176.244 311.73 174.493 312.017 172.742C312.762 171.589 311.984 168.735 313.96 169.347C315.78 169.91 313.731 171.73 313.36 172.931C312.811 174.682 313.667 177.098 311.155 177.995Z" fill="#1B74BB"/>
<path opacity="0.9" d="M350.811 157.16C350.437 157.286 349.934 157.57 349.413 157.598C348.84 157.623 348.668 157.17 348.972 156.697C349.311 156.18 349.85 156.016 350.444 156.195C350.789 156.308 351.041 156.533 350.811 157.16Z" fill="#1B74BB"/>
<path opacity="0.9" d="M362.356 150.094C362.501 149.537 362.687 148.998 363.286 148.803C363.407 148.766 363.746 148.99 363.745 149.086C363.71 150.005 363.062 150.103 362.334 150.072L362.356 150.094Z" fill="#1B74BB"/>
<path opacity="0.9" d="M362.479 145.961C362.538 145.885 362.595 145.818 362.654 145.742C362.589 145.808 362.525 145.865 362.459 145.931C362.467 145.933 362.479 145.961 362.479 145.961Z" fill="#1B74BB"/>
<path opacity="0.9" d="M189.109 243.934C189.052 244.001 188.993 244.077 188.944 244.146C189.01 244.081 189.066 244.022 189.131 243.956C189.121 243.963 189.109 243.934 189.109 243.934Z" fill="#1B74BB"/>
<path opacity="0.9" d="M381.158 194.732C381.826 193.179 382.687 193.639 383.797 194.296C382.907 195.517 382.012 194.788 381.199 194.792L381.158 194.732Z" fill="#5E8BC8"/>
<path opacity="0.9" d="M285.552 320.027C285.233 321.938 285.085 323.909 283.862 325.534C283.834 323.52 284.301 321.656 285.552 320.027Z" fill="#C3D0EA"/>
<path opacity="0.9" d="M117.942 383.57C118.05 383.819 118.142 383.968 118.164 384.121C118.181 384.212 118.129 384.341 118.06 384.424C117.841 384.694 117.659 384.641 117.657 384.3C117.658 384.117 117.793 383.925 117.942 383.57Z" fill="#C3D0EA"/>
<path opacity="0.9" d="M272.786 178.752C273.036 178.636 273.287 178.52 273.527 178.411C273.549 179.175 273.023 178.616 272.764 178.731C272.774 178.724 272.786 178.752 272.786 178.752Z" fill="#1B74BB"/>
<path opacity="0.9" d="M249.043 179.574C249.119 179.633 249.195 179.691 249.269 179.759C249.203 179.693 249.138 179.627 249.072 179.562C249.065 179.552 249.043 179.574 249.043 179.574Z" fill="#1B74BB"/>
<path opacity="0.9" d="M361.863 213.559C361.897 213.653 361.971 213.763 361.946 213.846C361.923 213.92 361.807 213.975 361.724 214.037C361.775 213.873 361.815 213.715 361.863 213.559Z" fill="#5E8BC8"/>
<path opacity="0.9" d="M303.487 250.732C303.191 251.031 302.896 251.33 302.6 251.63C302.508 251.48 302.415 251.331 302.314 251.18C302.716 251.05 303.11 250.91 303.512 250.78C303.522 250.774 303.487 250.732 303.487 250.732Z" fill="#C3D0EA"/>
</g>
<defs>
<clipPath id="clip0">
<rect width="374.198" height="423.752" fill="white" transform="translate(82.7183) rotate(11.2566)"/>
</clipPath>
</defs>
</svg>
